<svg width="50" height="50" viewBox="0 0 50 50" fill="none" xmlns="http://www.w3.org/2000/svg">
<rect width="49.0738" height="49.0738" rx="24.5369" fill="white"/>
<path d="M34.1525 34.3365C32.7708 34.3365 31.3661 34.3888 29.9614 34.3024C29.6067 34.2796 29.19 33.8725 28.9597 33.5359C26.2769 29.6128 23.6241 25.6714 20.9621 21.7346C20.7661 21.4125 20.5419 21.1081 20.292 20.8248C19.7232 20.2449 19.1406 20.4109 18.9587 21.1978C18.9032 21.5345 18.8847 21.8761 18.9034 22.2167C18.9034 25.8147 18.9034 29.4126 18.9034 33.0106C18.9034 33.4154 18.8665 33.8179 18.8458 34.2819H13.6001C13.5701 33.9021 13.5172 33.5405 13.5172 33.1811C13.5172 27.4613 13.5356 21.7414 13.4941 16.0238C13.4941 15.0618 13.7958 14.7729 14.7377 14.8252C16.2667 14.9094 18.0537 14.4181 19.258 15.0527C20.4624 15.6872 21.1003 17.3838 21.9477 18.6392C23.8221 21.4093 25.6621 24.2022 27.5504 26.9655C27.7806 27.293 28.2044 27.484 28.5406 27.7387C28.6718 27.3293 28.9159 26.9223 28.9182 26.5129C28.9504 23.1014 28.9366 19.69 28.9366 16.2785V14.8593C30.6338 14.8593 32.2665 14.8412 33.8945 14.8866C34.0557 14.8866 34.339 15.2983 34.339 15.5189C34.3543 21.6534 34.3543 27.7888 34.339 33.9248C34.3298 34.0226 34.2469 34.1227 34.1525 34.3365Z" fill="#049E48"/>
</svg>
