<svg width="31" height="34" viewBox="0 0 31 34" fill="none" xmlns="http://www.w3.org/2000/svg">
<g opacity="0.35">
<path d="M14.391 16.6081C16.5313 16.6081 18.2664 14.8731 18.2664 12.7328C18.2664 10.5925 16.5313 8.85742 14.391 8.85742C12.2507 8.85742 10.5156 10.5925 10.5156 12.7328C10.5156 14.8731 12.2507 16.6081 14.391 16.6081Z" fill="white"/>
<path d="M18.2448 20.1742C17.3766 20.9987 16.6853 21.9913 16.2132 23.0916C15.7411 24.1919 15.4981 25.3768 15.4988 26.5741C15.4964 27.2985 15.5857 28.0202 15.7646 28.7222C15.3106 28.7665 14.8566 28.7886 14.3916 28.7886C11.4397 28.7906 8.55905 27.882 6.14258 26.1866C6.40803 24.9128 6.95916 23.7159 7.75443 22.6861C8.5497 21.6563 9.56836 20.8204 10.7336 20.2415C11.8989 19.6626 13.1804 19.3557 14.4815 19.3441C15.7826 19.3324 17.0693 19.6163 18.2448 20.1742Z" fill="white"/>
<path d="M28.7855 14.3943C28.7914 15.8119 28.5861 17.2225 28.1765 18.5797C26.9286 17.9842 25.5587 17.6891 24.1763 17.7179C22.7939 17.7468 21.4374 18.0988 20.2154 18.7458C19.4981 18.2984 18.7283 17.9414 17.9234 17.6828C18.9774 16.9307 19.7641 15.8622 20.1692 14.6324C20.5743 13.4026 20.5767 12.0757 20.176 10.8445C19.7753 9.61327 18.9924 8.54191 17.9411 7.78611C16.8898 7.0303 15.6249 6.62944 14.3301 6.64177C13.0354 6.6541 11.7784 7.07899 10.7417 7.85468C9.70496 8.63037 8.94262 9.71644 8.56544 10.9551C8.18827 12.1937 8.21591 13.5203 8.64434 14.7422C9.07277 15.964 9.87968 17.0174 10.9478 17.7492C9.38072 18.3041 7.96291 19.2133 6.80482 20.4059C5.64674 21.5986 4.77964 23.0425 4.27109 24.6252C2.58595 22.9583 1.33857 20.9011 0.639749 18.6361C-0.0590736 16.3712 -0.187705 13.9688 0.26528 11.6422C0.718266 9.31557 1.73885 7.13686 3.23637 5.29956C4.73389 3.46226 6.66199 2.02325 8.84942 1.11034C11.0368 0.197427 13.4159 -0.161118 15.7752 0.0665496C18.1345 0.294217 20.4011 1.10105 22.3736 2.41538C24.3461 3.72971 25.9635 5.51085 27.0821 7.6006C28.2006 9.69034 28.7858 12.024 28.7855 14.3943Z" fill="white"/>
<path d="M24.3564 19.9307C23.0424 19.9307 21.758 20.3203 20.6655 21.0503C19.5729 21.7803 18.7214 22.8179 18.2186 24.0318C17.7158 25.2457 17.5842 26.5815 17.8405 27.8702C18.0969 29.1589 18.7296 30.3427 19.6587 31.2718C20.5878 32.2009 21.7716 32.8336 23.0603 33.09C24.349 33.3463 25.6848 33.2147 26.8987 32.7119C28.1127 32.2091 29.1502 31.3576 29.8802 30.2651C30.6102 29.1725 30.9999 27.8881 30.9999 26.5741C30.9984 24.8126 30.2981 23.1236 29.0525 21.878C27.8069 20.6325 26.1179 19.9321 24.3564 19.9307ZM26.5709 27.6814H25.4636V28.7886C25.4636 29.0823 25.347 29.3639 25.1393 29.5716C24.9317 29.7792 24.65 29.8959 24.3564 29.8959C24.0627 29.8959 23.7811 29.7792 23.5734 29.5716C23.3658 29.3639 23.2491 29.0823 23.2491 28.7886V27.6814H22.1419C21.8482 27.6814 21.5666 27.5647 21.3589 27.3571C21.1513 27.1494 21.0346 26.8678 21.0346 26.5741C21.0346 26.2805 21.1513 25.9988 21.3589 25.7912C21.5666 25.5836 21.8482 25.4669 22.1419 25.4669H23.2491V24.3596C23.2491 24.066 23.3658 23.7844 23.5734 23.5767C23.7811 23.3691 24.0627 23.2524 24.3564 23.2524C24.65 23.2524 24.9317 23.3691 25.1393 23.5767C25.347 23.7844 25.4636 24.066 25.4636 24.3596V25.4669H26.5709C26.8645 25.4669 27.1462 25.5836 27.3538 25.7912C27.5615 25.9988 27.6781 26.2805 27.6781 26.5741C27.6781 26.8678 27.5615 27.1494 27.3538 27.3571C27.1462 27.5647 26.8645 27.6814 26.5709 27.6814Z" fill="white"/>
</g>
</svg>
