<svg width="33" height="33" viewBox="0 0 33 33" fill="none" xmlns="http://www.w3.org/2000/svg">
<g opacity="0.35" clip-path="url(#clip0_1_9025)">
<path d="M24.0662 15.1582C22.296 15.1569 20.5652 15.6812 19.0932 16.6645C17.6212 17.6479 16.4743 19.0461 15.7978 20.682C15.1213 22.3178 14.9456 24.1177 15.293 25.8535C15.6405 27.5893 16.4954 29.1829 17.7495 30.4323C19.0035 31.6818 20.6003 32.5308 22.3374 32.8718C24.0745 33.2128 25.8737 33.0305 27.507 32.3479C29.1404 31.6653 30.5343 30.5132 31.5122 29.0376C32.4901 27.562 33.008 25.8293 33.0001 24.0591C32.9879 21.6965 32.0417 19.4346 30.3679 17.767C28.6942 16.0995 26.4288 15.1617 24.0662 15.1582ZM27.5023 25.4666H25.4406V27.5349C25.4406 27.8994 25.2958 28.249 25.0381 28.5067C24.7803 28.7645 24.4307 28.9093 24.0662 28.9093C23.7017 28.9093 23.3521 28.7645 23.0943 28.5067C22.8366 28.249 22.6917 27.8994 22.6917 27.5349V25.4335H20.6235C20.2589 25.4335 19.9093 25.2887 19.6516 25.031C19.3938 24.7732 19.249 24.4236 19.249 24.0591C19.249 23.6946 19.3938 23.345 19.6516 23.0872C19.9093 22.8294 20.2589 22.6846 20.6235 22.6846H22.6917V20.623C22.6917 20.2584 22.8366 19.9088 23.0943 19.6511C23.3521 19.3933 23.7017 19.2485 24.0662 19.2485C24.4307 19.2485 24.7803 19.3933 25.0381 19.6511C25.2958 19.9088 25.4406 20.2584 25.4406 20.623V22.6846H27.5023C27.6828 22.6846 27.8615 22.7202 28.0283 22.7893C28.1951 22.8583 28.3466 22.9596 28.4742 23.0872C28.6018 23.2148 28.7031 23.3664 28.7721 23.5331C28.8412 23.6999 28.8768 23.8786 28.8768 24.0591C28.8768 24.2396 28.8412 24.4183 28.7721 24.5851C28.7031 24.7518 28.6018 24.9033 28.4742 25.031C28.3466 25.1586 28.1951 25.2598 28.0283 25.3289C27.8615 25.398 27.6828 25.4335 27.5023 25.4335V25.4666Z" fill="white"/>
<path d="M2.06167 26.815V22.685H12.4626C12.6508 21.1099 13.159 19.5898 13.9559 18.2181H12.033C11.7596 18.2181 11.4974 18.1095 11.3041 17.9162C11.1108 17.7228 11.0022 17.4606 11.0022 17.1872C11.0022 16.9139 11.1108 16.6517 11.3041 16.4583C11.4974 16.265 11.7596 16.1564 12.033 16.1564H15.4692V14.0947H12.033C11.7596 14.0947 11.4974 13.9861 11.3041 13.7928C11.1108 13.5995 11.0022 13.3373 11.0022 13.0639C11.0022 12.7905 11.1108 12.5283 11.3041 12.335C11.4974 12.1417 11.7596 12.0331 12.033 12.0331H15.4692V9.96478H12.033C11.7596 9.96478 11.4974 9.85617 11.3041 9.66285C11.1108 9.46953 11.0022 9.20734 11.0022 8.93394C11.0022 8.66055 11.1108 8.39835 11.3041 8.20503C11.4974 8.01171 11.7596 7.90311 12.033 7.90311H15.4692V5.84143H12.033C11.7596 5.84143 11.4974 5.73283 11.3041 5.53951C11.1108 5.34619 11.0022 5.08399 11.0022 4.81059C11.0022 4.5372 11.1108 4.275 11.3041 4.08168C11.4974 3.88836 11.7596 3.77976 12.033 3.77976H15.4692V1.03086C15.4692 0.757463 15.3606 0.495266 15.1672 0.301946C14.9739 0.108627 14.7117 2.11813e-05 14.4383 2.11813e-05H7.56608C7.43015 -0.00085016 7.2954 0.0251701 7.16957 0.0765842C7.04373 0.127998 6.92932 0.203791 6.83289 0.2996C6.73647 0.395409 6.65995 0.509342 6.60773 0.634842C6.55551 0.760341 6.52863 0.894929 6.52863 1.03086V3.77976H3.77974C3.50634 3.77976 3.24414 3.88836 3.05082 4.08168C2.8575 4.275 2.7489 4.5372 2.7489 4.81059V20.6234H1.03084C0.757442 20.6234 0.495245 20.732 0.301925 20.9253C0.108606 21.1186 0 21.3808 0 21.6542L0 27.8458C0 28.1192 0.108606 28.3814 0.301925 28.5747C0.495245 28.7681 0.757442 28.8767 1.03084 28.8767H13.4273C13.1257 28.2132 12.8868 27.523 12.7137 26.815H2.06167ZM4.81057 5.84143H6.52863V7.88989H4.81057V5.84143ZM4.81057 9.96478H6.52863V12.0331H4.81057V9.96478ZM4.81057 14.0947H6.52863V16.1564H4.81057V14.0947ZM4.81057 18.2181H6.52863V20.6234H4.81057V18.2181Z" fill="white"/>
</g>
<defs>
<clipPath id="clip0_1_9025">
<rect width="33" height="33" fill="white"/>
</clipPath>
</defs>
</svg>
