<svg width="33" height="33" viewBox="0 0 33 33" fill="none" xmlns="http://www.w3.org/2000/svg">
<path opacity="0.35" d="M31.0907 12.8501L28.4943 12.4674C28.3146 11.902 28.0938 11.3506 27.8336 10.8174L29.4258 8.73837C29.7448 8.31391 29.9003 7.78897 29.864 7.25943C29.8276 6.7299 29.6017 6.23111 29.2276 5.85418L27.1399 3.80159C26.7626 3.42789 26.2633 3.20225 25.7333 3.1659C25.2032 3.12955 24.6777 3.2849 24.2528 3.60359L22.1387 5.17438C21.6053 4.91386 21.0532 4.69325 20.4871 4.51439L20.1369 1.9272C20.0708 1.39465 19.8119 0.904672 19.4091 0.549664C19.0063 0.194656 18.4873 -0.000851531 17.9501 8.38774e-06H15.0432C14.5091 -0.00146518 13.9926 0.191265 13.5902 0.542236C13.1879 0.893207 12.927 1.37844 12.8565 1.9074L12.4733 4.50119C11.9091 4.67957 11.3592 4.9002 10.8282 5.16118L8.74055 3.60359C8.31566 3.2849 7.79019 3.12955 7.26012 3.1659C6.73006 3.20225 6.23077 3.42789 5.85346 3.80159L3.80541 5.85418C3.43133 6.23111 3.20547 6.7299 3.16908 7.25943C3.13269 7.78897 3.28821 8.31391 3.60722 8.73837L5.18619 10.8504C4.91135 11.381 4.67939 11.9328 4.4925 12.5004L1.90271 12.8501C1.37443 12.9221 0.890279 13.1833 0.540299 13.5851C0.190319 13.987 -0.00167707 14.5021 1.10379e-05 15.0347V17.9387C-0.00167707 18.4714 0.190319 18.9865 0.540299 19.3883C0.890279 19.7902 1.37443 20.0513 1.90271 20.1233L4.50571 20.5061C4.68411 21.0698 4.90496 21.6191 5.16637 22.1495L3.58079 24.2351C3.26178 24.6596 3.10627 25.1845 3.14266 25.714C3.17905 26.2436 3.40491 26.7424 3.77899 27.1193L5.82703 29.1653C6.20434 29.539 6.70363 29.7646 7.2337 29.801C7.76376 29.8373 8.28923 29.682 8.71412 29.3633L10.8282 27.7859C11.3604 28.0492 11.9127 28.2698 12.4799 28.4459L12.83 31.0331C12.8876 31.5773 13.1463 32.0806 13.5557 32.4443C13.965 32.8081 14.4954 33.0062 15.0432 32.9999H17.9501C18.4833 33.0015 18.999 32.8097 19.4012 32.4601C19.8034 32.1105 20.0649 31.6268 20.1369 31.0991L20.5201 28.4987C21.0861 28.3193 21.6381 28.0987 22.1718 27.8387L24.2528 29.4227C24.6777 29.7414 25.2032 29.8967 25.7333 29.8604C26.2633 29.824 26.7626 29.5984 27.1399 29.2247L29.1946 27.1787C29.5687 26.8018 29.7945 26.303 29.8309 25.7734C29.8673 25.2439 29.7118 24.719 29.3928 24.2945L27.8204 22.1825C28.0783 21.6596 28.299 21.1193 28.4811 20.5655V20.4599L31.0709 20.1101C31.6017 20.0443 32.0903 19.7876 32.4454 19.3879C32.8005 18.9883 32.9976 18.4731 33 17.9387V15.0347C33.0015 14.5011 32.8085 13.9852 32.4572 13.5832C32.1059 13.1812 31.6202 12.9207 31.0907 12.8501ZM22.251 17.5889H17.6264V22.2089C17.6264 22.5012 17.5102 22.7816 17.3033 22.9883C17.0964 23.195 16.8157 23.3111 16.5231 23.3111C16.2305 23.3111 15.9499 23.195 15.743 22.9883C15.5361 22.7816 15.4198 22.5012 15.4198 22.2089V17.5889H10.7952C10.5026 17.5889 10.222 17.4728 10.015 17.2661C9.80814 17.0594 9.6919 16.7791 9.6919 16.4867C9.6919 16.1944 9.80814 15.9141 10.015 15.7074C10.222 15.5007 10.5026 15.3845 10.7952 15.3845H15.4198V10.7646C15.4198 10.4722 15.5361 10.1919 15.743 9.98519C15.9499 9.77849 16.2305 9.66236 16.5231 9.66236C16.8157 9.66236 17.0964 9.77849 17.3033 9.98519C17.5102 10.1919 17.6264 10.4722 17.6264 10.7646V15.3845H22.251C22.5437 15.3845 22.8243 15.5007 23.0312 15.7074C23.2381 15.9141 23.3544 16.1944 23.3544 16.4867C23.3544 16.7791 23.2381 17.0594 23.0312 17.2661C22.8243 17.4728 22.5437 17.5889 22.251 17.5889Z" fill="white"/>
</svg>
