<svg width="30" height="34" viewBox="0 0 30 34" fill="none" xmlns="http://www.w3.org/2000/svg">
<g opacity="0.35">
<path d="M13.6342 0.980469L2.73047 5.12776L13.6342 9.24863L24.5445 5.12776L13.6342 0.980469Z" fill="white"/>
<path d="M23.1825 20.25C21.8342 20.25 20.5161 20.6532 19.395 21.4086C18.2739 22.164 17.4002 23.2377 16.8842 24.4939C16.3682 25.7501 16.2332 27.1324 16.4962 28.4659C16.7593 29.7995 17.4086 31.0244 18.362 31.9859C19.3154 32.9473 20.5301 33.6021 21.8525 33.8674C23.175 34.1326 24.5457 33.9965 25.7914 33.4761C27.0371 32.9558 28.1018 32.0747 28.8509 30.9441C29.6 29.8136 29.9998 28.4844 29.9998 27.1247C29.9998 25.3014 29.2816 23.5528 28.0031 22.2636C26.7246 20.9743 24.9906 20.25 23.1825 20.25ZM27.2755 28.1748H24.1779V31.272H22.1609V28.1549H19.0895V26.0747H22.1609V22.9972H24.1779V26.0747H27.2493L27.2755 28.1748Z" fill="white"/>
<path d="M13.6348 12.2072L8.17969 10.1468V12.0223C8.17969 13.4813 8.75442 14.8805 9.77746 15.9122C10.8005 16.9438 12.188 17.5234 13.6348 17.5234C15.0816 17.5234 16.4692 16.9438 17.4922 15.9122C18.5152 14.8805 19.09 13.4813 19.09 12.0223V10.127L13.6348 12.2072Z" fill="white"/>
<path d="M13.6346 27.1247C13.6336 25.8432 13.8875 24.5744 14.3813 23.3936C14.8751 22.2128 15.5988 21.1438 16.5095 20.25H6.81729C5.6743 20.2914 4.57615 20.7089 3.69048 21.4386C2.80481 22.1684 2.18028 23.1704 1.91225 24.2916L0 33.9994H16.5095C15.5982 33.1061 14.8741 32.0372 14.3802 30.8563C13.8864 29.6753 13.6328 28.4064 13.6346 27.1247Z" fill="white"/>
</g>
</svg>
