<svg width="33" height="34" viewBox="0 0 33 34" fill="none" xmlns="http://www.w3.org/2000/svg">
<g opacity="0.35">
<path d="M16.849 2.74873H15.3385C15.1123 1.95685 14.6342 1.26021 13.9768 0.764245C13.3193 0.268283 12.5182 0 11.6946 0C10.871 0 10.0699 0.268283 9.41241 0.764245C8.75494 1.26021 8.27692 1.95685 8.05071 2.74873H6.53354C6.26049 2.75217 5.9996 2.86216 5.80651 3.05525C5.61343 3.24833 5.50343 3.50923 5.5 3.78227V5.84934C5.50349 6.48725 5.7589 7.09793 6.21059 7.54838C6.66229 7.99884 7.27367 8.25256 7.91158 8.2543H15.4776C16.1155 8.25256 16.7269 7.99884 17.1786 7.54838C17.6303 7.09793 17.8857 6.48725 17.8892 5.84934V3.78227C17.8857 3.50809 17.7748 3.24622 17.5803 3.05295C17.3858 2.85968 17.1232 2.75045 16.849 2.74873Z" fill="white"/>
<path d="M19.6041 4.12696H19.2596V5.84952C19.2578 6.85169 18.8585 7.81221 18.1492 8.52023C17.4399 9.22825 16.4787 9.6259 15.4765 9.6259H7.91053C7.41405 9.62677 6.92228 9.52974 6.46334 9.34034C6.0044 9.15095 5.58732 8.87293 5.23594 8.52217C4.88457 8.17141 4.60581 7.75481 4.41562 7.29621C4.22542 6.83761 4.12752 6.346 4.12753 5.84952V4.12696H3.78301C3.28598 4.12609 2.79366 4.22334 2.33429 4.41315C1.87492 4.60295 1.45754 4.88157 1.10608 5.23303C0.754618 5.58449 0.475997 6.00187 0.286193 6.46124C0.0963878 6.92061 -0.00086694 7.41293 5.82236e-06 7.90997V25.1356C-0.00086694 25.6326 0.0963878 26.1249 0.286193 26.5843C0.475997 27.0437 0.754618 27.461 1.10608 27.8125C1.45754 28.164 1.87492 28.4426 2.33429 28.6324C2.79366 28.8222 3.28598 28.9195 3.78301 28.9186H12.8463C12.1349 27.41 11.7468 25.7694 11.7068 24.102H5.16106C5.01883 24.1134 4.87577 24.0953 4.74089 24.0487C4.60602 24.0021 4.48226 23.9281 4.3774 23.8313C4.27254 23.7345 4.18886 23.6171 4.13163 23.4864C4.07439 23.3557 4.04484 23.2145 4.04484 23.0718C4.04484 22.9291 4.07439 22.788 4.13163 22.6573C4.18886 22.5265 4.27254 22.4091 4.3774 22.3123C4.48226 22.2155 4.60602 22.1415 4.74089 22.0949C4.87577 22.0483 5.01883 22.0302 5.16106 22.0416H11.7863C11.9087 21.2216 12.1129 20.4159 12.3958 19.6366H5.10806C4.83395 19.6366 4.57106 19.5277 4.37724 19.3339C4.18341 19.1401 4.07452 18.8772 4.07452 18.6031C4.07452 18.329 4.18341 18.0661 4.37724 17.8723C4.57106 17.6784 4.83395 17.5696 5.10806 17.5696H13.4095C13.939 16.6751 14.5826 15.8533 15.3242 15.1248H5.16106C5.01883 15.1363 4.87577 15.1181 4.74089 15.0715C4.60602 15.0249 4.48226 14.9509 4.3774 14.8541C4.27254 14.7573 4.18886 14.6399 4.13163 14.5092C4.07439 14.3785 4.04484 14.2373 4.04484 14.0946C4.04484 13.9519 4.07439 13.8108 4.13163 13.6801C4.18886 13.5494 4.27254 13.4319 4.3774 13.3351C4.48226 13.2384 4.60602 13.1643 4.74089 13.1177C4.87577 13.0711 5.01883 13.053 5.16106 13.0644H18.1465C19.7636 12.2084 21.5579 11.7411 23.3871 11.6996V7.90997C23.3871 6.90665 22.9885 5.94443 22.2791 5.23498C21.5696 4.52552 20.6074 4.12696 19.6041 4.12696Z" fill="white"/>
<path d="M23.7245 14.4629C21.8901 14.4629 20.0968 15.0069 18.5715 16.0261C17.0461 17.0452 15.8573 18.4939 15.1553 20.1887C14.4532 21.8835 14.2696 23.7485 14.6274 25.5477C14.9853 27.347 15.8687 28.9997 17.1659 30.2969C18.4631 31.594 20.1158 32.4774 21.915 32.8353C23.7143 33.1932 25.5792 33.0095 27.2741 32.3075C28.9689 31.6055 30.4175 30.4166 31.4367 28.8913C32.4559 27.366 32.9999 25.5727 32.9999 23.7382C32.9999 21.2782 32.0227 18.919 30.2832 17.1796C28.5437 15.4401 26.1845 14.4629 23.7245 14.4629ZM27.5076 25.1229H25.1026V27.5146C25.0784 27.8627 24.9231 28.1887 24.6679 28.4267C24.4128 28.6648 24.0768 28.7972 23.7279 28.7972C23.3789 28.7972 23.043 28.6648 22.7878 28.4267C22.5326 28.1887 22.3773 27.8627 22.3531 27.5146V25.103H19.9415C19.5934 25.0788 19.2675 24.9235 19.0294 24.6683C18.7914 24.4132 18.659 24.0772 18.659 23.7283C18.659 23.3793 18.7914 23.0434 19.0294 22.7882C19.2675 22.5331 19.5934 22.3777 19.9415 22.3535H22.3531V19.9486C22.34 19.76 22.3659 19.5708 22.429 19.3926C22.4922 19.2145 22.5913 19.0512 22.7202 18.913C22.8492 18.7748 23.0052 18.6646 23.1785 18.5893C23.3519 18.5139 23.5388 18.475 23.7279 18.475C23.9169 18.475 24.1039 18.5139 24.2772 18.5893C24.4506 18.6646 24.6065 18.7748 24.7355 18.913C24.8644 19.0512 24.9636 19.2145 25.0267 19.3926C25.0899 19.5708 25.1157 19.76 25.1026 19.9486V22.3535H27.5076C27.6961 22.3404 27.8853 22.3663 28.0635 22.4294C28.2416 22.4926 28.4049 22.5917 28.5431 22.7207C28.6813 22.8496 28.7915 23.0056 28.8669 23.1789C28.9422 23.3523 28.9811 23.5393 28.9811 23.7283C28.9811 23.9173 28.9422 24.1043 28.8669 24.2776C28.7915 24.451 28.6813 24.607 28.5431 24.7359C28.4049 24.8648 28.2416 24.964 28.0635 25.0271C27.8853 25.0903 27.6961 25.1161 27.5076 25.103V25.1229Z" fill="white"/>
</g>
</svg>
