<svg width="25" height="28" viewBox="0 0 25 28" fill="none" xmlns="http://www.w3.org/2000/svg">
<g opacity="0.15">
<path d="M12.5301 16.5642C14.6545 16.5642 16.3767 14.842 16.3767 12.7176C16.3767 10.5932 14.6545 8.87109 12.5301 8.87109C10.4057 8.87109 8.68359 10.5932 8.68359 12.7176C8.68359 14.842 10.4057 16.5642 12.5301 16.5642Z" fill="white"/>
<path d="M6.55212 21.0748C5.93024 22.0465 5.60156 23.1699 5.60156 24.3234V27.9998H19.4629V24.3234C19.4629 23.1698 19.1343 22.0465 18.5124 21.0748C17.3991 19.3353 15.5016 18.2969 13.4364 18.2969H11.6281C9.56292 18.2969 7.66536 19.3353 6.55212 21.0748Z" fill="white"/>
<path d="M24.9505 14.9803V9.97016L21.9218 9.24909C21.7852 8.84933 21.6227 8.4576 21.4358 8.07747L23.0679 5.42529L19.5251 1.88254L16.873 3.51469C16.4929 3.32778 16.1012 3.16527 15.7014 3.02866L14.9803 0H9.97021L9.24909 3.02866C8.84933 3.16527 8.4576 3.32778 8.07753 3.51469L5.42534 1.88254L1.88254 5.42529L3.51464 8.07747C3.32773 8.4576 3.16522 8.84933 3.0286 9.24909L0 9.9701V14.9803L3.02866 15.7014C3.16527 16.1012 3.32778 16.4929 3.51469 16.873L1.87489 19.5377L4.33135 21.8906C4.53112 21.2918 4.80496 20.7167 5.14956 20.1783C6.1035 18.6877 7.50915 17.6015 9.12744 17.0481C7.84543 16.0384 7.02084 14.4726 7.02084 12.7178C7.02084 9.67968 9.49261 7.20792 12.5307 7.20792C15.5689 7.20792 18.0406 9.67968 18.0406 12.7178C18.0406 14.4726 17.2161 16.0384 15.934 17.0481C17.5523 17.6015 18.9579 18.6877 19.9119 20.1783C20.2719 20.7408 20.554 21.3434 20.7558 21.9711C20.7557 21.971 20.7556 21.9708 20.7556 21.9708L23.0559 19.5056L21.4359 16.8731C21.6228 16.493 21.7853 16.1013 21.9219 15.7015L24.9505 14.9803Z" fill="white"/>
</g>
</svg>
