<svg width="25" height="28" viewBox="0 0 25 28" fill="none" xmlns="http://www.w3.org/2000/svg">
<g opacity="0.15">
<path d="M24.5747 17.4801V15.7129H16.4279C16.4279 17.9996 14.5741 19.8534 12.2874 19.8534C10.0006 19.8534 8.14683 17.9997 8.14683 15.7129H0V17.4801L3.53764 17.8547C3.75831 18.7593 4.11558 19.6103 4.58639 20.3847L2.34922 23.1517L4.84851 25.651L7.61554 23.4139C8.38992 23.8847 9.24097 24.2419 10.1455 24.4626L10.5201 28.0002H14.0546L14.4292 24.4626C15.3337 24.2419 16.1848 23.8847 16.9592 23.4139L19.7262 25.651L22.2255 23.1517L19.9883 20.3847C20.4591 19.6103 20.8164 18.7593 21.0371 17.8547L24.5747 17.4801Z" fill="white"/>
<path d="M12.2889 0C10.539 0 9.11523 1.42374 9.11523 3.17369C9.11523 4.92365 10.539 6.34733 12.2889 6.34733C14.0389 6.34733 15.4626 4.92365 15.4626 3.17369C15.4626 1.42374 14.0389 0 12.2889 0Z" fill="white"/>
<path d="M15.6635 7.22656H8.90554C7.34973 7.22662 6.08398 8.49231 6.08398 10.0481V14.0739H18.4851V10.0481C18.4851 8.49231 17.2193 7.22656 15.6635 7.22656Z" fill="white"/>
<path d="M5.55399 1.4668C3.98631 1.4668 2.71094 2.74222 2.71094 4.30985C2.71094 5.86489 3.96608 7.13163 5.51642 7.15192C6.15845 6.40094 7.04434 5.86495 8.05081 5.66835C8.27142 5.26448 8.39704 4.8016 8.39704 4.30985C8.39704 2.74217 7.12167 1.4668 5.55399 1.4668Z" fill="white"/>
<path d="M2.52761 7.9375C1.1339 7.9375 0 9.07134 0 10.4651V14.0715H4.44617V10.0457C4.44617 9.28358 4.63856 8.5657 4.9768 7.9375H2.52761Z" fill="white"/>
<path d="M19.0227 1.4668C17.4551 1.4668 16.1797 2.74222 16.1797 4.30985C16.1797 4.80155 16.3052 5.26448 16.5259 5.66835C17.5324 5.86495 18.4183 6.40094 19.0603 7.15192C20.6107 7.13168 21.8658 5.86489 21.8658 4.30985C21.8658 2.74217 20.5904 1.4668 19.0227 1.4668Z" fill="white"/>
<path d="M22.0449 7.9375H19.5957C19.9339 8.5657 20.1263 9.28358 20.1263 10.0457V14.0714H24.5725V10.4651C24.5725 9.07134 23.4386 7.9375 22.0449 7.9375Z" fill="white"/>
</g>
</svg>
