<svg width="29" height="21" viewBox="0 0 29 21" fill="none" xmlns="http://www.w3.org/2000/svg">
<path d="M22.9306 11.8996H6.13048C5.29047 11.8996 4.73047 11.3396 4.73047 10.4996C4.73047 9.65961 5.29047 9.09961 6.13048 9.09961H22.9306C23.7706 9.09961 24.3306 9.65961 24.3306 10.4996C24.3306 11.3396 23.7706 11.8996 22.9306 11.8996Z" fill="white"/>
<path d="M18.7317 20.3H10.3316C9.49164 20.3 8.93164 19.74 8.93164 18.9C8.93164 18.06 9.49164 17.5 10.3316 17.5H18.7317C19.5717 17.5 20.1317 18.06 20.1317 18.9C20.1317 19.74 19.5717 20.3 18.7317 20.3Z" fill="white"/>
<path d="M27.1333 3.49923H1.93321C1.09321 3.49923 0.533203 2.93923 0.533203 2.09923C0.533203 1.25922 1.09321 0.699219 1.93321 0.699219H27.1333C27.9734 0.699219 28.5334 1.25922 28.5334 2.09923C28.5334 2.93923 27.9734 3.49923 27.1333 3.49923Z" fill="white"/>
</svg>
