<svg width="32" height="30" viewBox="0 0 32 30" fill="none" xmlns="http://www.w3.org/2000/svg">
<g opacity="0.15">
<path d="M0.882457 19.4121H4.41164C4.89891 19.4121 5.29409 19.807 5.29409 20.2942V29.1178C5.29409 29.6051 4.89891 30.0003 4.41164 30.0003H0.882457C0.395183 30.0003 0 29.6051 0 29.1178V20.2942C0 19.807 0.395183 19.4121 0.882457 19.4121Z" fill="white"/>
<path d="M9.70635 12.3535H13.2359C13.7231 12.3535 14.1183 12.7487 14.1183 13.236V29.1183C14.1183 29.6055 13.7231 30.0007 13.2359 30.0007H9.70635C9.21908 30.0007 8.82422 29.6055 8.82422 29.1183V13.236C8.82422 12.7487 9.21908 12.3535 9.70635 12.3535Z" fill="white"/>
<path d="M18.5289 15.8828H22.0584C22.5457 15.8828 22.9406 16.278 22.9406 16.7653V29.118C22.9406 29.6053 22.5457 30.0005 22.0584 30.0005H18.5289C18.0417 30.0005 17.6465 29.6053 17.6465 29.118V16.7653C17.6465 16.278 18.0417 15.8828 18.5289 15.8828Z" fill="white"/>
<path d="M27.3532 10.5879H30.8823C31.3696 10.5879 31.7648 10.9831 31.7648 11.4703V29.1172C31.7648 29.6045 31.3696 29.9997 30.8823 29.9997H27.3532C26.8659 29.9997 26.4707 29.6045 26.4707 29.1172V11.4703C26.4707 10.9831 26.8659 10.5879 27.3532 10.5879Z" fill="white"/>
<path d="M29.1175 0C27.6563 0.00161563 26.4721 1.18587 26.4705 2.64705C26.474 2.93528 26.5251 3.22092 26.6217 3.49234L22.2046 6.11806C21.6249 5.50316 20.7844 5.20523 19.9469 5.31736C19.109 5.42948 18.3768 5.93808 17.979 6.68386L14.0831 4.75415C14.1022 4.64073 14.1135 4.52635 14.1177 4.41164C14.1196 3.34015 13.4756 2.37336 12.4862 1.96202C11.4968 1.551 10.3572 1.77687 9.59942 2.53428C8.84137 3.29168 8.61486 4.43103 9.02555 5.42076L3.97186 9.19228C3.57119 8.95349 3.11364 8.82618 2.64705 8.8236C1.18523 8.8236 0 10.0085 0 11.4706C0 12.9325 1.18523 14.1177 2.64705 14.1177C4.10887 14.1177 5.29409 12.9325 5.29409 11.4706C5.29183 11.152 5.23173 10.837 5.1167 10.54L10.2208 6.73071C11.2193 7.28746 12.4646 7.12428 13.2856 6.32874L17.716 8.52309C18.0114 9.83854 19.2493 10.7213 20.5893 10.572C21.9293 10.4227 22.9426 9.28955 22.941 7.94114C22.941 7.87393 22.9261 7.8106 22.9213 7.74468L27.7255 4.88857C28.142 5.15192 28.6244 5.29248 29.1175 5.29409C30.5793 5.29409 31.7646 4.10887 31.7646 2.64705C31.7646 1.18523 30.5793 0 29.1175 0Z" fill="white"/>
</g>
</svg>
