<svg width="10" height="13" viewBox="0 0 10 13" fill="none" xmlns="http://www.w3.org/2000/svg">
<path d="M5.57085 12.7545L5.57161 12.7537L9.76516 8.37996C10.0793 8.05229 10.0781 7.52231 9.76242 7.19616C9.44674 6.87004 8.93613 6.8713 8.62194 7.19896L5.80645 10.1355L5.80645 0.837053C5.80645 0.374749 5.4454 -1.99088e-07 5 -2.18557e-07C4.5546 -2.38026e-07 4.19355 0.374749 4.19355 0.837053L4.19355 10.1355L1.37806 7.199C1.06387 6.87134 0.553262 6.87008 0.237577 7.1962C-0.0781892 7.52235 -0.0792774 8.05238 0.234835 8.38L4.42839 12.7538L4.42915 12.7545C4.74439 13.0824 5.25665 13.0813 5.57085 12.7545Z" fill="#FF5359"/>
</svg>
