<svg width="18" height="18" viewBox="0 0 18 18" fill="none" xmlns="http://www.w3.org/2000/svg">
<g opacity="0.5">
<path d="M1.07324e-07 9C4.81436e-08 13.9628 4.03724 18 9 18C13.9628 18 18 13.9628 18 9C18 4.03724 13.9628 -1.74084e-06 9 -1.80002e-06C4.03724 -1.85921e-06 1.66504e-07 4.03724 1.07324e-07 9ZM9.53026 6.21974L13.2802 9.96975C13.4265 10.116 13.5 10.308 13.5 10.5C13.5 10.692 13.4265 10.884 13.2802 11.0303C12.987 11.3235 12.513 11.3235 12.2198 11.0303L9 7.81049L5.78025 11.0302C5.48701 11.3235 5.013 11.3235 4.71976 11.0302C4.42652 10.737 4.42652 10.263 4.71976 9.96975L8.46977 6.21974C8.76301 5.9265 9.23699 5.9265 9.53026 6.21974Z" fill="white"/>
</g>
</svg>
