<svg width="42" height="32" viewBox="0 0 42 32" fill="none" xmlns="http://www.w3.org/2000/svg">
<path d="M8.67359 26.4109C9.18946 26.9739 9.90784 27.3089 10.6707 27.3422C11.4336 27.3755 12.1785 27.1044 12.7415 26.5886C13.3045 26.0727 13.6395 25.3543 13.6728 24.5915C13.7061 23.8286 13.4351 23.0837 12.9192 22.5207L6.78466 15.8328L12.9178 9.14062C13.4336 8.57762 13.7047 7.83275 13.6714 7.06988C13.638 6.30701 13.303 5.58863 12.74 5.07276C12.177 4.5569 11.4321 4.28582 10.6693 4.31915C9.9064 4.35249 9.18802 4.6875 8.67216 5.2505L0.756635 13.8856C0.269974 14.4165 0 15.1105 0 15.8307C0 16.5509 0.269974 17.2449 0.756635 17.7757L8.67359 26.4109Z" fill="#EC1F26"/>
<path d="M33.0684 5.25441C32.5525 4.69141 31.8341 4.35639 31.0712 4.32306C30.3084 4.28973 29.5635 4.56081 29.0005 5.07667C28.4375 5.59253 28.1025 6.31092 28.0692 7.07379C28.0358 7.83666 28.3069 8.58153 28.8228 9.14453L34.9573 15.8324L28.8242 22.5246C28.3083 23.0876 28.0373 23.8325 28.0706 24.5954C28.1039 25.3582 28.4389 26.0766 29.0019 26.5925C29.5649 27.1084 30.3098 27.3794 31.0727 27.3461C31.8356 27.3128 32.5539 26.9778 33.0698 26.4148L40.9853 17.7796C41.472 17.2488 41.742 16.5548 41.742 15.8346C41.742 15.1144 41.472 14.4204 40.9853 13.8895L33.0684 5.25441Z" fill="#EC1F26"/>
<path d="M20.1903 2.40727L15.8728 28.3126C15.748 29.0653 15.927 29.8367 16.3707 30.4574C16.8143 31.0781 17.4863 31.4972 18.2388 31.6227C18.3965 31.6492 18.556 31.6627 18.7159 31.663C19.3969 31.6622 20.0555 31.42 20.5747 30.9794C21.0939 30.5388 21.4401 29.9285 21.5518 29.2567L25.8694 3.35137C25.9948 2.59829 25.8159 1.82624 25.372 1.20506C24.9282 0.58389 24.2557 0.164476 23.5026 0.0390888C23.1297 -0.0229966 22.7483 -0.0110279 22.38 0.0743116C22.0117 0.159651 21.6639 0.31669 21.3563 0.536463C20.7351 0.980313 20.3157 1.65274 20.1903 2.40583V2.40727Z" fill="#EC1F26"/>
</svg>
