<svg width="34" height="34" viewBox="0 0 34 34" fill="none" xmlns="http://www.w3.org/2000/svg">
<g opacity="0.15">
<path d="M17.919 3.34663L2.805 1.0327C2.45595 0.971096 2.09774 0.987397 1.75563 1.08046C1.41351 1.17351 1.09584 1.34107 0.825 1.57129C0.565544 1.80452 0.357928 2.09035 0.215754 2.41005C0.0735803 2.72974 5.66492e-05 3.0761 0 3.42642L0 32.6164C0.00173537 32.9827 0.146926 33.3335 0.404001 33.5924C0.661076 33.8514 1.00925 33.9977 1.3728 33.9995H5.841V26.7252C5.841 26.4068 5.90336 26.0916 6.0245 25.7975C6.14565 25.5034 6.32319 25.2363 6.54698 25.0115C6.77076 24.7866 7.03638 24.6085 7.32861 24.4872C7.62085 24.366 7.93396 24.304 8.25 24.3049H11.6886C12.0043 24.304 12.3171 24.366 12.609 24.4874C12.9009 24.6087 13.166 24.7869 13.3893 25.0119C13.6126 25.2368 13.7895 25.5039 13.9099 25.798C14.0303 26.092 14.0919 26.4071 14.091 26.7252V33.9995H19.9386V5.74034C19.9396 5.16454 19.7368 4.60723 19.3667 4.1685C18.9965 3.72978 18.4832 3.43837 17.919 3.34663ZM7.5636 21.1864H5.4978C5.23812 21.1655 4.99579 21.0468 4.81907 20.854C4.64236 20.6611 4.54423 20.4083 4.54423 20.1458C4.54423 19.8834 4.64236 19.6306 4.81907 19.4377C4.99579 19.2449 5.23812 19.1262 5.4978 19.1052H7.5636C7.82328 19.1262 8.06561 19.2449 8.24233 19.4377C8.41904 19.6306 8.51717 19.8834 8.51717 20.1458C8.51717 20.4083 8.41904 20.6611 8.24233 20.854C8.06561 21.0468 7.82328 21.1655 7.5636 21.1864ZM7.5636 17.0307H5.4978C5.23812 17.0098 4.99579 16.8911 4.81907 16.6982C4.64236 16.5054 4.54423 16.2525 4.54423 15.9901C4.54423 15.7276 4.64236 15.4748 4.81907 15.282C4.99579 15.0891 5.23812 14.9704 5.4978 14.9495H7.5636C7.82328 14.9704 8.06561 15.0891 8.24233 15.282C8.41904 15.4748 8.51717 15.7276 8.51717 15.9901C8.51717 16.2525 8.41904 16.5054 8.24233 16.6982C8.06561 16.8911 7.82328 17.0098 7.5636 17.0307ZM7.5636 12.8749H5.4978C5.23812 12.854 4.99579 12.7353 4.81907 12.5425C4.64236 12.3496 4.54423 12.0968 4.54423 11.8343C4.54423 11.5719 4.64236 11.3191 4.81907 11.1262C4.99579 10.9334 5.23812 10.8147 5.4978 10.7937H7.5636C7.82328 10.8147 8.06561 10.9334 8.24233 11.1262C8.41904 11.3191 8.51717 11.5719 8.51717 11.8343C8.51717 12.0968 8.41904 12.3496 8.24233 12.5425C8.06561 12.7353 7.82328 12.854 7.5636 12.8749ZM7.5636 8.71918H5.4978C5.23812 8.69825 4.99579 8.57955 4.81907 8.3867C4.64236 8.19386 4.54423 7.94104 4.54423 7.67858C4.54423 7.41613 4.64236 7.1633 4.81907 6.97046C4.99579 6.77762 5.23812 6.65891 5.4978 6.63798H7.5636C7.82328 6.65891 8.06561 6.77762 8.24233 6.97046C8.41904 7.1633 8.51717 7.41613 8.51717 7.67858C8.51717 7.94104 8.41904 8.19386 8.24233 8.3867C8.06561 8.57955 7.82328 8.69825 7.5636 8.71918ZM14.4408 21.1864H12.375C12.1153 21.1655 11.873 21.0468 11.6963 20.854C11.5196 20.6611 11.4214 20.4083 11.4214 20.1458C11.4214 19.8834 11.5196 19.6306 11.6963 19.4377C11.873 19.2449 12.1153 19.1262 12.375 19.1052H14.4408C14.7005 19.1262 14.9428 19.2449 15.1195 19.4377C15.2962 19.6306 15.3944 19.8834 15.3944 20.1458C15.3944 20.4083 15.2962 20.6611 15.1195 20.854C14.9428 21.0468 14.7005 21.1655 14.4408 21.1864ZM14.4408 17.0307H12.375C12.1153 17.0098 11.873 16.8911 11.6963 16.6982C11.5196 16.5054 11.4214 16.2525 11.4214 15.9901C11.4214 15.7276 11.5196 15.4748 11.6963 15.282C11.873 15.0891 12.1153 14.9704 12.375 14.9495H14.4408C14.7005 14.9704 14.9428 15.0891 15.1195 15.282C15.2962 15.4748 15.3944 15.7276 15.3944 15.9901C15.3944 16.2525 15.2962 16.5054 15.1195 16.6982C14.9428 16.8911 14.7005 17.0098 14.4408 17.0307ZM14.4408 12.8749H12.375C12.1153 12.854 11.873 12.7353 11.6963 12.5425C11.5196 12.3496 11.4214 12.0968 11.4214 11.8343C11.4214 11.5719 11.5196 11.3191 11.6963 11.1262C11.873 10.9334 12.1153 10.8147 12.375 10.7937H14.4408C14.7005 10.8147 14.9428 10.9334 15.1195 11.1262C15.2962 11.3191 15.3944 11.5719 15.3944 11.8343C15.3944 12.0968 15.2962 12.3496 15.1195 12.5425C14.9428 12.7353 14.7005 12.854 14.4408 12.8749ZM14.4408 8.71918H12.375C12.1153 8.69825 11.873 8.57955 11.6963 8.3867C11.5196 8.19386 11.4214 7.94104 11.4214 7.67858C11.4214 7.41613 11.5196 7.1633 11.6963 6.97046C11.873 6.77762 12.1153 6.65891 12.375 6.63798H14.4408C14.7005 6.65891 14.9428 6.77762 15.1195 6.97046C15.2962 7.1633 15.3944 7.41613 15.3944 7.67858C15.3944 7.94104 15.2962 8.19386 15.1195 8.3867C14.9428 8.57955 14.7005 8.69825 14.4408 8.71918Z" fill="white"/>
<path d="M31.1069 15.774L21.3125 13.7061V33.9994H30.5921C31.2305 33.9977 31.8422 33.7414 32.2936 33.2866C32.745 32.8319 32.9994 32.2156 33.0011 31.5725V18.1743C33.0116 17.6148 32.8282 17.069 32.4825 16.6309C32.1368 16.1928 31.6504 15.8898 31.1069 15.774ZM27.8465 29.8437H25.7807C25.5076 29.8437 25.2457 29.7344 25.0527 29.5399C24.8596 29.3453 24.7511 29.0815 24.7511 28.8064C24.7511 28.5313 24.8596 28.2675 25.0527 28.0729C25.2457 27.8784 25.5076 27.7691 25.7807 27.7691H27.8465C27.9817 27.7691 28.1156 27.796 28.2405 27.8481C28.3654 27.9002 28.4789 27.9766 28.5745 28.0729C28.6701 28.1693 28.746 28.2836 28.7977 28.4094C28.8495 28.5353 28.8761 28.6702 28.8761 28.8064C28.8761 28.9426 28.8495 29.0775 28.7977 29.2033C28.746 29.3292 28.6701 29.4435 28.5745 29.5399C28.4789 29.6362 28.3654 29.7126 28.2405 29.7647C28.1156 29.8168 27.9817 29.8437 27.8465 29.8437ZM27.8465 25.6879H25.7807C25.5076 25.6879 25.2457 25.5786 25.0527 25.3841C24.8596 25.1896 24.7511 24.9257 24.7511 24.6506C24.7511 24.3755 24.8596 24.1117 25.0527 23.9172C25.2457 23.7227 25.5076 23.6134 25.7807 23.6134H27.8465C27.9817 23.6134 28.1156 23.6402 28.2405 23.6923C28.3654 23.7445 28.4789 23.8209 28.5745 23.9172C28.6701 24.0135 28.746 24.1278 28.7977 24.2537C28.8495 24.3795 28.8761 24.5144 28.8761 24.6506C28.8761 24.7869 28.8495 24.9217 28.7977 25.0476C28.746 25.1734 28.6701 25.2878 28.5745 25.3841C28.4789 25.4804 28.3654 25.5568 28.2405 25.609C28.1156 25.6611 27.9817 25.6879 27.8465 25.6879ZM27.8465 21.5322H25.7807C25.5076 21.5322 25.2457 21.4229 25.0527 21.2284C24.8596 21.0338 24.7511 20.77 24.7511 20.4949C24.7511 20.2198 24.8596 19.956 25.0527 19.7614C25.2457 19.5669 25.5076 19.4576 25.7807 19.4576H27.8465C28.1196 19.4576 28.3814 19.5669 28.5745 19.7614C28.7676 19.956 28.8761 20.2198 28.8761 20.4949C28.8761 20.77 28.7676 21.0338 28.5745 21.2284C28.3814 21.4229 28.1196 21.5322 27.8465 21.5322Z" fill="white"/>
</g>
</svg>
