<svg width="9" height="6" viewBox="0 0 9 6" fill="none" xmlns="http://www.w3.org/2000/svg">
<path d="M4.63325 4.91279L8.45838 1.08759C8.54692 0.999121 8.5957 0.881018 8.5957 0.755089C8.5957 0.629159 8.54692 0.511056 8.45838 0.422584L8.17675 0.140885C7.99324 -0.0424191 7.69498 -0.0424191 7.51174 0.140885L4.29963 3.353L1.08395 0.13732C0.995408 0.0488481 0.877375 -3.37379e-07 0.751515 -3.4288e-07C0.625516 -3.48388e-07 0.507483 0.0488481 0.418871 0.13732L0.137311 0.41902C0.048769 0.507562 -9.56409e-06 0.625595 -9.56959e-06 0.751524C-9.5751e-06 0.877454 0.048769 0.995557 0.137311 1.08403L3.96594 4.91279C4.05476 5.00148 4.17335 5.05018 4.29942 5.04991C4.42598 5.05018 4.5445 5.00148 4.63325 4.91279Z" fill="white"/>
</svg>
