<svg width="40" height="36" viewBox="0 0 40 36" fill="none" xmlns="http://www.w3.org/2000/svg">
<g opacity="0.15">
<path d="M39.5912 18.646C39.3579 18.4433 39.0541 18.3405 38.7456 18.36C38.4372 18.3795 38.1487 18.5196 37.9427 18.75V17.9498C37.9427 15.5919 37.4782 13.2571 36.5756 11.0788C35.673 8.90056 34.3502 6.92143 32.6825 5.25454C31.0149 3.58764 29.0352 2.26564 26.8565 1.36405C24.6778 0.46246 22.3428 -0.00104943 19.9849 1.78406e-06C17.1326 -0.00106091 14.3211 0.677018 11.7828 1.97815C9.24459 3.27928 7.05262 5.16606 5.38825 7.48241C5.28326 7.60631 5.20507 7.7506 5.15859 7.90621C5.11211 8.06182 5.09835 8.22536 5.11818 8.38654C5.13801 8.54773 5.191 8.70306 5.27381 8.84276C5.35662 8.98246 5.46745 9.1035 5.59934 9.19826C5.73123 9.29302 5.88131 9.35944 6.04013 9.39335C6.19895 9.42726 6.36307 9.42792 6.52216 9.39528C6.68124 9.36265 6.83185 9.29743 6.96449 9.20373C7.09713 9.11003 7.20894 8.98988 7.29286 8.85085C8.73226 6.87087 10.6115 5.25191 12.7826 4.12133C15.1598 2.89059 17.8135 2.29171 20.4888 2.38221C23.1642 2.47271 25.7713 3.24955 28.0599 4.63812C30.3484 6.02669 32.2416 7.98034 33.5574 10.3115C34.8733 12.6426 35.5677 15.2729 35.574 17.9498V18.75C35.3666 18.5183 35.0759 18.3782 34.7655 18.3602C34.4551 18.3422 34.1502 18.4478 33.9174 18.654C33.8015 18.7548 33.7067 18.8777 33.6386 19.0155C33.5705 19.1532 33.5305 19.3032 33.5208 19.4565C33.5111 19.6099 33.532 19.7636 33.5822 19.9089C33.6325 20.0541 33.711 20.1879 33.8134 20.3025L35.8861 22.6473C35.9957 22.7729 36.131 22.8737 36.2829 22.9427C36.4347 23.0117 36.5996 23.0474 36.7663 23.0474C36.9321 23.0484 37.0961 23.0131 37.2468 22.9439C37.3975 22.8748 37.5312 22.7736 37.6386 22.6473L39.7113 20.3025C39.8129 20.1862 39.8905 20.0509 39.9395 19.9045C39.9885 19.758 40.008 19.6033 39.9969 19.4492C39.9857 19.2952 39.9441 19.1449 39.8745 19.007C39.8049 18.8691 39.7086 18.7464 39.5912 18.646Z" fill="white"/>
<path d="M34.2861 26.753C34.0355 26.584 33.7294 26.518 33.4314 26.5687C33.1334 26.6194 32.8663 26.7828 32.6856 27.0251C31.2476 29.0156 29.3651 30.6432 27.1878 31.7786C24.8098 33.015 22.1536 33.6184 19.4748 33.5308C16.796 33.4431 14.1849 32.6673 11.8928 31.2781C9.60075 29.8888 7.7049 27.9329 6.38778 25.5987C5.07067 23.2644 4.37663 20.6304 4.3725 17.9502V17.1499C4.58444 17.3596 4.8681 17.481 5.16612 17.4895C5.46414 17.4981 5.75429 17.3932 5.9779 17.196C6.20152 16.9988 6.34192 16.724 6.37073 16.4273C6.39953 16.1306 6.31458 15.8339 6.13306 15.5974L4.0764 13.2527C3.96673 13.127 3.83143 13.0263 3.6796 12.9573C3.52776 12.8882 3.36291 12.8525 3.19612 12.8525C3.02933 12.8525 2.86448 12.8882 2.71264 12.9573C2.5608 13.0263 2.4255 13.127 2.31584 13.2527L0.243169 15.5974C0.0616483 15.8339 -0.0232977 16.1306 0.00550541 16.4273C0.0343085 16.724 0.174712 16.9988 0.398329 17.196C0.621947 17.3932 0.912095 17.4981 1.21011 17.4895C1.50813 17.481 1.79179 17.3596 2.00374 17.1499V17.9502C1.99401 21.7561 3.19481 25.4665 5.43256 28.5451C7.67032 31.6237 10.8291 33.9109 14.4522 35.0762C18.0754 36.2414 21.9753 36.2243 25.5881 35.0274C29.2009 33.8304 32.3395 31.5156 34.5502 28.4175C34.6452 28.2921 34.7139 28.1487 34.7522 27.996C34.7904 27.8433 34.7974 27.6845 34.7728 27.529C34.7481 27.3736 34.6923 27.2247 34.6087 27.0913C34.525 26.958 34.4153 26.8429 34.2861 26.753Z" fill="white"/>
<path d="M8.40478 20.9512C8.36279 21.0992 8.35107 21.2541 8.37032 21.4067C8.38957 21.5594 8.4394 21.7065 8.51682 21.8395L10.8616 25.9048C11.0201 26.1727 11.2748 26.3701 11.5738 26.457C11.8768 26.5345 12.1981 26.4914 12.4701 26.3369L14.1906 25.3366C14.8798 25.8788 15.6423 26.3206 16.4554 26.649V28.6337C16.4543 28.7878 16.4838 28.9406 16.542 29.0832C16.6002 29.2259 16.6861 29.3557 16.7947 29.465C16.9033 29.5743 17.0325 29.6611 17.1748 29.7203C17.317 29.7796 17.4696 29.81 17.6237 29.81H22.3213C22.6319 29.8079 22.929 29.6831 23.1479 29.4627C23.3668 29.2423 23.4896 28.9443 23.4896 28.6337V26.649C24.3027 26.3206 25.0652 25.8788 25.7544 25.3366L27.4749 26.3369C27.7441 26.4909 28.0628 26.534 28.3632 26.457C28.5124 26.4163 28.6521 26.3465 28.7743 26.2518C28.8965 26.157 28.9988 26.0391 29.0754 25.9048L31.4282 21.8395C31.5799 21.5692 31.6196 21.2502 31.5388 20.951C31.458 20.6518 31.2632 20.3961 30.996 20.239L29.2675 19.2466C29.3247 18.8168 29.3541 18.3838 29.3555 17.9502C29.3544 17.5113 29.325 17.0729 29.2675 16.6378L30.996 15.6375C31.1303 15.5619 31.2478 15.4597 31.3413 15.3373C31.4349 15.2148 31.5025 15.0747 31.5402 14.9253C31.6197 14.6258 31.5795 14.3073 31.4282 14.037L29.0754 9.94765C28.9984 9.81448 28.8959 9.69782 28.7737 9.60437C28.6514 9.51093 28.512 9.44254 28.3633 9.40313C28.2146 9.36373 28.0595 9.35408 27.9071 9.37473C27.7546 9.39539 27.6078 9.44595 27.4749 9.52352L25.7384 10.5238C25.0543 9.98682 24.2971 9.55027 23.4896 9.22742V7.24278C23.4896 6.93217 23.3668 6.63416 23.1479 6.41378C22.929 6.19339 22.6319 6.06852 22.3213 6.06641H17.6237C17.4696 6.0664 17.317 6.09689 17.1748 6.1561C17.0325 6.21532 16.9033 6.3021 16.7947 6.41144C16.6861 6.52078 16.6002 6.65053 16.542 6.79321C16.4838 6.93589 16.4543 7.08868 16.4554 7.24278V9.25143C15.647 9.57247 14.8895 10.0092 14.2066 10.5478L12.4701 9.54753C12.2013 9.39302 11.8823 9.35091 11.5826 9.43033C11.2829 9.50976 11.0266 9.7043 10.8696 9.97166L8.52482 14.037C8.37351 14.3073 8.33333 14.6258 8.41278 14.9253C8.45046 15.0747 8.51813 15.2148 8.61168 15.3373C8.70523 15.4597 8.8227 15.5619 8.95696 15.6375L10.6855 16.6378C10.6254 17.0728 10.5933 17.5111 10.5895 17.9502C10.5868 18.3839 10.6163 18.8173 10.6775 19.2466L8.94896 20.239C8.68127 20.3959 8.48587 20.6517 8.40478 20.9512ZM19.9845 14.4291C20.6806 14.4307 21.3606 14.6385 21.9386 15.0264C22.5166 15.4143 22.9666 15.9647 23.2319 16.6083C23.4972 17.2518 23.5658 17.9596 23.429 18.6421C23.2922 19.3246 22.9562 19.9512 22.4635 20.4429C21.9707 20.9345 21.3433 21.2691 20.6605 21.4043C19.9777 21.5395 19.2701 21.4693 18.6272 21.2026C17.9842 20.9358 17.4348 20.4845 17.0482 19.9056C16.6617 19.3268 16.4554 18.6463 16.4554 17.9502C16.4554 17.4872 16.5467 17.0286 16.7242 16.6009C16.9016 16.1732 17.1617 15.7846 17.4895 15.4576C17.8173 15.1305 18.2064 14.8713 18.6346 14.6948C19.0627 14.5183 19.5214 14.428 19.9845 14.4291Z" fill="white"/>
</g>
</svg>
