<svg width="43" height="34" viewBox="0 0 43 34" fill="none" xmlns="http://www.w3.org/2000/svg">
<path d="M11.3544 24.0752L9.86365 30.7185H1.27655C0.571614 30.7185 0 31.2901 0 31.995C0 32.7 0.571614 33.2716 1.27655 33.2716H10.8855C10.9811 33.2716 11.0739 33.26 11.1634 33.2403C11.164 33.2403 11.1647 33.2407 11.165 33.2403L18.8053 31.5261L11.3544 24.0752Z" fill="#EC1F26"/>
<path d="M40.5002 10.645C41.6038 9.54171 42.2115 8.07419 42.2115 6.5136C42.2115 4.95302 41.6038 3.48582 40.5005 2.3822C40.5002 2.3822 40.5002 2.3822 40.5002 2.3822C39.3966 1.27858 37.9294 0.670898 36.3688 0.670898C34.8082 0.670898 33.3407 1.27858 32.2374 2.3822L31.8828 2.73676L40.1456 10.9996L40.5002 10.645Z" fill="#EC1F26"/>
<path d="M12.7539 21.8653L30.0762 4.54297L38.339 12.8058L21.017 30.1281L12.7539 21.8653Z" fill="#EC1F26"/>
</svg>
