<svg width="57" height="48" viewBox="0 0 57 48" fill="none" xmlns="http://www.w3.org/2000/svg">
<g opacity="0.5">
<path d="M53.4918 6.03886H33.9212C33.8943 6.03886 33.8704 6.02453 33.8591 6.00152L31.8407 1.9073C31.271 0.748508 30.0684 0 28.7763 0H16.9452C15.0618 0 13.5296 1.53262 13.5296 3.41648V6.76522H10.1795C8.29654 6.76522 6.76435 8.29741 6.76435 10.1808V13.5296H3.41561C1.53218 13.5296 0 15.0618 0 16.9452V44.5844C0 46.4678 1.53218 48 3.41561 48H39.9627C41.8461 48 43.3783 46.4678 43.3783 44.5844V41.2352H46.7275C48.6109 41.2352 50.1431 39.703 50.1431 37.82V34.4713H53.4918C55.3752 34.4713 56.9074 32.9391 56.9074 31.0557V9.45533C56.9074 7.57148 55.3752 6.03886 53.4918 6.03886ZM39.9627 44.6526H3.41561C3.37827 44.6526 3.34744 44.6222 3.34744 44.5844V16.9452C3.34744 16.9074 3.37827 16.877 3.41561 16.877H15.2476C15.2589 16.877 15.2697 16.8809 15.2793 16.8861C15.2806 16.887 15.2823 16.8866 15.2836 16.8874C15.2875 16.89 15.2897 16.8948 15.2932 16.8979C15.2988 16.9035 15.3053 16.9083 15.3088 16.9152L17.3281 21.0107C17.9077 22.1856 19.0817 22.9159 20.3916 22.9159H39.9627C39.9718 22.9159 39.9809 22.9176 39.9891 22.9211C40.0135 22.9315 40.0304 22.9558 40.0304 22.984C40.0304 34.7882 40.0308 44.4767 40.0308 44.5844C40.0308 44.6222 40.0004 44.6526 39.9627 44.6526ZM46.7956 37.82C46.7956 37.8574 46.7652 37.8878 46.7279 37.8878H43.3783V22.984C43.3783 21.1002 41.8457 19.568 39.9622 19.568H20.3916C20.3664 19.568 20.3421 19.5528 20.3308 19.5298L18.3111 15.4343C17.7319 14.2607 16.5583 13.5296 15.248 13.5296H10.1118V10.1808C10.1118 10.1431 10.1422 10.1127 10.1795 10.1127H22.0119C22.038 10.1127 22.0614 10.127 22.0732 10.1513L24.0929 14.2468C24.673 15.4217 25.8465 16.1515 27.156 16.1515H46.7279C46.7652 16.1515 46.7956 16.1819 46.7956 16.2197V37.82ZM53.56 31.0557C53.56 31.0935 53.5296 31.1238 53.4918 31.1238H50.1431V16.2197C50.1431 14.3363 48.6113 12.8041 46.7279 12.8041H27.156C27.1304 12.8041 27.1065 12.7889 27.0948 12.7654L25.0754 8.67123C24.4967 7.4955 23.3227 6.76522 22.0119 6.76522H16.877V3.41648C16.877 3.37827 16.9074 3.34744 16.9448 3.34744H28.7759C28.8015 3.34744 28.8254 3.36177 28.8371 3.38565L30.8568 7.48247C31.4364 8.65646 32.6104 9.3863 33.9212 9.3863H53.4918C53.5291 9.3863 53.5595 9.41713 53.5595 9.45577V31.0557H53.56Z" fill="black"/>
<path d="M29.7421 37.373C28.8177 37.373 28.0684 38.1224 28.0684 39.0468V40.0145C28.0684 40.9389 28.8177 41.6883 29.7421 41.6883C30.6664 41.6883 31.4158 40.9389 31.4158 40.0145V39.0468C31.4158 38.1224 30.6664 37.373 29.7421 37.373Z" fill="black"/>
<path d="M34.6229 37.373C33.6986 37.373 32.9492 38.1224 32.9492 39.0468V40.0145C32.9492 40.9389 33.6986 41.6883 34.6229 41.6883C35.5473 41.6883 36.2967 40.9389 36.2967 40.0145V39.0468C36.2967 38.1224 35.5473 37.373 34.6229 37.373Z" fill="black"/>
</g>
</svg>
