<svg width="53" height="53" viewBox="0 0 53 53" fill="none" xmlns="http://www.w3.org/2000/svg">
<g opacity="0.5">
<path fillRule="evenodd" clipRule="evenodd" d="M15.4629 0H53.0007V46.8157H45.1591V43.5031H49.6881V3.31258H18.7755V7.84156H15.4629V0Z" fill="black"/>
<path fillRule="evenodd" clipRule="evenodd" d="M9.27792 6.18359H46.8157V46.704C46.8157 50.1808 43.9972 52.9993 40.5204 52.9993H6.29525C2.81846 52.9993 0 50.1808 0 46.704V43.5014H9.27792V6.18359ZM12.5905 43.5014H37.5378V46.704C37.5378 48.3513 38.8731 49.6867 40.5204 49.6867C42.1677 49.6867 43.5031 48.3513 43.5031 46.704V9.49617H12.5905V43.5014ZM34.9752 49.6867C34.513 48.8292 34.2439 47.8522 34.2261 46.814H3.31457C3.37242 48.4104 4.68476 49.6867 6.29525 49.6867H34.9752Z" fill="black"/>
<path fillRule="evenodd" clipRule="evenodd" d="M18.7766 33.9964C18.7885 34.7319 18.9916 35.1253 19.2074 35.3411C19.4232 35.5569 19.8166 35.76 20.5522 35.7719C21.2987 35.784 22.2818 35.5911 23.4567 35.1307C25.8012 34.2118 28.6075 32.3459 31.2497 29.7038C33.8918 27.0616 35.7577 24.2553 36.6766 21.9107C37.137 20.7359 37.3299 19.7528 37.3178 19.0063C37.3059 18.2707 37.1028 17.8773 36.887 17.6615C36.6712 17.4457 36.2778 17.2426 35.5423 17.2307C34.7957 17.2186 33.8126 17.4115 32.6378 17.872C30.2932 18.7908 27.487 20.6567 24.8448 23.2989C22.2026 25.941 20.3367 28.7473 19.4179 31.0919C18.9574 32.2667 18.7645 33.2498 18.7766 33.9964ZM16.3337 29.8832C17.4552 27.0215 19.6157 23.8433 22.5024 20.9565C25.3892 18.0698 28.5675 15.9093 31.4291 14.7878C32.8574 14.228 34.2827 13.8973 35.5959 13.9186C36.92 13.94 38.2374 14.3272 39.2293 15.3192C40.2213 16.3111 40.6085 17.6285 40.6299 18.9527C40.6512 20.2658 40.3205 21.6912 39.7607 23.1194C38.6392 25.9811 36.4787 29.1594 33.592 32.0461C30.7053 34.9328 27.527 37.0933 24.6653 38.2148C23.2371 38.7746 21.8117 39.1053 20.4986 39.084C19.1744 39.0626 17.857 38.6754 16.8651 37.6834C15.8731 36.6915 15.4859 35.3741 15.4645 34.05C15.4432 32.7368 15.774 31.3115 16.3337 29.8832Z" fill="black"/>
<path fillRule="evenodd" clipRule="evenodd" d="M19.4179 21.9081C20.3367 24.2527 22.2026 27.059 24.8448 29.7011C27.487 32.3433 30.2932 34.2092 32.6378 35.128C33.8126 35.5885 34.7957 35.7814 35.5423 35.7693C36.2778 35.7574 36.6712 35.5543 36.887 35.3385C37.1028 35.1227 37.3059 34.7293 37.3178 33.9937C37.3299 33.2472 37.137 32.2641 36.6766 31.0893C35.7577 28.7447 33.8918 25.9384 31.2497 23.2962C28.6075 20.6541 25.8012 18.7882 23.4567 17.8693C22.2818 17.4089 21.2987 17.216 20.5522 17.2281C19.8166 17.24 19.4232 17.4431 19.2074 17.6589C18.9916 17.8747 18.7885 18.2681 18.7766 19.0036C18.7645 19.7502 18.9574 20.7333 19.4179 21.9081ZM15.4645 18.95C15.4859 17.6259 15.8731 16.3085 16.8651 15.3166C17.857 14.3246 19.1744 13.9374 20.4986 13.916C21.8117 13.8947 23.2371 14.2254 24.6653 14.7852C27.527 15.9067 30.7053 18.0672 33.592 20.9539C36.4787 23.8406 38.6392 27.0189 39.7607 29.8806C40.3205 31.3088 40.6512 32.7342 40.6299 34.0473C40.6085 35.3715 40.2213 36.6889 39.2293 37.6808C38.2374 38.6728 36.92 39.06 35.5959 39.0814C34.2827 39.1027 32.8574 38.772 31.4291 38.2122C28.5675 37.0907 25.3892 34.9302 22.5024 32.0435C19.6157 29.1567 17.4552 25.9785 16.3337 23.1168C15.774 21.6885 15.4432 20.2632 15.4645 18.95Z" fill="black"/>
<path fillRule="evenodd" clipRule="evenodd" d="M29.5926 28.1563H26.5V24.8438H29.5926V28.1563Z" fill="black"/>
</g>
</svg>
