<svg width="51" height="51" viewBox="0 0 51 51" fill="none" xmlns="http://www.w3.org/2000/svg">
<g opacity="0.5">
<path d="M41.1535 3.91619H39.2512V1.9913C39.2512 0.891505 38.3597 0 37.2599 0C36.1601 0 35.2686 0.891505 35.2686 1.9913V3.91619H15.7313V1.9913C15.7313 0.891505 14.8398 0 13.74 0C12.6402 0 11.7487 0.891505 11.7487 1.9913V3.91619H9.84648C4.4171 3.91619 0 8.3333 0 13.7626V41.1308C0 46.5602 4.4171 50.9773 9.84648 50.9773H41.1536C46.5829 50.9773 51 46.5602 51 41.1308V13.7626C51 8.3333 46.5829 3.91619 41.1535 3.91619ZM9.84648 7.89879H11.7487V11.7818C11.7487 12.8816 12.6402 13.7731 13.74 13.7731C14.8398 13.7731 15.7313 12.8816 15.7313 11.7818V7.89879H35.2687V11.7818C35.2687 12.8816 36.1602 13.7731 37.26 13.7731C38.3598 13.7731 39.2513 12.8816 39.2513 11.7818V7.89879H41.1536C44.3869 7.89879 47.0174 10.5293 47.0174 13.7626V15.6649H3.9826V13.7626C3.9826 10.5293 6.61311 7.89879 9.84648 7.89879ZM41.1535 46.9947H9.84648C6.61311 46.9947 3.9826 44.3642 3.9826 41.1308V19.6475H47.0174V41.1308C47.0174 44.3642 44.3869 46.9947 41.1535 46.9947ZM17.6894 27.48C17.6894 28.5797 16.7979 29.4713 15.6981 29.4713H11.7819C10.6821 29.4713 9.79063 28.5797 9.79063 27.48C9.79063 26.3802 10.6821 25.4887 11.7819 25.4887H15.6981C16.7978 25.4887 17.6894 26.3802 17.6894 27.48ZM41.2095 27.48C41.2095 28.5797 40.318 29.4713 39.2182 29.4713H35.302C34.2022 29.4713 33.3107 28.5797 33.3107 27.48C33.3107 26.3802 34.2022 25.4887 35.302 25.4887H39.2182C40.3179 25.4887 41.2095 26.3802 41.2095 27.48ZM29.4381 27.48C29.4381 28.5797 28.5466 29.4713 27.4468 29.4713H23.5306C22.4308 29.4713 21.5393 28.5797 21.5393 27.48C21.5393 26.3802 22.4308 25.4887 23.5306 25.4887H27.4468C28.5465 25.4887 29.4381 26.3802 29.4381 27.48ZM17.6894 39.2286C17.6894 40.3284 16.7979 41.2199 15.6981 41.2199H11.7819C10.6821 41.2199 9.79063 40.3284 9.79063 39.2286C9.79063 38.1288 10.6821 37.2373 11.7819 37.2373H15.6981C16.7978 37.2373 17.6894 38.1288 17.6894 39.2286ZM41.2095 39.2286C41.2095 40.3284 40.318 41.2199 39.2182 41.2199H35.302C34.2022 41.2199 33.3107 40.3284 33.3107 39.2286C33.3107 38.1288 34.2022 37.2373 35.302 37.2373H39.2182C40.3179 37.2373 41.2095 38.1288 41.2095 39.2286ZM29.4381 39.2286C29.4381 40.3284 28.5466 41.2199 27.4468 41.2199H23.5306C22.4308 41.2199 21.5393 40.3284 21.5393 39.2286C21.5393 38.1288 22.4308 37.2373 23.5306 37.2373H27.4468C28.5465 37.2373 29.4381 38.1288 29.4381 39.2286Z" fill="black"/>
</g>
</svg>
