<svg width="44" height="51" viewBox="0 0 44 51" fill="none" xmlns="http://www.w3.org/2000/svg">
<g opacity="0.5">
<path d="M21.6667 24.0873C23.9741 24.0873 26.2298 23.403 28.1483 22.1211C30.0669 20.8391 31.5623 19.017 32.4453 16.8852C33.3283 14.7534 33.5594 12.4077 33.1092 10.1445C32.659 7.88142 31.5479 5.80262 29.9163 4.171C28.2847 2.53939 26.2059 1.42824 23.9427 0.978083C21.6796 0.527922 19.3338 0.758961 17.202 1.64198C15.0702 2.52501 13.2481 4.02036 11.9662 5.93893C10.6842 7.85751 10 10.1131 10 12.4206C10.0035 15.5137 11.2338 18.4791 13.421 20.6663C15.6082 22.8534 18.5736 24.0837 21.6667 24.0873ZM21.6667 4.08725C23.3149 4.08725 24.926 4.57599 26.2964 5.49167C27.6668 6.40735 28.735 7.70884 29.3657 9.23156C29.9964 10.7543 30.1614 12.4298 29.8399 14.0463C29.5184 15.6629 28.7247 17.1477 27.5592 18.3132C26.3938 19.4786 24.9089 20.2723 23.2924 20.5938C21.6759 20.9154 20.0004 20.7503 18.4776 20.1196C16.9549 19.4889 15.6534 18.4208 14.7378 17.0503C13.8221 15.6799 13.3333 14.0688 13.3333 12.4206C13.336 10.2113 14.2148 8.09318 15.777 6.53095C17.3393 4.96872 19.4574 4.0899 21.6667 4.08725Z" fill="black"/>
<path d="M29.95 27.4199H13.3833C9.83522 27.4243 6.43367 28.8358 3.92476 31.3447C1.41585 33.8536 0.00441036 37.2551 0 40.8033V49.0866C0 49.5286 0.175595 49.9526 0.488156 50.2651C0.800717 50.5777 1.22464 50.7533 1.66667 50.7533H41.6667C42.1087 50.7533 42.5327 50.5777 42.8452 50.2651C43.1578 49.9526 43.3334 49.5286 43.3334 49.0866V40.8033C43.329 37.2551 41.9175 33.8536 39.4086 31.3447C36.8997 28.8358 33.4982 27.4243 29.95 27.4199ZM40 47.4199H3.33334V40.8033C3.33643 38.1388 4.39625 35.5843 6.28033 33.7003C8.1644 31.8162 10.7189 30.7563 13.3833 30.7533H29.95C32.6145 30.7563 35.169 31.8162 37.0531 33.7003C38.9371 35.5843 39.997 38.1388 40 40.8033V47.4199Z" fill="black"/>
</g>
</svg>
