<svg width="53" height="53" viewBox="0 0 53 53" fill="none" xmlns="http://www.w3.org/2000/svg">
<path opacity="0.5" d="M51.8575 24.6482L43.3456 20.3927L51.8575 16.1368C53.38 15.3758 53.3816 13.1955 51.8575 12.4333L27.426 0.218354C26.8429 -0.0727848 26.1571 -0.0727848 25.574 0.218354L1.1425 12.4333C-0.380023 13.1947 -0.38164 15.375 1.1425 16.1368L9.65444 20.3927L1.1425 24.6482C-0.380023 25.4096 -0.38164 27.5895 1.1425 28.3517L9.65444 32.6076L1.1425 36.8631C-0.380023 37.6245 -0.38164 39.8044 1.1425 40.5666L25.574 52.7815C26.1559 53.0722 26.8417 53.0734 27.426 52.7815L51.8575 40.5666C53.38 39.8052 53.3816 37.6253 51.8575 36.8631L43.3456 32.6076L51.8575 28.3517C53.38 27.5907 53.3816 25.4104 51.8575 24.6482ZM26.5 4.38488L46.3016 14.2852L26.5 24.1852L6.69837 14.2852L26.5 4.38488ZM46.3016 38.715L26.5 48.615L6.69837 38.715L14.2843 34.9221L25.574 40.5666C26.1563 40.8573 26.8417 40.8585 27.426 40.5666L38.7157 34.9221L46.3016 38.715ZM26.5 36.4001L6.69837 26.5001L14.2843 22.7072L25.574 28.3517C26.1563 28.6424 26.8417 28.6436 27.426 28.3517L38.7157 22.7072L46.3016 26.5001L26.5 36.4001Z" fill="black"/>
</svg>
