<svg width="43" height="49" viewBox="0 0 43 49" fill="none" xmlns="http://www.w3.org/2000/svg">
<g opacity="0.5">
<path d="M35.9664 30.4373C33.1683 29.6866 30.2336 29.1406 27.2307 28.7994C26.6848 28.7311 26.1388 29.0724 25.8658 29.5501L20.952 39.6507L16.0382 29.5501C15.7652 29.0041 15.2192 28.7311 14.6732 28.7994C11.6703 29.1406 8.73568 29.6866 5.93753 30.4373C2.45691 31.3928 0 34.6004 0 38.1493V47.6357C0 48.3864 0.614227 49.0006 1.36495 49.0006H40.7437C41.4945 49.0006 42.1087 48.3864 42.1087 47.6357V38.2175C41.9039 34.6004 39.447 31.3928 35.9664 30.4373ZM39.174 46.339H2.5934V43.8821H5.52805C6.27877 43.8821 6.89299 43.2678 6.89299 42.5171C6.89299 41.7664 6.27877 41.1522 5.52805 41.1522H2.5934V39.173H8.39444C9.14516 39.173 9.75939 38.5588 9.75939 37.808C9.75939 37.0573 9.14516 36.4431 8.39444 36.4431H2.93464C3.48062 34.8734 4.84557 33.5767 6.55176 33.099C8.94042 32.4165 11.3973 31.9388 13.9225 31.6658L19.6553 43.4043C20.133 44.428 21.6344 44.428 22.1122 43.4043L27.845 31.6658C30.3701 32.007 32.8953 32.4847 35.2157 33.099C37.5361 33.7132 39.174 35.8289 39.174 38.2175V46.339Z" fill="black"/>
<path d="M20.8823 26.8895C28.3212 26.8895 34.327 20.8155 34.327 13.4447C34.327 6.00578 28.253 0 20.8823 0C13.4433 0 7.4375 6.07402 7.4375 13.4447C7.4375 20.8155 13.4433 26.8895 20.8823 26.8895ZM20.8823 2.66165C26.8198 2.66165 31.5971 7.50722 31.5971 13.3765C31.5971 19.2458 26.8198 24.1596 20.8823 24.1596C14.9447 24.1596 10.1674 19.314 10.1674 13.4447C10.1674 7.57547 14.9447 2.66165 20.8823 2.66165Z" fill="black"/>
<path d="M20.8836 17.8804C19.9964 17.8804 19.3139 17.1979 19.3139 16.3107C19.3139 15.56 18.6997 14.9458 17.9489 14.9458C17.1982 14.9458 16.584 15.56 16.584 16.3107C16.584 18.2216 17.8124 19.7913 19.5186 20.4056V20.9515C19.5186 21.7023 20.1329 22.3165 20.8836 22.3165C21.6343 22.3165 22.2485 21.7023 22.2485 20.9515V20.4056C23.9547 19.8596 25.1832 18.2216 25.1832 16.3107C25.1832 13.9221 23.2722 12.0111 20.8836 12.0111C19.9964 12.0111 19.3139 11.3287 19.3139 10.4414C19.3139 9.55422 19.9964 8.87174 20.8836 8.87174C21.7708 8.87174 22.4533 9.55422 22.4533 10.4414C22.4533 11.1922 23.0675 11.8064 23.8182 11.8064C24.5689 11.8064 25.1832 11.1922 25.1832 10.4414C25.1832 8.53051 23.9547 6.96081 22.2485 6.34659V5.86886C22.2485 5.11813 21.6343 4.50391 20.8836 4.50391C20.1329 4.50391 19.5186 5.11813 19.5186 5.86886V6.41484C17.8124 6.96082 16.584 8.59875 16.584 10.5097C16.584 12.8983 18.4949 14.8093 20.8836 14.8093C21.7708 14.8093 22.4533 15.4917 22.4533 16.379C22.4533 17.1979 21.7708 17.8804 20.8836 17.8804Z" fill="black"/>
</g>
</svg>
