<svg width="37" height="53" viewBox="0 0 37 53" fill="none" xmlns="http://www.w3.org/2000/svg">
<g opacity="0.5">
<path d="M18.3894 0C8.24967 0 0 8.24905 0 18.3894C0 25.136 3.74625 31.3591 9.64168 34.5754V38.3752C9.64168 39.4332 10.4993 40.2908 11.5572 40.2908H25.1584C26.2164 40.2908 27.074 39.4333 27.074 38.3752V34.5805C33.0084 31.3771 36.7789 25.1515 36.7789 18.3895C36.7789 8.24905 28.5292 0 18.3894 0ZM24.3641 31.6515C23.6809 31.9624 23.2422 32.6437 23.2422 33.3947V36.4597H13.4728V33.3947C13.4728 32.647 13.0373 31.967 12.3586 31.6547C7.17834 29.2686 3.83112 24.0614 3.83112 18.3894C3.83112 10.3619 10.3619 3.83113 18.3894 3.83113C26.417 3.83113 32.9478 10.3619 32.9478 18.3894C32.9478 24.0704 29.5783 29.2762 24.3641 31.6515Z" fill="black"/>
<path d="M23.6869 42.8438H13.0874C12.0295 42.8438 11.1719 43.7013 11.1719 44.7593C11.1719 45.8173 12.0294 46.6749 13.0874 46.6749H23.6869C24.7449 46.6749 25.6025 45.8173 25.6025 44.7593C25.6025 43.7013 24.7449 42.8438 23.6869 42.8438Z" fill="black"/>
<path d="M20.6188 49.168H16.1497C15.0919 49.168 14.2344 50.0254 14.2344 51.0833C14.2344 52.1412 15.0919 52.9986 16.1497 52.9986H20.6189C21.6767 52.9986 22.5342 52.1412 22.5342 51.0833C22.5341 50.0254 21.6767 49.168 20.6188 49.168Z" fill="black"/>
</g>
</svg>
