<svg width="60" height="50" viewBox="0 0 60 50" fill="none" xmlns="http://www.w3.org/2000/svg">
<g opacity="0.5">
<path d="M51.2001 26.3083H45.3281C44.5289 26.3083 43.7552 26.4175 43.0188 26.6183C41.5663 23.7628 38.6006 21.8008 35.1833 21.8008H24.8039C21.3866 21.8008 18.421 23.7628 16.9684 26.6183C16.2321 26.4175 15.4583 26.3083 14.6592 26.3083H8.7872C3.94194 26.3083 0 30.2502 0 35.0955V44.4823C0 47.3895 2.36516 49.7546 5.27232 49.7546H54.7149C57.6221 49.7546 59.9873 47.3895 59.9873 44.4823V35.0955C59.9873 30.2502 56.0453 26.3083 51.2001 26.3083ZM16.0167 30.5882V46.2399H5.27232C4.30327 46.2399 3.51488 45.4515 3.51488 44.4824V35.0956C3.51488 32.1884 5.88004 29.8233 8.7872 29.8233H14.6592C15.1362 29.8233 15.5982 29.8881 16.038 30.0074C16.0254 30.1997 16.0167 30.393 16.0167 30.5882ZM40.4557 46.2399H19.5316V30.5881C19.5316 27.6809 21.8968 25.3158 24.8039 25.3158H35.1833C38.0905 25.3158 40.4557 27.6809 40.4557 30.5881V46.2399ZM56.4724 44.4824C56.4724 45.4515 55.684 46.2399 54.7149 46.2399H43.9705V30.5881C43.9705 30.3928 43.9619 30.1995 43.9492 30.0073C44.3891 29.8881 44.851 29.8231 45.3281 29.8231H51.2001C54.1072 29.8231 56.4724 32.1883 56.4724 35.0955V44.4824Z" fill="black"/>
<path d="M11.7225 9.71094C7.41687 9.71094 3.91406 13.2137 3.91406 17.5194C3.91395 21.825 7.41687 25.3278 11.7225 25.3278C16.028 25.3278 19.5309 21.825 19.5309 17.5194C19.5309 13.2137 16.0281 9.71094 11.7225 9.71094ZM11.7224 21.8129C9.35486 21.8129 7.42882 19.8869 7.42882 17.5194C7.42882 15.1519 9.35486 13.2258 11.7224 13.2258C14.0899 13.2258 16.0159 15.1519 16.0159 17.5194C16.0159 19.8869 14.0899 21.8129 11.7224 21.8129Z" fill="black"/>
<path d="M29.9944 0.0136719C24.2422 0.0136719 19.5625 4.69338 19.5625 10.4456C19.5625 16.1978 24.2422 20.8775 29.9944 20.8775C35.7466 20.8775 40.4263 16.1978 40.4263 10.4456C40.4263 4.6935 35.7466 0.0136719 29.9944 0.0136719ZM29.9944 17.3626C26.1803 17.3626 23.0774 14.2597 23.0774 10.4456C23.0774 6.6316 26.1803 3.52855 29.9944 3.52855C33.8085 3.52855 36.9115 6.63148 36.9115 10.4456C36.9115 14.2597 33.8085 17.3626 29.9944 17.3626Z" fill="black"/>
<path d="M48.2635 9.71094C43.958 9.71094 40.4551 13.2137 40.4551 17.5194C40.4552 21.825 43.958 25.3278 48.2635 25.3278C52.5691 25.3278 56.0719 21.825 56.0719 17.5194C56.0719 13.2137 52.5691 9.71094 48.2635 9.71094ZM48.2635 21.8129C45.8961 21.8129 43.97 19.8869 43.97 17.5194C43.9701 15.1519 45.8961 13.2258 48.2635 13.2258C50.631 13.2258 52.557 15.1519 52.557 17.5194C52.557 19.8869 50.631 21.8129 48.2635 21.8129Z" fill="black"/>
</g>
</svg>
