<svg width="53" height="51" viewBox="0 0 53 51" fill="none" xmlns="http://www.w3.org/2000/svg">
<g opacity="0.5">
<path d="M42.8616 14.2509L34.1115 12.9795L30.1983 5.0506C28.6869 1.98789 24.3164 1.98882 22.8055 5.0505L18.8923 12.9794L10.1422 14.2509C6.76213 14.742 5.41291 18.8987 7.85773 21.282L14.1894 27.4538L12.6947 36.1683C12.1174 39.5347 15.6534 42.1023 18.6757 40.5138L26.502 36.3991L34.3284 40.5138C37.3465 42.1004 40.8866 39.5342 40.3094 36.1683L38.8147 27.4537L45.1465 21.2819C47.5917 18.8978 46.2402 14.7419 42.8616 14.2509ZM42.6798 18.7519L35.6831 25.5719C35.2668 25.9778 35.0768 26.5626 35.175 27.1356L36.8267 36.7658C36.9096 37.2494 36.4065 37.6146 35.9723 37.3865L27.3239 32.8398C26.8093 32.5693 26.1944 32.5693 25.6798 32.8398L17.0314 37.3865C16.597 37.6148 16.094 37.2493 16.177 36.7658L17.8286 27.1356C17.9269 26.5626 17.7369 25.9778 17.3206 25.5719L10.3239 18.7519C9.97245 18.4094 10.1647 17.8181 10.6503 17.7474L20.3194 16.3424C20.8948 16.2587 21.3923 15.8975 21.6496 15.3761L25.9739 6.6142C26.1909 6.17447 26.8128 6.17416 27.0299 6.61431L31.3542 15.3761C31.6115 15.8975 32.109 16.2588 32.6844 16.3424L42.3535 17.7474C42.839 17.8181 43.0311 18.4095 42.6798 18.7519Z" fill="black"/>
<path d="M13.9475 3.63635L11.8346 0.728289C11.2609 -0.0609126 10.1562 -0.236061 9.36701 0.337622C8.57771 0.911097 8.40266 2.01592 8.97624 2.80522L11.0891 5.71318C11.663 6.50279 12.7677 6.67722 13.5567 6.10384C14.346 5.53047 14.521 4.42565 13.9475 3.63635Z" fill="black"/>
<path d="M6.93529 29.6939C6.63396 28.7661 5.63731 28.2579 4.70919 28.5597L1.22114 29.6931C0.293224 29.9947 -0.214519 30.9912 0.0869183 31.9192C0.388873 32.8487 1.38718 33.3547 2.31302 33.0534L5.80107 31.92C6.72909 31.6185 7.23683 30.6219 6.93529 29.6939Z" fill="black"/>
<path d="M43.6329 0.337562C42.8437 -0.235914 41.7388 -0.0610763 41.1653 0.728229L39.0524 3.63618C38.4788 4.42549 38.6539 5.53041 39.4432 6.10378C40.2328 6.67747 41.3375 6.50211 41.9108 5.71312L44.0236 2.80516C44.5971 2.01586 44.4222 0.910934 43.6329 0.337562Z" fill="black"/>
<path d="M51.7796 29.6932L48.2916 28.5598C47.3637 28.2578 46.367 28.7661 46.0655 29.694C45.7639 30.6219 46.2717 31.6187 47.1997 31.9201L50.6878 33.0535C51.6137 33.3546 52.6119 32.8487 52.9139 31.9193C53.2154 30.9914 52.7075 29.9947 51.7796 29.6932Z" fill="black"/>
<path d="M26.501 43.3906C25.5253 43.3906 24.7344 44.1816 24.7344 45.1572V48.7428C24.7344 49.7184 25.5253 50.5094 26.501 50.5094C27.4766 50.5094 28.2676 49.7184 28.2676 48.7428V45.1572C28.2677 44.1815 27.4767 43.3906 26.501 43.3906Z" fill="black"/>
</g>
</svg>
