<svg width="57" height="50" viewBox="0 0 57 50" fill="none" xmlns="http://www.w3.org/2000/svg">
<g opacity="0.5">
<path d="M47.7546 9.29676H39.5749V4.18574C39.5749 1.87759 37.6779 0 35.3462 0H21.1197C18.788 0 16.8909 1.87781 16.8909 4.18574V9.29676H8.71115C3.90782 9.29676 0 13.2046 0 18.0079V42.8844C0 46.8079 3.19196 50 7.11555 50H49.3502C53.2737 50 56.4658 46.808 56.4658 42.8844V18.0079C56.4656 13.2046 52.5578 9.29676 47.7546 9.29676ZM20.2095 4.18574C20.2095 3.69133 20.6008 3.31857 21.1197 3.31857H35.3461C35.8649 3.31857 36.2562 3.69133 36.2562 4.18574V9.29676H20.2095V4.18574ZM53.147 42.8844C53.1471 44.9781 51.4438 46.6814 49.3502 46.6814H7.11555C5.0218 46.6814 3.31857 44.9781 3.31857 42.8844V27.3853C3.83823 27.7114 4.40642 27.9756 5.01607 28.164C5.04783 28.1737 5.07981 28.1826 5.11202 28.1906L22.0166 32.3219V33.6866C22.0166 35.8292 23.7598 37.5724 25.9024 37.5724H30.5632C32.7059 37.5724 34.449 35.8292 34.449 33.6866V32.3219L51.3536 28.1906C51.3859 28.1828 51.4179 28.1739 51.4496 28.164C52.0592 27.9756 52.6273 27.7114 53.1471 27.3853V42.8844H53.147ZM25.3353 33.6866V29.0048C25.3353 28.692 25.5897 28.4376 25.9025 28.4376H30.5634C30.8761 28.4375 31.1305 28.692 31.1305 29.0048V33.6866C31.1305 33.9994 30.8761 34.2538 30.5634 34.2538H25.9025C25.5897 34.2537 25.3353 33.9993 25.3353 33.6866ZM53.1472 21.3518C53.1472 23.02 52.0908 24.4721 50.5133 24.9797L34.4467 28.9061C34.3941 26.8089 32.673 25.1188 30.5634 25.1188H25.9025C23.793 25.1188 22.0719 26.8091 22.0192 28.9061L5.95249 24.9798C4.37509 24.4721 3.31857 23.02 3.31857 21.3518V18.0079C3.31857 15.0344 5.73766 12.6153 8.71115 12.6153H47.7546C50.728 12.6153 53.1471 15.0344 53.1471 18.0079V21.3518H53.1472Z" fill="black"/>
</g>
</svg>
