<svg width="51" height="51" viewBox="0 0 51 51" fill="none" xmlns="http://www.w3.org/2000/svg">
<g opacity="0.5">
<path d="M37.5527 0C40.8755 0 43.5293 2.78966 43.5293 6.07617C43.5293 9.37165 40.8482 12.0527 37.5527 12.0527C34.2573 12.0527 31.5762 9.37165 31.5762 6.07617C31.5762 2.78707 34.2334 0 37.5527 0ZM37.5527 9.06445C39.2005 9.06445 40.541 7.72391 40.541 6.07617C40.541 4.40234 39.1726 2.98828 37.5527 2.98828C35.9329 2.98828 34.5645 4.40234 34.5645 6.07617C34.5645 7.72391 35.905 9.06445 37.5527 9.06445Z" fill="black"/>
<path d="M4.48242 0H25.5996C28.0712 0 30.082 2.01081 30.082 4.48242V14.6789L31.3952 13.3659C32.2419 12.5191 33.3674 12.0527 34.5645 12.0527H37.5527C38.1862 12.0527 42.8959 12.0527 43.5293 12.0527C47.6486 12.0527 51 15.4041 51 19.5234C51 20.373 51 27.2611 51 28.4883C51 30.9599 48.9892 32.9707 46.5176 32.9707C45.9939 32.9707 45.4909 32.8805 45.0234 32.7147V46.5176C45.0234 48.9892 43.0126 51 40.541 51C39.394 51 38.3463 50.567 37.5527 49.8559C36.7591 50.567 35.7115 51 34.5645 51C32.0928 51 30.082 48.9892 30.082 46.5176V26.7395C28.9396 27.1425 27.6741 27.0649 26.5832 26.5213L21.5524 24.0059H4.48242C2.01081 24.0059 0 21.995 0 19.5234V4.48242C0 2.01081 2.01081 0 4.48242 0ZM21.943 20.8601L27.9178 23.8475C28.4783 24.1268 29.1745 24.0377 29.6443 23.568L30.5195 22.6927C31.4435 21.7687 33.0662 22.3972 33.0702 23.7446C33.0702 23.7461 33.0704 23.7475 33.0704 23.749V46.5176C33.0704 47.3414 33.7407 48.0117 34.5646 48.0117C35.3884 48.0117 36.0587 47.3414 36.0587 46.5176V31.4766C36.0587 30.6514 36.7277 29.9824 37.5528 29.9824C38.378 29.9824 39.047 30.6514 39.047 31.4766V46.5176C39.047 47.3414 39.7172 48.0117 40.5411 48.0117C41.365 48.0117 42.0353 47.3414 42.0353 46.5176V28.4883C42.0353 27.3617 42.0353 20.4442 42.0353 19.5234C42.0353 18.6983 42.7042 18.0293 43.5294 18.0293C44.3546 18.0293 45.0235 18.6983 45.0235 19.5234C45.0235 20.373 45.0235 27.2611 45.0235 28.4883C45.0235 29.3122 45.6938 29.9824 46.5177 29.9824C47.3415 29.9824 48.0118 29.3122 48.0118 28.4883C48.0117 27.3617 48.0117 20.4442 48.0117 19.5234C48.0117 17.0518 46.0009 15.041 43.5293 15.041C42.4027 15.041 35.4852 15.041 34.5645 15.041C34.1656 15.041 33.7905 15.1965 33.5082 15.4789L29.055 19.9321C28.6003 20.3869 27.9055 20.4995 27.3303 20.212L23.2793 18.1865C22.5378 17.8154 21.6442 18.1154 21.2748 18.8551C20.9052 19.5943 21.2038 20.4905 21.943 20.8601ZM2.98828 19.5234C2.98828 20.3473 3.65855 21.0176 4.48242 21.0176H18.386C18.3769 20.992 18.367 20.9669 18.3584 20.9411C18.1432 20.2956 18.0787 19.6244 18.161 18.9688L9.99002 14.8833C9.25192 14.5143 8.95279 13.6168 9.32185 12.8787C9.6909 12.1406 10.5885 11.8414 11.3265 12.2105L19.4969 16.2958C20.806 15.0296 22.8451 14.6276 24.6162 15.514L27.0938 16.7528V4.48242C27.0938 3.65855 26.4235 2.98828 25.5996 2.98828H4.48242C3.65855 2.98828 2.98828 3.65855 2.98828 4.48242V19.5234Z" fill="black"/>
</g>
</svg>
