<svg width="51" height="46" viewBox="0 0 51 46" fill="none" xmlns="http://www.w3.org/2000/svg">
<rect width="51" height="46" rx="9" fill="#EC1F26"/>
<rect x="21.5" y="27.5" width="4.50001" height="4.50001" rx="1" fill="#EC1F26"/>
<path d="M30.1263 16.4375C29.4593 16.4375 28.918 15.8962 28.918 15.2292V13.4167H24.0846V15.2292C24.0846 15.8962 23.5433 16.4375 22.8763 16.4375C22.2093 16.4375 21.668 15.8962 21.668 15.2292V13.4167C21.668 12.0839 22.7518 11 24.0846 11H28.918C30.2508 11 31.3346 12.0839 31.3346 13.4167V15.2292C31.3346 15.8962 30.7933 16.4375 30.1263 16.4375Z" fill="white"/>
<path d="M27.3579 27.1664C27.1404 27.251 26.8262 27.3114 26.5 27.3114C26.1737 27.3114 25.8596 27.251 25.5696 27.1422L12 22.623V31.8426C12 33.6793 13.4862 35.1655 15.3229 35.1655H37.6771C39.5137 35.1655 41 33.6793 41 31.8426V22.623L27.3579 27.1664Z" fill="white"/>
<path d="M41 17.9479V20.715L26.79 25.4517C26.6933 25.4879 26.5967 25.5 26.5 25.5C26.4033 25.5 26.3067 25.4879 26.21 25.4517L12 20.715V17.9479C12 16.1112 13.4862 14.625 15.3229 14.625H37.6771C39.5137 14.625 41 16.1112 41 17.9479Z" fill="white"/>
</svg>
