<svg width="18" height="22" viewBox="0 0 18 22" fill="none" xmlns="http://www.w3.org/2000/svg">
<path d="M8.99736 11.7818C10.5252 11.7818 11.7682 10.5389 11.7682 9.01103C11.7682 7.48322 10.5252 6.24023 8.99736 6.24023C7.46954 6.24023 6.22656 7.48322 6.22656 9.01103C6.22656 10.5389 7.46954 11.7818 8.99736 11.7818ZM8.99736 8.08743C9.50664 8.08743 9.92096 8.50176 9.92096 9.01103C9.92096 9.52031 9.50664 9.93463 8.99736 9.93463C8.48809 9.93463 8.07376 9.52031 8.07376 9.01103C8.07376 8.50176 8.48809 8.08743 8.99736 8.08743Z" fill="black"/>
<path d="M17.3103 9.01162C17.3103 4.42816 13.5814 0.699219 8.99795 0.699219C4.41449 0.699219 0.685547 4.42816 0.685547 9.01162C0.685547 10.8249 1.25919 12.5481 2.34452 13.9951L6.78048 19.9092C7.30152 20.6038 8.1305 21.0184 8.99795 21.0184C9.86539 21.0184 10.6944 20.6038 11.2155 19.9091L15.6514 13.9951C16.7367 12.5481 17.3103 10.8249 17.3103 9.01162ZM14.1737 12.8867L9.7378 18.8007C9.56111 19.0362 9.29147 19.1712 8.99795 19.1712C8.70443 19.1712 8.43478 19.0362 8.25814 18.8008L3.82223 12.8867C2.97866 11.762 2.53275 10.422 2.53275 9.01162C2.53275 5.44671 5.43304 2.54642 8.99795 2.54642C12.5629 2.54642 15.4631 5.44671 15.4631 9.01162C15.4631 10.422 15.0172 11.762 14.1737 12.8867Z" fill="black"/>
</svg>
