<svg width="19" height="19" viewBox="0 0 19 19" fill="none" xmlns="http://www.w3.org/2000/svg">
<path d="M9.04636 0.886719C7.26489 0.886719 5.52342 1.41499 4.04218 2.40472C2.56094 3.39446 1.40645 4.8012 0.724706 6.44707C0.0429653 8.09294 -0.135409 9.90401 0.212139 11.6513C0.559688 13.3985 1.41755 15.0034 2.67724 16.2631C3.93694 17.5228 5.54188 18.3807 7.28913 18.7282C9.03637 19.0758 10.8474 18.8974 12.4933 18.2157C14.1392 17.5339 15.5459 16.3794 16.5357 14.8982C17.5254 13.417 18.0537 11.6755 18.0537 9.89402C18.0508 7.506 17.101 5.21659 15.4124 3.52801C13.7238 1.83942 11.4344 0.889536 9.04636 0.886719ZM9.04636 17.2636C7.58879 17.2636 6.16396 16.8314 4.95203 16.0216C3.7401 15.2118 2.79552 14.0609 2.23774 12.7142C1.67995 11.3676 1.534 9.88584 1.81836 8.45628C2.10272 7.02671 2.80461 5.71358 3.83526 4.68292C4.86592 3.65226 6.17906 2.95037 7.60863 2.66601C9.03819 2.38166 10.52 2.5276 11.8666 3.08539C13.2132 3.64318 14.3642 4.58776 15.174 5.79968C15.9838 7.01161 16.416 8.43645 16.416 9.89402C16.4136 11.8478 15.6364 13.7209 14.2548 15.1025C12.8733 16.484 11.0002 17.2612 9.04636 17.2636Z" fill="black"/>
<path d="M9.86425 9.55502V4.98095C9.86425 4.76378 9.77798 4.55551 9.62442 4.40194C9.47086 4.24838 9.26258 4.16211 9.04541 4.16211C8.82824 4.16211 8.61996 4.24838 8.4664 4.40194C8.31283 4.55551 8.22656 4.76378 8.22656 4.98095V9.89403C8.22661 10.1112 8.31291 10.3194 8.46648 10.4729L10.923 12.9295C11.0775 13.0786 11.2843 13.1612 11.499 13.1593C11.7137 13.1574 11.9191 13.0713 12.0709 12.9195C12.2227 12.7677 12.3088 12.5623 12.3107 12.3476C12.3126 12.1329 12.23 11.9261 12.0809 11.7716L9.86425 9.55502Z" fill="black"/>
</svg>
