<svg width="20" height="20" viewBox="0 0 20 20" fill="none" xmlns="http://www.w3.org/2000/svg">
<path d="M18.957 19.5729H12.582C12.1237 19.5729 11.7487 19.1979 11.7487 18.7396V14.7812C11.7487 13.7812 10.957 12.9896 9.95703 12.9896C8.95703 12.9896 8.16537 13.7812 8.16537 14.7812V18.7396C8.16537 19.1979 7.79037 19.5729 7.33203 19.5729H1.04036C0.582031 19.5729 0.207031 19.1979 0.207031 18.7396V8.07292C0.207031 7.32292 0.582031 6.61458 1.16536 6.19792L9.54037 0.15625C9.83203 -0.0520833 10.207 -0.0520833 10.4987 0.15625L18.8737 6.19792C19.457 6.61458 19.832 7.32292 19.832 8.07292V18.7812C19.7904 19.1979 19.4154 19.5729 18.957 19.5729ZM13.4154 17.9479H18.1654V8.07292C18.1654 7.86458 18.0404 7.65625 17.8737 7.53125L9.9987 1.82292L2.1237 7.48958C1.95703 7.61458 1.83203 7.82292 1.83203 8.03125V17.9062H6.58203V14.7812C6.58203 12.9062 8.1237 11.3646 9.9987 11.3646C11.8737 11.3646 13.4154 12.9062 13.4154 14.7812V17.9479Z" fill="white"/>
</svg>
