<svg width="27" height="27" viewBox="0 0 27 27" fill="none" xmlns="http://www.w3.org/2000/svg">
<g filter="url(#filter0_d_1_4004)">
<path fillRule="evenodd" clipRule="evenodd" d="M21.1 5.69996L21.1 3.79996C21.1 1.70045 19.3985 -5.18133e-05 17.3 -5.19967e-05L7.79996 -5.28272e-05C5.70046 -5.30108e-05 3.99995 1.70045 3.99995 3.79996C3.99995 6.96252 3.99995 12.0365 3.99995 15.2C3.99995 17.2985 5.70045 19 7.79996 19C10.516 19 14.583 19 17.3 19C19.3985 19 21.1 17.2985 21.1 15.2L21.1 13.3C21.1 12.7756 20.6744 12.35 20.15 12.35C19.6256 12.35 19.2 12.7756 19.2 13.3C19.2 13.3 19.2 14.1901 19.2 15.2C19.2 16.2488 18.3488 17.1 17.3 17.1L7.79996 17.1C6.75021 17.1 5.89995 16.2488 5.89995 15.2L5.89996 3.79996C5.89996 2.7502 6.75021 1.89995 7.79996 1.89995C10.516 1.89995 14.583 1.89995 17.3 1.89995C18.3488 1.89995 19.2 2.75021 19.2 3.79996C19.2 4.80886 19.2 5.69996 19.2 5.69996C19.2 6.22342 19.6256 6.64997 20.15 6.64997C20.6744 6.64997 21.1 6.22342 21.1 5.69996ZM13.8933 10.45L15.1216 11.6774C15.4921 12.0488 15.4921 12.6502 15.1216 13.0216C14.7502 13.3921 14.1488 13.3921 13.7783 13.0216L10.9283 10.1716C10.5569 9.80017 10.5569 9.19883 10.9283 8.82738L13.7783 5.97737C14.1488 5.60687 14.7502 5.60687 15.1216 5.97737C15.4921 6.34882 15.4921 6.95017 15.1216 7.32162L13.8933 8.54997L22.05 8.54997C22.5744 8.54997 23 8.97557 23 9.49997C23 10.0234 22.5744 10.45 22.05 10.45L13.8933 10.45Z" fill="white"/>
</g>
<defs>
<filter id="filter0_d_1_4004" x="0" y="0" width="27" height="27" filterUnits="userSpaceOnUse" color-interpolation-filters="sRGB">
<feFlood flood-opacity="0" result="BackgroundImageFix"/>
<feColorMatrix in="SourceAlpha" type="matrix" values="0 0 0 0 0 0 0 0 0 0 0 0 0 0 0 0 0 0 127 0" result="hardAlpha"/>
<feOffset dy="4"/>
<feGaussianBlur stdDeviation="2"/>
<feComposite in2="hardAlpha" operator="out"/>
<feColorMatrix type="matrix" values="0 0 0 0 0 0 0 0 0 0 0 0 0 0 0 0 0 0 0.25 0"/>
<feBlend mode="normal" in2="BackgroundImageFix" result="effect1_dropShadow_1_4004"/>
<feBlend mode="normal" in="SourceGraphic" in2="effect1_dropShadow_1_4004" result="shape"/>
</filter>
</defs>
</svg>
