<svg width="171" height="33" viewBox="0 0 171 33" fill="none" xmlns="http://www.w3.org/2000/svg">
<path d="M0 16.5C0 7.3873 7.42504 0 16.5843 0C25.7435 0 33.1686 7.3873 33.1686 16.5C33.1686 25.6127 25.7435 33 16.5843 33C7.42504 33 0 25.6127 0 16.5Z" fill="white"/>
<path d="M46.3503 5.4848H49.0864V14.5424H47.3138V8.41591C47.3138 8.23976 47.3158 7.99396 47.3199 7.67852C47.3241 7.35899 47.3261 7.11319 47.3261 6.94114L45.6029 14.5424H43.7562L42.0454 6.94114C42.0454 7.11319 42.0475 7.35899 42.0516 7.67852C42.0557 7.99396 42.0577 8.23976 42.0577 8.41591V14.5424H40.2851V5.4848H43.0521L44.7074 12.6067L46.3503 5.4848Z" fill="white"/>
<path d="M53.3418 11.1197H55.6517L54.5153 7.55563L53.3418 11.1197ZM53.4592 5.4848H55.6085L58.8325 14.5424H56.7697L56.1829 12.6805H52.8292L52.1992 14.5424H50.2104L53.4592 5.4848Z" fill="white"/>
<path d="M61.7354 14.5424H59.8454V5.4848H61.7354V14.5424Z" fill="white"/>
<path d="M63.4833 5.4848H65.4782L69.1037 11.8079V5.4848H70.8763V14.5424H68.974L65.2559 8.10867V14.5424H63.4833V5.4848Z" fill="white"/>
<path d="M81.3019 8.36675C81.3019 7.89564 81.1763 7.55972 80.9251 7.35899C80.678 7.15826 80.3301 7.05789 79.8813 7.05789H78.1087V9.72478H79.8813C80.3301 9.72478 80.678 9.61622 80.9251 9.3991C81.1763 9.18198 81.3019 8.83786 81.3019 8.36675ZM83.1856 8.35446C83.1856 9.42368 82.9139 10.1795 82.3703 10.6219C81.8268 11.0644 81.0507 11.2856 80.0419 11.2856H78.1087V14.5424H76.2188V5.4848H80.1839C81.098 5.4848 81.8268 5.7183 82.3703 6.18532C82.9139 6.65233 83.1856 7.37538 83.1856 8.35446Z" fill="white"/>
<path d="M84.6123 5.4848H86.5146V12.914H91.0233V14.5424H84.6123V5.4848Z" fill="white"/>
<path d="M94.8341 11.1197H97.144L96.0076 7.55563L94.8341 11.1197ZM94.9514 5.4848H97.1008L100.325 14.5424H98.2619L97.6752 12.6805H94.3215L93.6915 14.5424H91.7027L94.9514 5.4848Z" fill="white"/>
<path d="M101.091 10.0873C101.091 8.50604 101.517 7.2873 102.369 6.43111C103.11 5.68553 104.053 5.31274 105.198 5.31274C106.73 5.31274 107.85 5.81252 108.558 6.81209C108.949 7.37333 109.159 7.93661 109.188 8.50194H107.285C107.162 8.0677 107.003 7.73997 106.81 7.51876C106.464 7.12548 105.951 6.92885 105.272 6.92885C104.58 6.92885 104.035 7.20742 103.635 7.76455C103.236 8.31759 103.036 9.10209 103.036 10.118C103.036 11.134 103.246 11.896 103.666 12.4039C104.09 12.9078 104.628 13.1598 105.278 13.1598C105.945 13.1598 106.454 12.9427 106.804 12.5084C106.997 12.2749 107.158 11.9246 107.285 11.4576H109.169C109.005 12.4449 108.582 13.2478 107.903 13.8664C107.228 14.485 106.361 14.7943 105.303 14.7943C103.994 14.7943 102.964 14.3765 102.215 13.5408C101.465 12.701 101.091 11.5498 101.091 10.0873Z" fill="white"/>
<path d="M117.359 7.08861H112.541V9.01197H116.964V10.5851H112.541V12.914H117.581V14.5424H110.682V5.4848H117.359V7.08861Z" fill="white"/>
<path d="M119.051 14.5424V5.4848H120.935V8.93823H124.493V5.4848H126.383V14.5424H124.493V10.499H120.935V14.5424H119.051Z" fill="white"/>
<path d="M132.231 13.1905C132.985 13.1905 133.582 12.914 134.023 12.3609C134.467 11.8079 134.69 11.0213 134.69 10.0013C134.69 8.98534 134.467 8.20084 134.023 7.6478C133.582 7.09066 132.985 6.81209 132.231 6.81209C131.478 6.81209 130.877 7.08862 130.428 7.64166C129.979 8.1947 129.755 8.98124 129.755 10.0013C129.755 11.0213 129.979 11.8079 130.428 12.3609C130.877 12.914 131.478 13.1905 132.231 13.1905ZM136.592 10.0013C136.592 11.6276 136.133 12.873 135.215 13.7374C134.527 14.442 133.533 14.7943 132.231 14.7943C130.93 14.7943 129.936 14.442 129.248 13.7374C128.326 12.873 127.865 11.6276 127.865 10.0013C127.865 8.34217 128.326 7.09681 129.248 6.2652C129.936 5.56058 130.93 5.20828 132.231 5.20828C133.533 5.20828 134.527 5.56058 135.215 6.2652C136.133 7.09681 136.592 8.34217 136.592 10.0013Z" fill="white"/>
<path d="M138.05 5.4848H139.952V12.914H144.461V14.5424H138.05V5.4848Z" fill="white"/>
<path d="M147.629 7.05789V12.9693H149.383C150.281 12.9693 150.907 12.5289 151.261 11.6481C151.454 11.1647 151.551 10.5892 151.551 9.92141C151.551 8.99968 151.405 8.29301 151.112 7.80142C150.824 7.30573 150.248 7.05789 149.383 7.05789H147.629ZM149.704 5.4848C150.268 5.49299 150.738 5.55854 151.112 5.68143C151.751 5.89036 152.267 6.27339 152.663 6.83053C152.98 7.28116 153.196 7.76865 153.311 8.29301C153.426 8.81738 153.484 9.31716 153.484 9.79237C153.484 10.9968 153.241 12.0168 152.755 12.8525C152.096 13.9791 151.079 14.5424 149.704 14.5424H145.782V5.4848H149.704Z" fill="white"/>
<path d="M161.655 7.08861H156.838V9.01197H161.26V10.5851H156.838V12.914H161.878V14.5424H154.979V5.4848H161.655V7.08861Z" fill="white"/>
<path d="M165.262 7.05789V9.49127H167.418C167.846 9.49127 168.167 9.44211 168.381 9.34379C168.76 9.17173 168.949 8.83172 168.949 8.32374C168.949 7.7748 168.766 7.4061 168.4 7.21766C168.194 7.11115 167.885 7.05789 167.473 7.05789H165.262ZM167.869 5.4848C168.507 5.49709 168.997 5.57492 169.339 5.7183C169.684 5.86168 169.977 6.07266 170.216 6.35123C170.413 6.58064 170.57 6.83463 170.685 7.11319C170.8 7.39176 170.858 7.70925 170.858 8.06565C170.858 8.4958 170.749 8.91979 170.531 9.33765C170.312 9.7514 169.952 10.0443 169.45 10.2164C169.87 10.3843 170.166 10.624 170.339 10.9353C170.516 11.2426 170.605 11.7137 170.605 12.3486V12.957C170.605 13.3707 170.621 13.6514 170.654 13.7988C170.704 14.0323 170.819 14.2044 171 14.315V14.5424H168.906C168.849 14.3416 168.807 14.1798 168.783 14.0569C168.733 13.8029 168.707 13.5428 168.702 13.2765L168.69 12.4347C168.682 11.8571 168.575 11.472 168.369 11.2794C168.167 11.0869 167.786 10.9906 167.226 10.9906H165.262V14.5424H163.403V5.4848H167.869Z" fill="white"/>
<path d="M40.316 18.0695H42.2183V25.4987H46.727V27.1271H40.316V18.0695Z" fill="white"/>
<path d="M52.0757 25.7752C52.8292 25.7752 53.4262 25.4987 53.8668 24.9457C54.3115 24.3926 54.5338 23.6061 54.5338 22.586C54.5338 21.5701 54.3115 20.7856 53.8668 20.2325C53.4262 19.6754 52.8292 19.3968 52.0757 19.3968C51.3222 19.3968 50.721 19.6734 50.2722 20.2264C49.8234 20.7794 49.599 21.566 49.599 22.586C49.599 23.6061 49.8234 24.3926 50.2722 24.9457C50.721 25.4987 51.3222 25.7752 52.0757 25.7752ZM56.4361 22.586C56.4361 24.2124 55.977 25.4578 55.0588 26.3221C54.3712 27.0268 53.3768 27.3791 52.0757 27.3791C50.7745 27.3791 49.7802 27.0268 49.0925 26.3221C48.1702 25.4578 47.709 24.2124 47.709 22.586C47.709 20.9269 48.1702 19.6816 49.0925 18.8499C49.7802 18.1453 50.7745 17.793 52.0757 17.793C53.3768 17.793 54.3712 18.1453 55.0588 18.8499C55.977 19.6816 56.4361 20.9269 56.4361 22.586Z" fill="white"/>
<path d="M64.0144 20.8962C63.8703 20.2776 63.5183 19.8454 62.9583 19.5996C62.6454 19.4644 62.2974 19.3968 61.9145 19.3968C61.1816 19.3968 60.5784 19.6734 60.1048 20.2264C59.6354 20.7753 59.4007 21.6029 59.4007 22.7089C59.4007 23.8232 59.656 24.6118 60.1666 25.0747C60.6772 25.5376 61.2578 25.7691 61.9083 25.7691C62.5465 25.7691 63.0695 25.5868 63.4771 25.2222C63.8847 24.8535 64.1359 24.3722 64.2306 23.7782H62.1245V22.2665H65.9167V27.1271H64.6568L64.4653 25.9965C64.0988 26.4266 63.7694 26.7297 63.4771 26.9059C62.9748 27.2131 62.3571 27.3668 61.6242 27.3668C60.4178 27.3668 59.4296 26.951 58.6596 26.1194C57.8567 25.2837 57.4552 24.1407 57.4552 22.6905C57.4552 21.2239 57.8608 20.0482 58.6719 19.1633C59.4831 18.2785 60.5557 17.836 61.8898 17.836C63.0468 17.836 63.9753 18.1289 64.6753 18.7148C65.3794 19.2965 65.7829 20.0236 65.8858 20.8962H64.0144Z" fill="white"/>
<path d="M71.7657 25.7752C72.5192 25.7752 73.1162 25.4987 73.5568 24.9457C74.0015 24.3926 74.2238 23.6061 74.2238 22.586C74.2238 21.5701 74.0015 20.7856 73.5568 20.2325C73.1162 19.6754 72.5192 19.3968 71.7657 19.3968C71.0122 19.3968 70.411 19.6734 69.9622 20.2264C69.5134 20.7794 69.289 21.566 69.289 22.586C69.289 23.6061 69.5134 24.3926 69.9622 24.9457C70.411 25.4987 71.0122 25.7752 71.7657 25.7752ZM76.1261 22.586C76.1261 24.2124 75.667 25.4578 74.7488 26.3221C74.0612 27.0268 73.0668 27.3791 71.7657 27.3791C70.4645 27.3791 69.4702 27.0268 68.7825 26.3221C67.8602 25.4578 67.399 24.2124 67.399 22.586C67.399 20.9269 67.8602 19.6816 68.7825 18.8499C69.4702 18.1453 70.4645 17.793 71.7657 17.793C73.0668 17.793 74.0612 18.1453 74.7488 18.8499C75.667 19.6816 76.1261 20.9269 76.1261 22.586Z" fill="white"/>
</svg>
