<svg width="40" height="33" viewBox="0 0 40 33" fill="none" xmlns="http://www.w3.org/2000/svg">
<g opacity="0.15">
<path d="M11.2316 15.221C12.7368 15.221 14.2082 14.7747 15.4598 13.9384C16.7113 13.1022 17.6868 11.9136 18.2628 10.5229C18.8388 9.13228 18.9895 7.60206 18.6959 6.12577C18.4022 4.64948 17.6774 3.29342 16.613 2.22907C15.5487 1.16472 14.1926 0.43989 12.7163 0.146237C11.24 -0.147416 9.70982 0.00329757 8.31918 0.579319C6.92855 1.15534 5.73995 2.1308 4.90369 3.38234C4.06744 4.63388 3.62109 6.10529 3.62109 7.61051C3.62321 9.62829 4.42571 11.5628 5.8525 12.9896C7.27928 14.4164 9.21382 15.2189 11.2316 15.221Z" fill="white"/>
<path d="M28.7785 15.221C30.2837 15.221 31.7551 14.7747 33.0066 13.9384C34.2582 13.1022 35.2336 11.9136 35.8097 10.5229C36.3857 9.13228 36.5364 7.60206 36.2427 6.12577C35.9491 4.64948 35.2243 3.29342 34.1599 2.22907C33.0956 1.16472 31.7395 0.43989 30.2632 0.146237C28.7869 -0.147416 27.2567 0.00329757 25.8661 0.579319C24.4754 1.15534 23.2868 2.1308 22.4506 3.38234C21.6143 4.63388 21.168 6.10529 21.168 7.61051C21.1701 9.62829 21.9726 11.5628 23.3994 12.9896C24.8262 14.4164 26.7607 15.2189 28.7785 15.221Z" fill="white"/>
<path d="M11.2319 16.5479C8.25366 16.55 5.39801 17.7341 3.29208 19.84C1.18615 21.9459 0.00211748 24.8016 0 27.7798L0 31.5931C0 31.9662 0.148235 32.3241 0.412096 32.5879C0.675957 32.8518 1.03383 33 1.40698 33H21.0568C21.2416 33 21.4245 32.9636 21.5952 32.8929C21.7659 32.8222 21.921 32.7186 22.0517 32.5879C22.1823 32.4573 22.286 32.3022 22.3567 32.1315C22.4274 31.9608 22.4638 31.7778 22.4638 31.5931V27.7798C22.4691 26.3033 22.1821 24.8404 21.6196 23.4753C21.057 22.1102 20.2298 20.8699 19.1858 19.8259C18.1418 18.7819 16.9015 17.9547 15.5364 17.3921C14.1713 16.8296 12.7084 16.5426 11.2319 16.5479Z" fill="white"/>
<path d="M21.6409 19.0658C21.5532 19.1443 21.4985 19.2533 21.4881 19.3705C21.4777 19.4878 21.5124 19.6047 21.585 19.6974C24.7827 23.7984 24.351 27.7636 24.351 31.5768C24.3508 31.8466 24.3159 32.1153 24.247 32.3762C24.2301 32.4454 24.2291 32.5176 24.2441 32.5872C24.2591 32.6569 24.2896 32.7223 24.3335 32.7784C24.3773 32.8346 24.4333 32.8801 24.4973 32.9115C24.5612 32.9429 24.6315 32.9594 24.7027 32.9598H38.5647C38.931 32.9599 39.283 32.8172 39.5457 32.5619C39.8085 32.3067 39.9613 31.959 39.9717 31.5928V27.7795C39.9717 18.2344 28.8277 13.1741 21.6409 19.0658Z" fill="white"/>
</g>
</svg>
