<svg width="21" height="21" viewBox="0 0 21 21" fill="none" xmlns="http://www.w3.org/2000/svg">
<g opacity="0.5">
<path d="M20.7585 14.9335L18.8552 13.4759C20.2259 11.9992 20.9996 10.0482 20.9996 8.01855C20.9996 3.59713 17.4026 0 12.9813 0C10.0494 0 7.48047 1.58206 6.08203 3.93703C13.1222 2.43109 19.1254 9.23803 16.7524 16.0372H20.3845C20.971 16.0371 21.2241 15.2901 20.7585 14.9335Z" fill="white"/>
<path d="M5.58008 16.0125H10.4979V12.3252H5.58008V16.0125ZM7.63087 13.5536H8.44708C8.78686 13.5536 9.06232 13.8291 9.06232 14.1689C9.06232 14.5086 8.78686 14.7841 8.44708 14.7841H7.63087C7.29109 14.7841 7.01563 14.5086 7.01563 14.1689C7.01563 13.8291 7.29109 13.5536 7.63087 13.5536Z" fill="white"/>
<path d="M8.01869 4.96289C3.59735 4.96289 0.000262869 8.55998 0.000262869 12.9815C0.000262869 15.0111 0.773985 16.9621 2.14469 18.4388L0.241436 19.8964C-0.224299 20.2531 0.029015 21.0001 0.6155 21.0001C8.37335 21 8.03932 21.0004 8.0595 20.9997C12.4667 20.9778 16.0371 17.405 16.0371 12.9815C16.0371 8.55998 12.44 4.96289 8.01869 4.96289ZM11.7285 16.6278C11.7285 16.9676 11.453 17.243 11.1133 17.243H4.96498C4.62521 17.243 4.34974 16.9676 4.34974 16.6278V11.71C4.34974 11.3702 4.62521 11.0948 4.96498 11.0948H5.57817V10.5C5.57817 9.14306 6.68215 8.03908 8.03912 8.03908C9.39608 8.03908 10.5001 9.14306 10.5001 10.5V11.0948H11.1133C11.453 11.0948 11.7285 11.3702 11.7285 11.71V16.6278Z" fill="white"/>
<path d="M9.26954 10.5C9.26954 9.82152 8.71755 9.26953 8.03907 9.26953C7.36058 9.26953 6.80859 9.82152 6.80859 10.5V11.0947H9.26954V10.5Z" fill="white"/>
</g>
</svg>
