<svg width="24" height="27" viewBox="0 0 24 27" fill="none" xmlns="http://www.w3.org/2000/svg">
<path d="M11.3027 2.60965C11.1101 2.41705 10.8384 2.32493 10.5687 2.36806C10.2999 2.40825 10.0659 2.57406 9.93859 2.81481L4.54241 13.0084L1.60106 15.9494C0.696252 16.855 0.419492 18.1408 0.739377 19.2939C-0.31951 20.6388 -0.244144 22.5912 0.995202 23.8322C1.66428 24.5004 2.54271 24.8345 3.42114 24.8345C4.17144 24.8345 4.91338 24.5754 5.53305 24.0876C5.83409 24.1713 6.14142 24.2283 6.45209 24.2283C7.05376 24.2279 7.65082 24.0591 8.18508 23.7455L10.3941 25.9537C10.8116 26.3716 11.3605 26.5801 11.9094 26.5801C12.4583 26.5801 13.0076 26.3716 13.4255 25.9537C14.2612 25.118 14.2612 23.7581 13.4255 22.9224L11.3031 20.8L11.8185 20.2846L22.0122 14.8875C22.2525 14.7603 22.4183 14.5262 22.4593 14.257C22.4995 13.9882 22.4099 13.7156 22.2173 13.5234L11.3027 2.60965ZM2.20817 22.6192C1.76142 22.172 1.6199 21.5394 1.77021 20.9683L3.85868 23.0568C3.28799 23.2071 2.65534 23.066 2.20817 22.6192ZM5.23996 22.0129L2.81403 19.587C2.14578 18.9188 2.14578 17.8306 2.81403 17.1619L5.23996 14.736L10.091 19.587L7.66506 22.0125C6.99682 22.6816 5.90904 22.682 5.23996 22.0129ZM12.213 24.1349C12.3206 24.2425 12.3369 24.371 12.3369 24.438C12.3369 24.505 12.3206 24.6336 12.2134 24.7408C12.0492 24.9041 11.7716 24.9061 11.6067 24.7412L9.48388 22.6192L10.0906 22.0125L12.213 24.1349ZM11.4618 18.5331L6.29424 13.3647L10.9112 4.64326L20.1841 13.9153L11.4618 18.5331ZM14.5686 3.42862V1.71363C14.5686 1.24009 14.9521 0.85614 15.426 0.85614C15.9 0.85614 16.2835 1.24009 16.2835 1.71363V3.42862C16.2835 3.90217 15.9 4.28611 15.426 4.28611C14.9521 4.28611 14.5686 3.90217 14.5686 3.42862ZM24.001 9.43065C24.001 9.9042 23.6175 10.2881 23.1435 10.2881H21.4285C20.9545 10.2881 20.571 9.9042 20.571 9.43065C20.571 8.95711 20.9545 8.57316 21.4285 8.57316H23.1435C23.6175 8.57316 24.001 8.95711 24.001 9.43065ZM18.2497 6.60696C17.9148 6.272 17.9148 5.72936 18.2497 5.39441L19.9647 3.67942C20.2997 3.34446 20.8423 3.34446 21.1773 3.67942C21.5122 4.01438 21.5122 4.55701 21.1773 4.89197L19.4623 6.60696C19.2948 6.77443 19.0754 6.85817 18.856 6.85817C18.6366 6.85817 18.4172 6.77443 18.2497 6.60696Z" fill="white"/>
</svg>
