<svg width="23" height="24" viewBox="0 0 23 24" fill="none" xmlns="http://www.w3.org/2000/svg">
<g opacity="0.7">
<path d="M21.6295 17.6446L20.1561 15.6117C19.955 15.3353 19.8467 15.0066 19.8459 14.6696V8.83535C19.8459 6.64365 18.9381 4.54172 17.3221 2.99195C15.7062 1.44218 13.5145 0.571533 11.2292 0.571533C8.9439 0.571533 6.75221 1.44218 5.13626 2.99195C3.52032 4.54172 2.61249 6.64365 2.61249 8.83535V14.6696C2.61166 15.0066 2.50342 15.3353 2.30229 15.6117L0.828831 17.6446C0.605728 17.8817 0.459018 18.1756 0.406443 18.491C0.353868 18.8063 0.397681 19.1295 0.532582 19.4215C0.667484 19.7135 0.887697 19.9617 1.16659 20.1362C1.44548 20.3107 1.77111 20.404 2.1041 20.4047H7.00701C7.20477 21.3388 7.73316 22.1785 8.50264 22.7817C9.27212 23.3849 10.2354 23.7144 11.2292 23.7144C12.223 23.7144 13.1863 23.3849 13.9557 22.7817C14.7252 22.1785 15.2536 21.3388 15.4514 20.4047H20.3543C20.6873 20.404 21.0129 20.3107 21.2918 20.1362C21.5707 19.9617 21.7909 19.7135 21.9258 19.4215C22.0607 19.1295 22.1045 18.8063 22.0519 18.491C21.9994 18.1756 21.8526 17.8817 21.6295 17.6446ZM11.2292 22.0575C10.6959 22.056 10.1761 21.8964 9.74103 21.6005C9.306 21.3046 8.97705 20.8869 8.79928 20.4047H13.6591C13.4813 20.8869 13.1524 21.3046 12.7173 21.6005C12.2823 21.8964 11.7625 22.056 11.2292 22.0575ZM2.1041 18.7519C2.14305 18.7173 2.17774 18.6785 2.2075 18.6362L3.71543 16.5538C4.11769 16.0011 4.33416 15.3436 4.33583 14.6696V8.83535C4.33583 7.08199 5.06209 5.40044 6.35485 4.16063C7.6476 2.92082 9.40096 2.2243 11.2292 2.2243C13.0574 2.2243 14.8108 2.92082 16.1035 4.16063C17.3963 5.40044 18.1225 7.08199 18.1225 8.83535V14.6696C18.1242 15.3436 18.3407 16.0011 18.7429 16.5538L20.2509 18.6362C20.2806 18.6785 20.3153 18.7173 20.3543 18.7519H2.1041Z" fill="white"/>
</g>
</svg>
