<svg width="25" height="23" viewBox="0 0 25 23" fill="none" xmlns="http://www.w3.org/2000/svg">
<g opacity="0.7">
<path d="M5.75 23C5.62925 23 5.50768 22.9729 5.3935 22.9187C5.11011 22.7815 4.92857 22.4948 4.92857 22.1786V18.0714H2.46429C1.10564 18.0714 0 16.9658 0 15.6071V2.46429C0 1.10564 1.10564 0 2.46429 0H22.1786C23.5372 0 24.6429 1.10564 24.6429 2.46429V15.6071C24.6429 16.9658 23.5372 18.0714 22.1786 18.0714H12.199L6.26339 22.8201C6.11471 22.9392 5.93318 23 5.75 23ZM2.46429 1.64286C2.01086 1.64286 1.64286 2.01168 1.64286 2.46429V15.6071C1.64286 16.0597 2.01086 16.4286 2.46429 16.4286H5.75C6.20425 16.4286 6.57143 16.7957 6.57143 17.25V20.47L11.3973 16.6085C11.5435 16.4918 11.7234 16.4286 11.9107 16.4286H22.1786C22.632 16.4286 23 16.0597 23 15.6071V2.46429C23 2.01168 22.632 1.64286 22.1786 1.64286H2.46429Z" fill="white"/>
<path d="M18.892 8.21415H5.74916C5.29491 8.21415 4.92773 7.84615 4.92773 7.39272C4.92773 6.93929 5.29491 6.57129 5.74916 6.57129H18.892C19.3463 6.57129 19.7134 6.93929 19.7134 7.39272C19.7134 7.84615 19.3463 8.21415 18.892 8.21415Z" fill="white"/>
<path d="M12.3206 11.5003H5.74916C5.29491 11.5003 4.92773 11.1323 4.92773 10.6789C4.92773 10.2254 5.29491 9.85742 5.74916 9.85742H12.3206C12.7748 9.85742 13.142 10.2254 13.142 10.6789C13.142 11.1323 12.7748 11.5003 12.3206 11.5003Z" fill="white"/>
</g>
</svg>
