<svg width="18" height="24" viewBox="0 0 18 24" fill="none" xmlns="http://www.w3.org/2000/svg">
<path d="M16.8 24C16.64 24 16.48 23.95 16.34 23.855L8.8 18.575L1.26 23.855C1.015 24.025 0.695 24.045 0.43 23.91C0.165 23.77 0 23.5 0 23.2V0.8C0 0.36 0.36 0 0.8 0H16.8C17.24 0 17.6 0.36 17.6 0.8V23.2C17.6 23.5 17.435 23.77 17.17 23.91C17.055 23.97 16.925 24 16.8 24ZM8.8 16.8C8.96 16.8 9.12 16.85 9.26 16.945L16 21.665V1.6H1.6V21.665L8.34 16.945C8.48 16.85 8.64 16.8 8.8 16.8Z" fill="white"/>
<path d="M11.9205 15.2998C11.7955 15.2998 11.6655 15.2698 11.5505 15.2098L8.80051 13.7648L6.05051 15.2098C5.78051 15.3498 5.45551 15.3298 5.21051 15.1498C4.96551 14.9698 4.84051 14.6698 4.89051 14.3698L5.41551 11.3098L3.19051 9.1448C2.97051 8.9298 2.89551 8.6148 2.98551 8.3248C3.07551 8.0348 3.33051 7.8248 3.63051 7.7798L6.70551 7.3348L8.08051 4.5498C8.21551 4.2748 8.49551 4.1048 8.79551 4.1048C9.09551 4.1048 9.37551 4.2798 9.51051 4.5498L10.8855 7.3348L13.9605 7.7798C14.2605 7.8248 14.5105 8.0348 14.6055 8.3248C14.7005 8.6148 14.6205 8.9348 14.4005 9.1448L12.1755 11.3098L12.7005 14.3698C12.7505 14.6698 12.6305 14.9748 12.3805 15.1498C12.2505 15.2498 12.0855 15.2998 11.9205 15.2998ZM8.80051 12.0598C8.93051 12.0598 9.05551 12.0898 9.17051 12.1498L10.8555 13.0348L10.5355 11.1598C10.4905 10.8998 10.5755 10.6348 10.7655 10.4498L12.1305 9.1198L10.2455 8.8448C9.98551 8.8048 9.76051 8.6448 9.64551 8.4098L8.80051 6.7048L7.95551 8.4148C7.84051 8.6498 7.61551 8.8148 7.35551 8.8498L5.47051 9.1248L6.83551 10.4548C7.02551 10.6398 7.11051 10.9048 7.06551 11.1648L6.74551 13.0398L8.43051 12.1548C8.54551 12.0898 8.67051 12.0598 8.80051 12.0598Z" fill="white"/>
</svg>
