<svg width="437" height="429" viewBox="0 0 437 429" fill="none" xmlns="http://www.w3.org/2000/svg">
<rect x="2" y="2" width="433" height="425" rx="6" stroke="url(#paint0_linear_15_39)" stroke-width="4"/>
<rect x="222.062" y="10" width="203.73" height="200" rx="8" fill="white"/>
<rect x="222.062" y="219" width="203.73" height="200" rx="8" fill="white"/>
<rect x="11.2031" y="10" width="203.73" height="200" rx="8" fill="white"/>
<ellipse cx="113.071" cy="92" rx="44.8205" ry="44" fill="#EC1F26"/>
<ellipse cx="323.93" cy="79" rx="44.8205" ry="44" fill="#EC1F26"/>
<rect x="11.2031" y="219" width="203.73" height="200" rx="8" fill="white"/>
<path d="M102.952 77.314V66.82H121.234V115H109.486V77.314H102.952Z" fill="white"/>
<path d="M307.654 92.958C309.15 91.77 309.832 91.22 309.7 91.308C314.012 87.744 317.4 84.818 319.864 82.53C322.372 80.242 324.484 77.844 326.2 75.336C327.916 72.828 328.774 70.386 328.774 68.01C328.774 66.206 328.356 64.798 327.52 63.786C326.684 62.774 325.43 62.268 323.758 62.268C322.086 62.268 320.766 62.906 319.798 64.182C318.874 65.414 318.412 67.174 318.412 69.462H307.522C307.61 65.722 308.402 62.598 309.898 60.09C311.438 57.582 313.44 55.734 315.904 54.546C318.412 53.358 321.184 52.764 324.22 52.764C329.456 52.764 333.394 54.106 336.034 56.79C338.718 59.474 340.06 62.972 340.06 67.284C340.06 71.992 338.454 76.37 335.242 80.418C332.03 84.422 327.938 88.338 322.966 92.166H340.786V101.34H307.654V92.958Z" fill="white"/>
<path d="M58.8581 161.126C58.8581 162.17 58.4981 163.04 57.7781 163.736C57.0701 164.42 55.9841 164.762 54.5201 164.762H52.1081V170H50.4701V157.454H54.5201C55.9361 157.454 57.0101 157.796 57.7421 158.48C58.4861 159.164 58.8581 160.046 58.8581 161.126ZM54.5201 163.412C55.4321 163.412 56.1041 163.214 56.5361 162.818C56.9681 162.422 57.1841 161.858 57.1841 161.126C57.1841 159.578 56.2961 158.804 54.5201 158.804H52.1081V163.412H54.5201ZM65.1959 170.162C64.2719 170.162 63.4319 169.952 62.6759 169.532C61.9319 169.112 61.3439 168.518 60.9119 167.75C60.4919 166.97 60.2819 166.07 60.2819 165.05C60.2819 164.042 60.4979 163.154 60.9299 162.386C61.3739 161.606 61.9739 161.012 62.7299 160.604C63.4859 160.184 64.3319 159.974 65.2679 159.974C66.2039 159.974 67.0499 160.184 67.8059 160.604C68.5619 161.012 69.1559 161.6 69.5879 162.368C70.0319 163.136 70.2539 164.03 70.2539 165.05C70.2539 166.07 70.0259 166.97 69.5699 167.75C69.1259 168.518 68.5199 169.112 67.7519 169.532C66.9839 169.952 66.1319 170.162 65.1959 170.162ZM65.1959 168.722C65.7839 168.722 66.3359 168.584 66.8519 168.308C67.3679 168.032 67.7819 167.618 68.0939 167.066C68.4179 166.514 68.5799 165.842 68.5799 165.05C68.5799 164.258 68.4239 163.586 68.1119 163.034C67.7999 162.482 67.3919 162.074 66.8879 161.81C66.3839 161.534 65.8379 161.396 65.2499 161.396C64.6499 161.396 64.0979 161.534 63.5939 161.81C63.1019 162.074 62.7059 162.482 62.4059 163.034C62.1059 163.586 61.9559 164.258 61.9559 165.05C61.9559 165.854 62.0999 166.532 62.3879 167.084C62.6879 167.636 63.0839 168.05 63.5759 168.326C64.0679 168.59 64.6079 168.722 65.1959 168.722ZM75.8996 170.162C75.1436 170.162 74.4656 170.036 73.8656 169.784C73.2656 169.52 72.7916 169.16 72.4436 168.704C72.0956 168.236 71.9036 167.702 71.8676 167.102H73.5596C73.6076 167.594 73.8356 167.996 74.2436 168.308C74.6636 168.62 75.2096 168.776 75.8816 168.776C76.5056 168.776 76.9976 168.638 77.3576 168.362C77.7176 168.086 77.8976 167.738 77.8976 167.318C77.8976 166.886 77.7056 166.568 77.3216 166.364C76.9376 166.148 76.3436 165.938 75.5396 165.734C74.8076 165.542 74.2076 165.35 73.7396 165.158C73.2836 164.954 72.8876 164.66 72.5516 164.276C72.2276 163.88 72.0656 163.364 72.0656 162.728C72.0656 162.224 72.2156 161.762 72.5156 161.342C72.8156 160.922 73.2416 160.592 73.7936 160.352C74.3456 160.1 74.9756 159.974 75.6836 159.974C76.7756 159.974 77.6576 160.25 78.3296 160.802C79.0016 161.354 79.3616 162.11 79.4096 163.07H77.7716C77.7356 162.554 77.5256 162.14 77.1416 161.828C76.7696 161.516 76.2656 161.36 75.6296 161.36C75.0416 161.36 74.5736 161.486 74.2256 161.738C73.8776 161.99 73.7036 162.32 73.7036 162.728C73.7036 163.052 73.8056 163.322 74.0096 163.538C74.2256 163.742 74.4896 163.91 74.8016 164.042C75.1256 164.162 75.5696 164.3 76.1336 164.456C76.8416 164.648 77.4176 164.84 77.8616 165.032C78.3056 165.212 78.6836 165.488 78.9956 165.86C79.3196 166.232 79.4876 166.718 79.4996 167.318C79.4996 167.858 79.3496 168.344 79.0496 168.776C78.7496 169.208 78.3236 169.55 77.7716 169.802C77.2316 170.042 76.6076 170.162 75.8996 170.162ZM83.8099 161.486V167.3C83.8099 167.78 83.9119 168.122 84.1159 168.326C84.3199 168.518 84.6739 168.614 85.1779 168.614H86.3839V170H84.9079C83.9959 170 83.3119 169.79 82.8559 169.37C82.3999 168.95 82.1719 168.26 82.1719 167.3V161.486H80.8939V160.136H82.1719V157.652H83.8099V160.136H86.3839V161.486H83.8099ZM97.3542 165.032C97.3542 164.024 97.5582 163.142 97.9662 162.386C98.3742 161.618 98.9322 161.024 99.6402 160.604C100.36 160.184 101.158 159.974 102.034 159.974C102.898 159.974 103.648 160.16 104.284 160.532C104.92 160.904 105.394 161.372 105.706 161.936V160.136H107.362V170H105.706V168.164C105.382 168.74 104.896 169.22 104.248 169.604C103.612 169.976 102.868 170.162 102.016 170.162C101.14 170.162 100.348 169.946 99.6402 169.514C98.9322 169.082 98.3742 168.476 97.9662 167.696C97.5582 166.916 97.3542 166.028 97.3542 165.032ZM105.706 165.05C105.706 164.306 105.556 163.658 105.256 163.106C104.956 162.554 104.548 162.134 104.032 161.846C103.528 161.546 102.97 161.396 102.358 161.396C101.746 161.396 101.188 161.54 100.684 161.828C100.18 162.116 99.7782 162.536 99.4782 163.088C99.1782 163.64 99.0282 164.288 99.0282 165.032C99.0282 165.788 99.1782 166.448 99.4782 167.012C99.7782 167.564 100.18 167.99 100.684 168.29C101.188 168.578 101.746 168.722 102.358 168.722C102.97 168.722 103.528 168.578 104.032 168.29C104.548 167.99 104.956 167.564 105.256 167.012C105.556 166.448 105.706 165.794 105.706 165.05ZM116.567 161.954C116.891 161.39 117.371 160.922 118.007 160.55C118.655 160.166 119.405 159.974 120.257 159.974C121.133 159.974 121.925 160.184 122.633 160.604C123.353 161.024 123.917 161.618 124.325 162.386C124.733 163.142 124.937 164.024 124.937 165.032C124.937 166.028 124.733 166.916 124.325 167.696C123.917 168.476 123.353 169.082 122.633 169.514C121.925 169.946 121.133 170.162 120.257 170.162C119.417 170.162 118.673 169.976 118.025 169.604C117.389 169.22 116.903 168.746 116.567 168.182V174.68H114.929V160.136H116.567V161.954ZM123.263 165.032C123.263 164.288 123.113 163.64 122.813 163.088C122.513 162.536 122.105 162.116 121.589 161.828C121.085 161.54 120.527 161.396 119.915 161.396C119.315 161.396 118.757 161.546 118.241 161.846C117.737 162.134 117.329 162.56 117.017 163.124C116.717 163.676 116.567 164.318 116.567 165.05C116.567 165.794 116.717 166.448 117.017 167.012C117.329 167.564 117.737 167.99 118.241 168.29C118.757 168.578 119.315 168.722 119.915 168.722C120.527 168.722 121.085 168.578 121.589 168.29C122.105 167.99 122.513 167.564 122.813 167.012C123.113 166.448 123.263 165.788 123.263 165.032ZM128.731 161.738C129.019 161.174 129.427 160.736 129.955 160.424C130.495 160.112 131.149 159.956 131.917 159.956V161.648H131.485C129.649 161.648 128.731 162.644 128.731 164.636V170H127.093V160.136H128.731V161.738ZM138.11 170.162C137.186 170.162 136.346 169.952 135.59 169.532C134.846 169.112 134.258 168.518 133.826 167.75C133.406 166.97 133.196 166.07 133.196 165.05C133.196 164.042 133.412 163.154 133.844 162.386C134.288 161.606 134.888 161.012 135.644 160.604C136.4 160.184 137.246 159.974 138.182 159.974C139.118 159.974 139.964 160.184 140.72 160.604C141.476 161.012 142.07 161.6 142.502 162.368C142.946 163.136 143.168 164.03 143.168 165.05C143.168 166.07 142.94 166.97 142.484 167.75C142.04 168.518 141.434 169.112 140.666 169.532C139.898 169.952 139.046 170.162 138.11 170.162ZM138.11 168.722C138.698 168.722 139.25 168.584 139.766 168.308C140.282 168.032 140.696 167.618 141.008 167.066C141.332 166.514 141.494 165.842 141.494 165.05C141.494 164.258 141.338 163.586 141.026 163.034C140.714 162.482 140.306 162.074 139.802 161.81C139.298 161.534 138.752 161.396 138.164 161.396C137.564 161.396 137.012 161.534 136.508 161.81C136.016 162.074 135.62 162.482 135.32 163.034C135.02 163.586 134.87 164.258 134.87 165.05C134.87 165.854 135.014 166.532 135.302 167.084C135.602 167.636 135.998 168.05 136.49 168.326C136.982 168.59 137.522 168.722 138.11 168.722ZM146.204 158.534C145.892 158.534 145.628 158.426 145.412 158.21C145.208 157.994 145.106 157.73 145.106 157.418C145.106 157.106 145.208 156.842 145.412 156.626C145.628 156.41 145.892 156.302 146.204 156.302C146.516 156.302 146.774 156.41 146.978 156.626C147.194 156.842 147.302 157.106 147.302 157.418C147.302 157.73 147.194 157.994 146.978 158.21C146.774 158.426 146.516 158.534 146.204 158.534ZM147.014 172.142C147.014 173.018 146.792 173.66 146.348 174.068C145.904 174.476 145.256 174.68 144.404 174.68H143.45V173.294H144.134C144.59 173.294 144.908 173.204 145.088 173.024C145.28 172.844 145.376 172.538 145.376 172.106V160.136H147.014V172.142ZM158.787 164.69C158.787 165.002 158.769 165.332 158.733 165.68H150.849C150.909 166.652 151.239 167.414 151.839 167.966C152.451 168.506 153.189 168.776 154.053 168.776C154.761 168.776 155.349 168.614 155.817 168.29C156.297 167.954 156.633 167.51 156.825 166.958H158.589C158.325 167.906 157.797 168.68 157.005 169.28C156.213 169.868 155.229 170.162 154.053 170.162C153.117 170.162 152.277 169.952 151.533 169.532C150.801 169.112 150.225 168.518 149.805 167.75C149.385 166.97 149.175 166.07 149.175 165.05C149.175 164.03 149.379 163.136 149.787 162.368C150.195 161.6 150.765 161.012 151.497 160.604C152.241 160.184 153.093 159.974 154.053 159.974C154.989 159.974 155.817 160.178 156.537 160.586C157.257 160.994 157.809 161.558 158.193 162.278C158.589 162.986 158.787 163.79 158.787 164.69ZM157.095 164.348C157.095 163.724 156.957 163.19 156.681 162.746C156.405 162.29 156.027 161.948 155.547 161.72C155.079 161.48 154.557 161.36 153.981 161.36C153.153 161.36 152.445 161.624 151.857 162.152C151.281 162.68 150.951 163.412 150.867 164.348H157.095ZM160.337 165.05C160.337 164.03 160.541 163.142 160.949 162.386C161.357 161.618 161.921 161.024 162.641 160.604C163.373 160.184 164.207 159.974 165.143 159.974C166.355 159.974 167.351 160.268 168.131 160.856C168.923 161.444 169.445 162.26 169.697 163.304H167.933C167.765 162.704 167.435 162.23 166.943 161.882C166.463 161.534 165.863 161.36 165.143 161.36C164.207 161.36 163.451 161.684 162.875 162.332C162.299 162.968 162.011 163.874 162.011 165.05C162.011 166.238 162.299 167.156 162.875 167.804C163.451 168.452 164.207 168.776 165.143 168.776C165.863 168.776 166.463 168.608 166.943 168.272C167.423 167.936 167.753 167.456 167.933 166.832H169.697C169.433 167.84 168.905 168.65 168.113 169.262C167.321 169.862 166.331 170.162 165.143 170.162C164.207 170.162 163.373 169.952 162.641 169.532C161.921 169.112 161.357 168.518 160.949 167.75C160.541 166.982 160.337 166.082 160.337 165.05ZM173.88 161.486V167.3C173.88 167.78 173.982 168.122 174.186 168.326C174.39 168.518 174.744 168.614 175.248 168.614H176.454V170H174.978C174.066 170 173.382 169.79 172.926 169.37C172.47 168.95 172.242 168.26 172.242 167.3V161.486H170.964V160.136H172.242V157.652H173.88V160.136H176.454V161.486H173.88Z" fill="#EC1F26"/>
<path d="M266.998 157L264.01 151.87H262.03V157H260.392V144.454H264.442C265.39 144.454 266.188 144.616 266.836 144.94C267.496 145.264 267.988 145.702 268.312 146.254C268.636 146.806 268.798 147.436 268.798 148.144C268.798 149.008 268.546 149.77 268.042 150.43C267.55 151.09 266.806 151.528 265.81 151.744L268.96 157H266.998ZM262.03 150.556H264.442C265.33 150.556 265.996 150.34 266.44 149.908C266.884 149.464 267.106 148.876 267.106 148.144C267.106 147.4 266.884 146.824 266.44 146.416C266.008 146.008 265.342 145.804 264.442 145.804H262.03V150.556ZM280.343 151.69C280.343 152.002 280.325 152.332 280.289 152.68H272.405C272.465 153.652 272.795 154.414 273.395 154.966C274.007 155.506 274.745 155.776 275.609 155.776C276.317 155.776 276.905 155.614 277.373 155.29C277.853 154.954 278.189 154.51 278.381 153.958H280.145C279.881 154.906 279.353 155.68 278.561 156.28C277.769 156.868 276.785 157.162 275.609 157.162C274.673 157.162 273.833 156.952 273.089 156.532C272.357 156.112 271.781 155.518 271.361 154.75C270.941 153.97 270.731 153.07 270.731 152.05C270.731 151.03 270.935 150.136 271.343 149.368C271.751 148.6 272.321 148.012 273.053 147.604C273.797 147.184 274.649 146.974 275.609 146.974C276.545 146.974 277.373 147.178 278.093 147.586C278.813 147.994 279.365 148.558 279.749 149.278C280.145 149.986 280.343 150.79 280.343 151.69ZM278.651 151.348C278.651 150.724 278.513 150.19 278.237 149.746C277.961 149.29 277.583 148.948 277.103 148.72C276.635 148.48 276.113 148.36 275.537 148.36C274.709 148.36 274.001 148.624 273.413 149.152C272.837 149.68 272.507 150.412 272.423 151.348H278.651ZM286.177 155.488L289.237 147.136H290.983L287.113 157H285.205L281.335 147.136H283.099L286.177 155.488ZM293.441 145.534C293.129 145.534 292.865 145.426 292.649 145.21C292.433 144.994 292.325 144.73 292.325 144.418C292.325 144.106 292.433 143.842 292.649 143.626C292.865 143.41 293.129 143.302 293.441 143.302C293.741 143.302 293.993 143.41 294.197 143.626C294.413 143.842 294.521 144.106 294.521 144.418C294.521 144.73 294.413 144.994 294.197 145.21C293.993 145.426 293.741 145.534 293.441 145.534ZM294.233 147.136V157H292.595V147.136H294.233ZM306.024 151.69C306.024 152.002 306.006 152.332 305.97 152.68H298.086C298.146 153.652 298.476 154.414 299.076 154.966C299.688 155.506 300.426 155.776 301.29 155.776C301.998 155.776 302.586 155.614 303.054 155.29C303.534 154.954 303.87 154.51 304.062 153.958H305.826C305.562 154.906 305.034 155.68 304.242 156.28C303.45 156.868 302.466 157.162 301.29 157.162C300.354 157.162 299.514 156.952 298.77 156.532C298.038 156.112 297.462 155.518 297.042 154.75C296.622 153.97 296.412 153.07 296.412 152.05C296.412 151.03 296.616 150.136 297.024 149.368C297.432 148.6 298.002 148.012 298.734 147.604C299.478 147.184 300.33 146.974 301.29 146.974C302.226 146.974 303.054 147.178 303.774 147.586C304.494 147.994 305.046 148.558 305.43 149.278C305.826 149.986 306.024 150.79 306.024 151.69ZM304.332 151.348C304.332 150.724 304.194 150.19 303.918 149.746C303.642 149.29 303.264 148.948 302.784 148.72C302.316 148.48 301.794 148.36 301.218 148.36C300.39 148.36 299.682 148.624 299.094 149.152C298.518 149.68 298.188 150.412 298.104 151.348H304.332ZM321.327 147.136L318.249 157H316.557L314.181 149.17L311.805 157H310.113L307.017 147.136H308.691L310.959 155.416L313.407 147.136H315.081L317.475 155.434L319.707 147.136H321.327ZM329.389 148.954C329.713 148.39 330.193 147.922 330.829 147.55C331.477 147.166 332.227 146.974 333.079 146.974C333.955 146.974 334.747 147.184 335.455 147.604C336.175 148.024 336.739 148.618 337.147 149.386C337.555 150.142 337.759 151.024 337.759 152.032C337.759 153.028 337.555 153.916 337.147 154.696C336.739 155.476 336.175 156.082 335.455 156.514C334.747 156.946 333.955 157.162 333.079 157.162C332.239 157.162 331.495 156.976 330.847 156.604C330.211 156.22 329.725 155.746 329.389 155.182V161.68H327.751V147.136H329.389V148.954ZM336.085 152.032C336.085 151.288 335.935 150.64 335.635 150.088C335.335 149.536 334.927 149.116 334.411 148.828C333.907 148.54 333.349 148.396 332.737 148.396C332.137 148.396 331.579 148.546 331.063 148.846C330.559 149.134 330.151 149.56 329.839 150.124C329.539 150.676 329.389 151.318 329.389 152.05C329.389 152.794 329.539 153.448 329.839 154.012C330.151 154.564 330.559 154.99 331.063 155.29C331.579 155.578 332.137 155.722 332.737 155.722C333.349 155.722 333.907 155.578 334.411 155.29C334.927 154.99 335.335 154.564 335.635 154.012C335.935 153.448 336.085 152.788 336.085 152.032ZM341.553 148.738C341.841 148.174 342.249 147.736 342.777 147.424C343.317 147.112 343.971 146.956 344.739 146.956V148.648H344.307C342.471 148.648 341.553 149.644 341.553 151.636V157H339.915V147.136H341.553V148.738ZM350.932 157.162C350.008 157.162 349.168 156.952 348.412 156.532C347.668 156.112 347.08 155.518 346.648 154.75C346.228 153.97 346.018 153.07 346.018 152.05C346.018 151.042 346.234 150.154 346.666 149.386C347.11 148.606 347.71 148.012 348.466 147.604C349.222 147.184 350.068 146.974 351.004 146.974C351.94 146.974 352.786 147.184 353.542 147.604C354.298 148.012 354.892 148.6 355.324 149.368C355.768 150.136 355.99 151.03 355.99 152.05C355.99 153.07 355.762 153.97 355.306 154.75C354.862 155.518 354.256 156.112 353.488 156.532C352.72 156.952 351.868 157.162 350.932 157.162ZM350.932 155.722C351.52 155.722 352.072 155.584 352.588 155.308C353.104 155.032 353.518 154.618 353.83 154.066C354.154 153.514 354.316 152.842 354.316 152.05C354.316 151.258 354.16 150.586 353.848 150.034C353.536 149.482 353.128 149.074 352.624 148.81C352.12 148.534 351.574 148.396 350.986 148.396C350.386 148.396 349.834 148.534 349.33 148.81C348.838 149.074 348.442 149.482 348.142 150.034C347.842 150.586 347.692 151.258 347.692 152.05C347.692 152.854 347.836 153.532 348.124 154.084C348.424 154.636 348.82 155.05 349.312 155.326C349.804 155.59 350.344 155.722 350.932 155.722ZM359.026 145.534C358.714 145.534 358.45 145.426 358.234 145.21C358.03 144.994 357.928 144.73 357.928 144.418C357.928 144.106 358.03 143.842 358.234 143.626C358.45 143.41 358.714 143.302 359.026 143.302C359.338 143.302 359.596 143.41 359.8 143.626C360.016 143.842 360.124 144.106 360.124 144.418C360.124 144.73 360.016 144.994 359.8 145.21C359.596 145.426 359.338 145.534 359.026 145.534ZM359.836 159.142C359.836 160.018 359.614 160.66 359.17 161.068C358.726 161.476 358.078 161.68 357.226 161.68H356.272V160.294H356.956C357.412 160.294 357.73 160.204 357.91 160.024C358.102 159.844 358.198 159.538 358.198 159.106V147.136H359.836V159.142ZM371.608 151.69C371.608 152.002 371.59 152.332 371.554 152.68H363.67C363.73 153.652 364.06 154.414 364.66 154.966C365.272 155.506 366.01 155.776 366.874 155.776C367.582 155.776 368.17 155.614 368.638 155.29C369.118 154.954 369.454 154.51 369.646 153.958H371.41C371.146 154.906 370.618 155.68 369.826 156.28C369.034 156.868 368.05 157.162 366.874 157.162C365.938 157.162 365.098 156.952 364.354 156.532C363.622 156.112 363.046 155.518 362.626 154.75C362.206 153.97 361.996 153.07 361.996 152.05C361.996 151.03 362.2 150.136 362.608 149.368C363.016 148.6 363.586 148.012 364.318 147.604C365.062 147.184 365.914 146.974 366.874 146.974C367.81 146.974 368.638 147.178 369.358 147.586C370.078 147.994 370.63 148.558 371.014 149.278C371.41 149.986 371.608 150.79 371.608 151.69ZM369.916 151.348C369.916 150.724 369.778 150.19 369.502 149.746C369.226 149.29 368.848 148.948 368.368 148.72C367.9 148.48 367.378 148.36 366.802 148.36C365.974 148.36 365.266 148.624 364.678 149.152C364.102 149.68 363.772 150.412 363.688 151.348H369.916ZM373.159 152.05C373.159 151.03 373.363 150.142 373.771 149.386C374.179 148.618 374.743 148.024 375.463 147.604C376.195 147.184 377.029 146.974 377.965 146.974C379.177 146.974 380.173 147.268 380.953 147.856C381.745 148.444 382.267 149.26 382.519 150.304H380.755C380.587 149.704 380.257 149.23 379.765 148.882C379.285 148.534 378.685 148.36 377.965 148.36C377.029 148.36 376.273 148.684 375.697 149.332C375.121 149.968 374.833 150.874 374.833 152.05C374.833 153.238 375.121 154.156 375.697 154.804C376.273 155.452 377.029 155.776 377.965 155.776C378.685 155.776 379.285 155.608 379.765 155.272C380.245 154.936 380.575 154.456 380.755 153.832H382.519C382.255 154.84 381.727 155.65 380.935 156.262C380.143 156.862 379.153 157.162 377.965 157.162C377.029 157.162 376.195 156.952 375.463 156.532C374.743 156.112 374.179 155.518 373.771 154.75C373.363 153.982 373.159 153.082 373.159 152.05ZM386.702 148.486V154.3C386.702 154.78 386.804 155.122 387.008 155.326C387.212 155.518 387.566 155.614 388.07 155.614H389.276V157H387.8C386.888 157 386.204 156.79 385.748 156.37C385.292 155.95 385.064 155.26 385.064 154.3V148.486H383.786V147.136H385.064V144.652H386.702V147.136H389.276V148.486H386.702ZM307.255 174.136L304.177 184H302.485L300.109 176.17L297.733 184H296.041L292.945 174.136H294.619L296.887 182.416L299.335 174.136H301.009L303.403 182.434L305.635 174.136H307.255ZM315.001 167.044L310.069 187.06H308.449L313.363 167.044H315.001ZM326.218 184.126C325.39 184.126 324.646 183.982 323.986 183.694C323.338 183.394 322.828 182.986 322.456 182.47C322.084 181.942 321.892 181.336 321.88 180.652H323.626C323.686 181.24 323.926 181.738 324.346 182.146C324.778 182.542 325.402 182.74 326.218 182.74C326.998 182.74 327.61 182.548 328.054 182.164C328.51 181.768 328.738 181.264 328.738 180.652C328.738 180.172 328.606 179.782 328.342 179.482C328.078 179.182 327.748 178.954 327.352 178.798C326.956 178.642 326.422 178.474 325.75 178.294C324.922 178.078 324.256 177.862 323.752 177.646C323.26 177.43 322.834 177.094 322.474 176.638C322.126 176.17 321.952 175.546 321.952 174.766C321.952 174.082 322.126 173.476 322.474 172.948C322.822 172.42 323.308 172.012 323.932 171.724C324.568 171.436 325.294 171.292 326.11 171.292C327.286 171.292 328.246 171.586 328.99 172.174C329.746 172.762 330.172 173.542 330.268 174.514H328.468C328.408 174.034 328.156 173.614 327.712 173.254C327.268 172.882 326.68 172.696 325.948 172.696C325.264 172.696 324.706 172.876 324.274 173.236C323.842 173.584 323.626 174.076 323.626 174.712C323.626 175.168 323.752 175.54 324.004 175.828C324.268 176.116 324.586 176.338 324.958 176.494C325.342 176.638 325.876 176.806 326.56 176.998C327.388 177.226 328.054 177.454 328.558 177.682C329.062 177.898 329.494 178.24 329.854 178.708C330.214 179.164 330.394 179.788 330.394 180.58C330.394 181.192 330.232 181.768 329.908 182.308C329.584 182.848 329.104 183.286 328.468 183.622C327.832 183.958 327.082 184.126 326.218 184.126ZM345.531 171.544V184H343.893V174.712L339.753 184H338.601L334.443 174.694V184H332.805V171.544H334.569L339.177 181.84L343.785 171.544H345.531ZM349.947 172.786V176.98H354.519V178.33H349.947V182.65H355.059V184H348.309V171.436H355.059V172.786H349.947Z" fill="#EC1F26"/>
<ellipse cx="112.055" cy="288" rx="44.8205" ry="44" fill="#EC1F26"/>
<ellipse cx="323.93" cy="288" rx="44.8205" ry="44" fill="#EC1F26"/>
<path d="M95.4304 276.416C95.6064 271.708 97.1464 268.078 100.05 265.526C102.954 262.974 106.892 261.698 111.864 261.698C115.164 261.698 117.98 262.27 120.312 263.414C122.688 264.558 124.47 266.12 125.658 268.1C126.89 270.08 127.506 272.302 127.506 274.766C127.506 277.67 126.78 280.046 125.328 281.894C123.876 283.698 122.182 284.93 120.246 285.59V285.854C122.754 286.69 124.734 288.076 126.186 290.012C127.638 291.948 128.364 294.434 128.364 297.47C128.364 300.198 127.726 302.618 126.45 304.73C125.218 306.798 123.392 308.426 120.972 309.614C118.596 310.802 115.758 311.396 112.458 311.396C107.178 311.396 102.954 310.098 99.7864 307.502C96.6624 304.906 95.0124 300.99 94.8364 295.754H105.792C105.836 297.69 106.386 299.23 107.442 300.374C108.498 301.474 110.038 302.024 112.062 302.024C113.778 302.024 115.098 301.54 116.022 300.572C116.99 299.56 117.474 298.24 117.474 296.612C117.474 294.5 116.792 292.982 115.428 292.058C114.108 291.09 111.974 290.606 109.026 290.606H106.914V281.432H109.026C111.27 281.432 113.074 281.058 114.438 280.31C115.846 279.518 116.55 278.132 116.55 276.152C116.55 274.568 116.11 273.336 115.23 272.456C114.35 271.576 113.14 271.136 111.6 271.136C109.928 271.136 108.674 271.642 107.838 272.654C107.046 273.666 106.584 274.92 106.452 276.416H95.4304Z" fill="white"/>
<path d="M305.336 302.42V293.312L326.192 263.48H338.798V292.652H344.21V302.42H338.798V311H327.512V302.42H305.336ZM328.304 275.888L317.216 292.652H328.304V275.888Z" fill="white"/>
<path d="M77.308 353.544V366H75.67V356.712L71.53 366H70.378L66.22 356.694V366H64.582V353.544H66.346L70.954 363.84L75.562 353.544H77.308ZM79.4739 361.032C79.4739 360.024 79.6779 359.142 80.0859 358.386C80.4939 357.618 81.0519 357.024 81.7599 356.604C82.4799 356.184 83.2779 355.974 84.1539 355.974C85.0179 355.974 85.7679 356.16 86.4039 356.532C87.0399 356.904 87.5139 357.372 87.8259 357.936V356.136H89.4819V366H87.8259V364.164C87.5019 364.74 87.0159 365.22 86.3679 365.604C85.7319 365.976 84.9879 366.162 84.1359 366.162C83.2599 366.162 82.4679 365.946 81.7599 365.514C81.0519 365.082 80.4939 364.476 80.0859 363.696C79.6779 362.916 79.4739 362.028 79.4739 361.032ZM87.8259 361.05C87.8259 360.306 87.6759 359.658 87.3759 359.106C87.0759 358.554 86.6679 358.134 86.1519 357.846C85.6479 357.546 85.0899 357.396 84.4779 357.396C83.8659 357.396 83.3079 357.54 82.8039 357.828C82.2999 358.116 81.8979 358.536 81.5979 359.088C81.2979 359.64 81.1479 360.288 81.1479 361.032C81.1479 361.788 81.2979 362.448 81.5979 363.012C81.8979 363.564 82.2999 363.99 82.8039 364.29C83.3079 364.578 83.8659 364.722 84.4779 364.722C85.0899 364.722 85.6479 364.578 86.1519 364.29C86.6679 363.99 87.0759 363.564 87.3759 363.012C87.6759 362.448 87.8259 361.794 87.8259 361.05ZM94.248 357.486V363.3C94.248 363.78 94.35 364.122 94.554 364.326C94.758 364.518 95.112 364.614 95.616 364.614H96.822V366H95.346C94.434 366 93.75 365.79 93.294 365.37C92.838 364.95 92.61 364.26 92.61 363.3V357.486H91.332V356.136H92.61V353.652H94.248V356.136H96.822V357.486H94.248ZM98.1946 361.05C98.1946 360.03 98.3986 359.142 98.8066 358.386C99.2146 357.618 99.7786 357.024 100.499 356.604C101.231 356.184 102.065 355.974 103.001 355.974C104.213 355.974 105.209 356.268 105.989 356.856C106.781 357.444 107.303 358.26 107.555 359.304H105.791C105.623 358.704 105.293 358.23 104.801 357.882C104.321 357.534 103.721 357.36 103.001 357.36C102.065 357.36 101.309 357.684 100.733 358.332C100.157 358.968 99.8686 359.874 99.8686 361.05C99.8686 362.238 100.157 363.156 100.733 363.804C101.309 364.452 102.065 364.776 103.001 364.776C103.721 364.776 104.321 364.608 104.801 364.272C105.281 363.936 105.611 363.456 105.791 362.832H107.555C107.291 363.84 106.763 364.65 105.971 365.262C105.179 365.862 104.189 366.162 103.001 366.162C102.065 366.162 101.231 365.952 100.499 365.532C99.7786 365.112 99.2146 364.518 98.8066 363.75C98.3986 362.982 98.1946 362.082 98.1946 361.05ZM114.636 355.956C115.38 355.956 116.052 356.118 116.652 356.442C117.252 356.754 117.72 357.228 118.056 357.864C118.404 358.5 118.578 359.274 118.578 360.186V366H116.958V360.42C116.958 359.436 116.712 358.686 116.22 358.17C115.728 357.642 115.056 357.378 114.204 357.378C113.34 357.378 112.65 357.648 112.134 358.188C111.63 358.728 111.378 359.514 111.378 360.546V366H109.74V352.68H111.378V357.54C111.702 357.036 112.146 356.646 112.71 356.37C113.286 356.094 113.928 355.956 114.636 355.956ZM139.193 356.136L136.115 366H134.423L132.047 358.17L129.671 366H127.979L124.883 356.136H126.557L128.825 364.416L131.273 356.136H132.947L135.341 364.434L137.573 356.136H139.193ZM141.664 354.534C141.352 354.534 141.088 354.426 140.872 354.21C140.656 353.994 140.548 353.73 140.548 353.418C140.548 353.106 140.656 352.842 140.872 352.626C141.088 352.41 141.352 352.302 141.664 352.302C141.964 352.302 142.216 352.41 142.42 352.626C142.636 352.842 142.744 353.106 142.744 353.418C142.744 353.73 142.636 353.994 142.42 354.21C142.216 354.426 141.964 354.534 141.664 354.534ZM142.456 356.136V366H140.818V356.136H142.456ZM147.246 357.486V363.3C147.246 363.78 147.348 364.122 147.552 364.326C147.756 364.518 148.11 364.614 148.614 364.614H149.82V366H148.344C147.432 366 146.748 365.79 146.292 365.37C145.836 364.95 145.608 364.26 145.608 363.3V357.486H144.33V356.136H145.608V353.652H147.246V356.136H149.82V357.486H147.246ZM156.701 355.956C157.445 355.956 158.117 356.118 158.717 356.442C159.317 356.754 159.785 357.228 160.121 357.864C160.469 358.5 160.643 359.274 160.643 360.186V366H159.023V360.42C159.023 359.436 158.777 358.686 158.285 358.17C157.793 357.642 157.121 357.378 156.269 357.378C155.405 357.378 154.715 357.648 154.199 358.188C153.695 358.728 153.443 359.514 153.443 360.546V366H151.805V352.68H153.443V357.54C153.767 357.036 154.211 356.646 154.775 356.37C155.351 356.094 155.993 355.956 156.701 355.956ZM38.2971 388.032C38.2971 387.024 38.5011 386.142 38.9091 385.386C39.3171 384.618 39.8751 384.024 40.5831 383.604C41.3031 383.184 42.1071 382.974 42.9951 382.974C43.7631 382.974 44.4771 383.154 45.1371 383.514C45.7971 383.862 46.3011 384.324 46.6491 384.9V379.68H48.3051V393H46.6491V391.146C46.3251 391.734 45.8451 392.22 45.2091 392.604C44.5731 392.976 43.8291 393.162 42.9771 393.162C42.1011 393.162 41.3031 392.946 40.5831 392.514C39.8751 392.082 39.3171 391.476 38.9091 390.696C38.5011 389.916 38.2971 389.028 38.2971 388.032ZM46.6491 388.05C46.6491 387.306 46.4991 386.658 46.1991 386.106C45.8991 385.554 45.4911 385.134 44.9751 384.846C44.4711 384.546 43.9131 384.396 43.3011 384.396C42.6891 384.396 42.1311 384.54 41.6271 384.828C41.1231 385.116 40.7211 385.536 40.4211 386.088C40.1211 386.64 39.9711 387.288 39.9711 388.032C39.9711 388.788 40.1211 389.448 40.4211 390.012C40.7211 390.564 41.1231 390.99 41.6271 391.29C42.1311 391.578 42.6891 391.722 43.3011 391.722C43.9131 391.722 44.4711 391.578 44.9751 391.29C45.4911 390.99 45.8991 390.564 46.1991 390.012C46.4991 389.448 46.6491 388.794 46.6491 388.05ZM60.0732 387.69C60.0732 388.002 60.0552 388.332 60.0192 388.68H52.1352C52.1952 389.652 52.5252 390.414 53.1252 390.966C53.7372 391.506 54.4752 391.776 55.3392 391.776C56.0472 391.776 56.6352 391.614 57.1032 391.29C57.5832 390.954 57.9192 390.51 58.1112 389.958H59.8752C59.6112 390.906 59.0832 391.68 58.2912 392.28C57.4992 392.868 56.5152 393.162 55.3392 393.162C54.4032 393.162 53.5632 392.952 52.8192 392.532C52.0872 392.112 51.5112 391.518 51.0912 390.75C50.6712 389.97 50.4612 389.07 50.4612 388.05C50.4612 387.03 50.6652 386.136 51.0732 385.368C51.4812 384.6 52.0512 384.012 52.7832 383.604C53.5272 383.184 54.3792 382.974 55.3392 382.974C56.2752 382.974 57.1032 383.178 57.8232 383.586C58.5432 383.994 59.0952 384.558 59.4792 385.278C59.8752 385.986 60.0732 386.79 60.0732 387.69ZM58.3812 387.348C58.3812 386.724 58.2432 386.19 57.9672 385.746C57.6912 385.29 57.3132 384.948 56.8332 384.72C56.3652 384.48 55.8432 384.36 55.2672 384.36C54.4392 384.36 53.7312 384.624 53.1432 385.152C52.5672 385.68 52.2372 386.412 52.1532 387.348H58.3812ZM61.6233 388.032C61.6233 387.024 61.8273 386.142 62.2353 385.386C62.6433 384.618 63.2013 384.024 63.9093 383.604C64.6293 383.184 65.4333 382.974 66.3213 382.974C67.0893 382.974 67.8033 383.154 68.4633 383.514C69.1233 383.862 69.6273 384.324 69.9753 384.9V379.68H71.6313V393H69.9753V391.146C69.6513 391.734 69.1713 392.22 68.5353 392.604C67.8993 392.976 67.1553 393.162 66.3033 393.162C65.4273 393.162 64.6293 392.946 63.9093 392.514C63.2013 392.082 62.6433 391.476 62.2353 390.696C61.8273 389.916 61.6233 389.028 61.6233 388.032ZM69.9753 388.05C69.9753 387.306 69.8253 386.658 69.5253 386.106C69.2253 385.554 68.8173 385.134 68.3013 384.846C67.7973 384.546 67.2393 384.396 66.6273 384.396C66.0153 384.396 65.4573 384.54 64.9533 384.828C64.4493 385.116 64.0473 385.536 63.7473 386.088C63.4473 386.64 63.2973 387.288 63.2973 388.032C63.2973 388.788 63.4473 389.448 63.7473 390.012C64.0473 390.564 64.4493 390.99 64.9533 391.29C65.4573 391.578 66.0153 391.722 66.6273 391.722C67.2393 391.722 67.7973 391.578 68.3013 391.29C68.8173 390.99 69.2253 390.564 69.5253 390.012C69.8253 389.448 69.9753 388.794 69.9753 388.05ZM75.2454 381.534C74.9334 381.534 74.6694 381.426 74.4534 381.21C74.2374 380.994 74.1294 380.73 74.1294 380.418C74.1294 380.106 74.2374 379.842 74.4534 379.626C74.6694 379.41 74.9334 379.302 75.2454 379.302C75.5454 379.302 75.7974 379.41 76.0014 379.626C76.2174 379.842 76.3254 380.106 76.3254 380.418C76.3254 380.73 76.2174 380.994 76.0014 381.21C75.7974 381.426 75.5454 381.534 75.2454 381.534ZM76.0374 383.136V393H74.3994V383.136H76.0374ZM78.2171 388.05C78.2171 387.03 78.4211 386.142 78.8291 385.386C79.2371 384.618 79.8011 384.024 80.5211 383.604C81.2531 383.184 82.0871 382.974 83.0231 382.974C84.2351 382.974 85.2311 383.268 86.0111 383.856C86.8031 384.444 87.3251 385.26 87.5771 386.304H85.8131C85.6451 385.704 85.3151 385.23 84.8231 384.882C84.3431 384.534 83.7431 384.36 83.0231 384.36C82.0871 384.36 81.3311 384.684 80.7551 385.332C80.1791 385.968 79.8911 386.874 79.8911 388.05C79.8911 389.238 80.1791 390.156 80.7551 390.804C81.3311 391.452 82.0871 391.776 83.0231 391.776C83.7431 391.776 84.3431 391.608 84.8231 391.272C85.3031 390.936 85.6331 390.456 85.8131 389.832H87.5771C87.3131 390.84 86.7851 391.65 85.9931 392.262C85.2011 392.862 84.2111 393.162 83.0231 393.162C82.0871 393.162 81.2531 392.952 80.5211 392.532C79.8011 392.112 79.2371 391.518 78.8291 390.75C78.4211 389.982 78.2171 389.082 78.2171 388.05ZM89.1506 388.032C89.1506 387.024 89.3546 386.142 89.7626 385.386C90.1706 384.618 90.7286 384.024 91.4366 383.604C92.1566 383.184 92.9546 382.974 93.8306 382.974C94.6946 382.974 95.4446 383.16 96.0806 383.532C96.7166 383.904 97.1906 384.372 97.5026 384.936V383.136H99.1586V393H97.5026V391.164C97.1786 391.74 96.6926 392.22 96.0446 392.604C95.4086 392.976 94.6646 393.162 93.8126 393.162C92.9366 393.162 92.1446 392.946 91.4366 392.514C90.7286 392.082 90.1706 391.476 89.7626 390.696C89.3546 389.916 89.1506 389.028 89.1506 388.032ZM97.5026 388.05C97.5026 387.306 97.3526 386.658 97.0526 386.106C96.7526 385.554 96.3446 385.134 95.8286 384.846C95.3246 384.546 94.7666 384.396 94.1546 384.396C93.5426 384.396 92.9846 384.54 92.4806 384.828C91.9766 385.116 91.5746 385.536 91.2746 386.088C90.9746 386.64 90.8246 387.288 90.8246 388.032C90.8246 388.788 90.9746 389.448 91.2746 390.012C91.5746 390.564 91.9766 390.99 92.4806 391.29C92.9846 391.578 93.5426 391.722 94.1546 391.722C94.7666 391.722 95.3246 391.578 95.8286 391.29C96.3446 390.99 96.7526 390.564 97.0526 390.012C97.3526 389.448 97.5026 388.794 97.5026 388.05ZM103.925 384.486V390.3C103.925 390.78 104.027 391.122 104.231 391.326C104.435 391.518 104.789 391.614 105.293 391.614H106.499V393H105.023C104.111 393 103.427 392.79 102.971 392.37C102.515 391.95 102.287 391.26 102.287 390.3V384.486H101.009V383.136H102.287V380.652H103.925V383.136H106.499V384.486H103.925ZM117.483 387.69C117.483 388.002 117.465 388.332 117.429 388.68H109.545C109.605 389.652 109.935 390.414 110.535 390.966C111.147 391.506 111.885 391.776 112.749 391.776C113.457 391.776 114.045 391.614 114.513 391.29C114.993 390.954 115.329 390.51 115.521 389.958H117.285C117.021 390.906 116.493 391.68 115.701 392.28C114.909 392.868 113.925 393.162 112.749 393.162C111.813 393.162 110.973 392.952 110.229 392.532C109.497 392.112 108.921 391.518 108.501 390.75C108.081 389.97 107.871 389.07 107.871 388.05C107.871 387.03 108.075 386.136 108.483 385.368C108.891 384.6 109.461 384.012 110.193 383.604C110.937 383.184 111.789 382.974 112.749 382.974C113.685 382.974 114.513 383.178 115.233 383.586C115.953 383.994 116.505 384.558 116.889 385.278C117.285 385.986 117.483 386.79 117.483 387.69ZM115.791 387.348C115.791 386.724 115.653 386.19 115.377 385.746C115.101 385.29 114.723 384.948 114.243 384.72C113.775 384.48 113.253 384.36 112.677 384.36C111.849 384.36 111.141 384.624 110.553 385.152C109.977 385.68 109.647 386.412 109.563 387.348H115.791ZM119.033 388.032C119.033 387.024 119.237 386.142 119.645 385.386C120.053 384.618 120.611 384.024 121.319 383.604C122.039 383.184 122.843 382.974 123.731 382.974C124.499 382.974 125.213 383.154 125.873 383.514C126.533 383.862 127.037 384.324 127.385 384.9V379.68H129.041V393H127.385V391.146C127.061 391.734 126.581 392.22 125.945 392.604C125.309 392.976 124.565 393.162 123.713 393.162C122.837 393.162 122.039 392.946 121.319 392.514C120.611 392.082 120.053 391.476 119.645 390.696C119.237 389.916 119.033 389.028 119.033 388.032ZM127.385 388.05C127.385 387.306 127.235 386.658 126.935 386.106C126.635 385.554 126.227 385.134 125.711 384.846C125.207 384.546 124.649 384.396 124.037 384.396C123.425 384.396 122.867 384.54 122.363 384.828C121.859 385.116 121.457 385.536 121.157 386.088C120.857 386.64 120.707 387.288 120.707 388.032C120.707 388.788 120.857 389.448 121.157 390.012C121.457 390.564 121.859 390.99 122.363 391.29C122.867 391.578 123.425 391.722 124.037 391.722C124.649 391.722 125.207 391.578 125.711 391.29C126.227 390.99 126.635 390.564 126.935 390.012C127.235 389.448 127.385 388.794 127.385 388.05ZM138.606 384.486V390.3C138.606 390.78 138.708 391.122 138.912 391.326C139.116 391.518 139.47 391.614 139.974 391.614H141.18V393H139.704C138.792 393 138.108 392.79 137.652 392.37C137.196 391.95 136.968 391.26 136.968 390.3V384.486H135.69V383.136H136.968V380.652H138.606V383.136H141.18V384.486H138.606ZM142.553 388.032C142.553 387.024 142.757 386.142 143.165 385.386C143.573 384.618 144.131 384.024 144.839 383.604C145.559 383.184 146.357 382.974 147.233 382.974C148.097 382.974 148.847 383.16 149.483 383.532C150.119 383.904 150.593 384.372 150.905 384.936V383.136H152.561V393H150.905V391.164C150.581 391.74 150.095 392.22 149.447 392.604C148.811 392.976 148.067 393.162 147.215 393.162C146.339 393.162 145.547 392.946 144.839 392.514C144.131 392.082 143.573 391.476 143.165 390.696C142.757 389.916 142.553 389.028 142.553 388.032ZM150.905 388.05C150.905 387.306 150.755 386.658 150.455 386.106C150.155 385.554 149.747 385.134 149.231 384.846C148.727 384.546 148.169 384.396 147.557 384.396C146.945 384.396 146.387 384.54 145.883 384.828C145.379 385.116 144.977 385.536 144.677 386.088C144.377 386.64 144.227 387.288 144.227 388.032C144.227 388.788 144.377 389.448 144.677 390.012C144.977 390.564 145.379 390.99 145.883 391.29C146.387 391.578 146.945 391.722 147.557 391.722C148.169 391.722 148.727 391.578 149.231 391.29C149.747 390.99 150.155 390.564 150.455 390.012C150.755 389.448 150.905 388.794 150.905 388.05ZM156.967 379.68V393H155.329V379.68H156.967ZM168.759 387.69C168.759 388.002 168.741 388.332 168.705 388.68H160.821C160.881 389.652 161.211 390.414 161.811 390.966C162.423 391.506 163.161 391.776 164.025 391.776C164.733 391.776 165.321 391.614 165.789 391.29C166.269 390.954 166.605 390.51 166.797 389.958H168.561C168.297 390.906 167.769 391.68 166.977 392.28C166.185 392.868 165.201 393.162 164.025 393.162C163.089 393.162 162.249 392.952 161.505 392.532C160.773 392.112 160.197 391.518 159.777 390.75C159.357 389.97 159.147 389.07 159.147 388.05C159.147 387.03 159.351 386.136 159.759 385.368C160.167 384.6 160.737 384.012 161.469 383.604C162.213 383.184 163.065 382.974 164.025 382.974C164.961 382.974 165.789 383.178 166.509 383.586C167.229 383.994 167.781 384.558 168.165 385.278C168.561 385.986 168.759 386.79 168.759 387.69ZM167.067 387.348C167.067 386.724 166.929 386.19 166.653 385.746C166.377 385.29 165.999 384.948 165.519 384.72C165.051 384.48 164.529 384.36 163.953 384.36C163.125 384.36 162.417 384.624 161.829 385.152C161.253 385.68 160.923 386.412 160.839 387.348H167.067ZM175.727 382.956C176.927 382.956 177.899 383.322 178.643 384.054C179.387 384.774 179.759 385.818 179.759 387.186V393H178.139V387.42C178.139 386.436 177.893 385.686 177.401 385.17C176.909 384.642 176.237 384.378 175.385 384.378C174.521 384.378 173.831 384.648 173.315 385.188C172.811 385.728 172.559 386.514 172.559 387.546V393H170.921V383.136H172.559V384.54C172.883 384.036 173.321 383.646 173.873 383.37C174.437 383.094 175.055 382.956 175.727 382.956ZM184.433 384.486V390.3C184.433 390.78 184.535 391.122 184.739 391.326C184.943 391.518 185.297 391.614 185.801 391.614H187.007V393H185.531C184.619 393 183.935 392.79 183.479 392.37C183.023 391.95 182.795 391.26 182.795 390.3V384.486H181.517V383.136H182.795V380.652H184.433V383.136H187.007V384.486H184.433Z" fill="#EC1F26"/>
<path d="M280.259 357.09C279.911 356.358 279.407 355.794 278.747 355.398C278.087 354.99 277.319 354.786 276.443 354.786C275.567 354.786 274.775 354.99 274.067 355.398C273.371 355.794 272.819 356.37 272.411 357.126C272.015 357.87 271.817 358.734 271.817 359.718C271.817 360.702 272.015 361.566 272.411 362.31C272.819 363.054 273.371 363.63 274.067 364.038C274.775 364.434 275.567 364.632 276.443 364.632C277.667 364.632 278.675 364.266 279.467 363.534C280.259 362.802 280.721 361.812 280.853 360.564H275.849V359.232H282.599V360.492C282.503 361.524 282.179 362.472 281.627 363.336C281.075 364.188 280.349 364.866 279.449 365.37C278.549 365.862 277.547 366.108 276.443 366.108C275.279 366.108 274.217 365.838 273.257 365.298C272.297 364.746 271.535 363.984 270.971 363.012C270.419 362.04 270.143 360.942 270.143 359.718C270.143 358.494 270.419 357.396 270.971 356.424C271.535 355.44 272.297 354.678 273.257 354.138C274.217 353.586 275.279 353.31 276.443 353.31C277.775 353.31 278.951 353.64 279.971 354.3C281.003 354.96 281.753 355.89 282.221 357.09H280.259ZM293.513 356.136V366H291.875V364.542C291.563 365.046 291.125 365.442 290.561 365.73C290.009 366.006 289.397 366.144 288.725 366.144C287.957 366.144 287.267 365.988 286.655 365.676C286.043 365.352 285.557 364.872 285.197 364.236C284.849 363.6 284.675 362.826 284.675 361.914V356.136H286.295V361.698C286.295 362.67 286.541 363.42 287.033 363.948C287.525 364.464 288.197 364.722 289.049 364.722C289.925 364.722 290.615 364.452 291.119 363.912C291.623 363.372 291.875 362.586 291.875 361.554V356.136H293.513ZM295.667 361.032C295.667 360.024 295.871 359.142 296.279 358.386C296.687 357.618 297.245 357.024 297.953 356.604C298.673 356.184 299.471 355.974 300.347 355.974C301.211 355.974 301.961 356.16 302.597 356.532C303.233 356.904 303.707 357.372 304.019 357.936V356.136H305.675V366H304.019V364.164C303.695 364.74 303.209 365.22 302.561 365.604C301.925 365.976 301.181 366.162 300.329 366.162C299.453 366.162 298.661 365.946 297.953 365.514C297.245 365.082 296.687 364.476 296.279 363.696C295.871 362.916 295.667 362.028 295.667 361.032ZM304.019 361.05C304.019 360.306 303.869 359.658 303.569 359.106C303.269 358.554 302.861 358.134 302.345 357.846C301.841 357.546 301.283 357.396 300.671 357.396C300.059 357.396 299.501 357.54 298.997 357.828C298.493 358.116 298.091 358.536 297.791 359.088C297.491 359.64 297.341 360.288 297.341 361.032C297.341 361.788 297.491 362.448 297.791 363.012C298.091 363.564 298.493 363.99 298.997 364.29C299.501 364.578 300.059 364.722 300.671 364.722C301.283 364.722 301.841 364.578 302.345 364.29C302.861 363.99 303.269 363.564 303.569 363.012C303.869 362.448 304.019 361.794 304.019 361.05ZM310.081 357.738C310.369 357.174 310.777 356.736 311.305 356.424C311.845 356.112 312.499 355.956 313.267 355.956V357.648H312.835C310.999 357.648 310.081 358.644 310.081 360.636V366H308.443V356.136H310.081V357.738ZM314.546 361.032C314.546 360.024 314.75 359.142 315.158 358.386C315.566 357.618 316.124 357.024 316.832 356.604C317.552 356.184 318.35 355.974 319.226 355.974C320.09 355.974 320.84 356.16 321.476 356.532C322.112 356.904 322.586 357.372 322.898 357.936V356.136H324.554V366H322.898V364.164C322.574 364.74 322.088 365.22 321.44 365.604C320.804 365.976 320.06 366.162 319.208 366.162C318.332 366.162 317.54 365.946 316.832 365.514C316.124 365.082 315.566 364.476 315.158 363.696C314.75 362.916 314.546 362.028 314.546 361.032ZM322.898 361.05C322.898 360.306 322.748 359.658 322.448 359.106C322.148 358.554 321.74 358.134 321.224 357.846C320.72 357.546 320.162 357.396 319.55 357.396C318.938 357.396 318.38 357.54 317.876 357.828C317.372 358.116 316.97 358.536 316.67 359.088C316.37 359.64 316.22 360.288 316.22 361.032C316.22 361.788 316.37 362.448 316.67 363.012C316.97 363.564 317.372 363.99 317.876 364.29C318.38 364.578 318.938 364.722 319.55 364.722C320.162 364.722 320.72 364.578 321.224 364.29C321.74 363.99 322.148 363.564 322.448 363.012C322.748 362.448 322.898 361.794 322.898 361.05ZM332.128 355.956C333.328 355.956 334.3 356.322 335.044 357.054C335.788 357.774 336.16 358.818 336.16 360.186V366H334.54V360.42C334.54 359.436 334.294 358.686 333.802 358.17C333.31 357.642 332.638 357.378 331.786 357.378C330.922 357.378 330.232 357.648 329.716 358.188C329.212 358.728 328.96 359.514 328.96 360.546V366H327.322V356.136H328.96V357.54C329.284 357.036 329.722 356.646 330.274 356.37C330.838 356.094 331.456 355.956 332.128 355.956ZM340.833 357.486V363.3C340.833 363.78 340.935 364.122 341.139 364.326C341.343 364.518 341.697 364.614 342.201 364.614H343.407V366H341.931C341.019 366 340.335 365.79 339.879 365.37C339.423 364.95 339.195 364.26 339.195 363.3V357.486H337.917V356.136H339.195V353.652H340.833V356.136H343.407V357.486H340.833ZM354.392 360.69C354.392 361.002 354.374 361.332 354.338 361.68H346.454C346.514 362.652 346.844 363.414 347.444 363.966C348.056 364.506 348.794 364.776 349.658 364.776C350.366 364.776 350.954 364.614 351.422 364.29C351.902 363.954 352.238 363.51 352.43 362.958H354.194C353.93 363.906 353.402 364.68 352.61 365.28C351.818 365.868 350.834 366.162 349.658 366.162C348.722 366.162 347.882 365.952 347.138 365.532C346.406 365.112 345.83 364.518 345.41 363.75C344.99 362.97 344.78 362.07 344.78 361.05C344.78 360.03 344.984 359.136 345.392 358.368C345.8 357.6 346.37 357.012 347.102 356.604C347.846 356.184 348.698 355.974 349.658 355.974C350.594 355.974 351.422 356.178 352.142 356.586C352.862 356.994 353.414 357.558 353.798 358.278C354.194 358.986 354.392 359.79 354.392 360.69ZM352.7 360.348C352.7 359.724 352.562 359.19 352.286 358.746C352.01 358.29 351.632 357.948 351.152 357.72C350.684 357.48 350.162 357.36 349.586 357.36C348.758 357.36 348.05 357.624 347.462 358.152C346.886 358.68 346.556 359.412 346.472 360.348H352.7ZM365.554 360.69C365.554 361.002 365.536 361.332 365.5 361.68H357.616C357.676 362.652 358.006 363.414 358.606 363.966C359.218 364.506 359.956 364.776 360.82 364.776C361.528 364.776 362.116 364.614 362.584 364.29C363.064 363.954 363.4 363.51 363.592 362.958H365.356C365.092 363.906 364.564 364.68 363.772 365.28C362.98 365.868 361.996 366.162 360.82 366.162C359.884 366.162 359.044 365.952 358.3 365.532C357.568 365.112 356.992 364.518 356.572 363.75C356.152 362.97 355.942 362.07 355.942 361.05C355.942 360.03 356.146 359.136 356.554 358.368C356.962 357.6 357.532 357.012 358.264 356.604C359.008 356.184 359.86 355.974 360.82 355.974C361.756 355.974 362.584 356.178 363.304 356.586C364.024 356.994 364.576 357.558 364.96 358.278C365.356 358.986 365.554 359.79 365.554 360.69ZM363.862 360.348C363.862 359.724 363.724 359.19 363.448 358.746C363.172 358.29 362.794 357.948 362.314 357.72C361.846 357.48 361.324 357.36 360.748 357.36C359.92 357.36 359.212 357.624 358.624 358.152C358.048 358.68 357.718 359.412 357.634 360.348H363.862ZM367.104 361.032C367.104 360.024 367.308 359.142 367.716 358.386C368.124 357.618 368.682 357.024 369.39 356.604C370.11 356.184 370.914 355.974 371.802 355.974C372.57 355.974 373.284 356.154 373.944 356.514C374.604 356.862 375.108 357.324 375.456 357.9V352.68H377.112V366H375.456V364.146C375.132 364.734 374.652 365.22 374.016 365.604C373.38 365.976 372.636 366.162 371.784 366.162C370.908 366.162 370.11 365.946 369.39 365.514C368.682 365.082 368.124 364.476 367.716 363.696C367.308 362.916 367.104 362.028 367.104 361.032ZM375.456 361.05C375.456 360.306 375.306 359.658 375.006 359.106C374.706 358.554 374.298 358.134 373.782 357.846C373.278 357.546 372.72 357.396 372.108 357.396C371.496 357.396 370.938 357.54 370.434 357.828C369.93 358.116 369.528 358.536 369.228 359.088C368.928 359.64 368.778 360.288 368.778 361.032C368.778 361.788 368.928 362.448 369.228 363.012C369.528 363.564 369.93 363.99 370.434 364.29C370.938 364.578 371.496 364.722 372.108 364.722C372.72 364.722 373.278 364.578 373.782 364.29C374.298 363.99 374.706 363.564 375.006 363.012C375.306 362.448 375.456 361.794 375.456 361.05ZM297.363 384.738C297.651 384.174 298.059 383.736 298.587 383.424C299.127 383.112 299.781 382.956 300.549 382.956V384.648H300.117C298.281 384.648 297.363 385.644 297.363 387.636V393H295.725V383.136H297.363V384.738ZM311.44 387.69C311.44 388.002 311.422 388.332 311.386 388.68H303.502C303.562 389.652 303.892 390.414 304.492 390.966C305.104 391.506 305.842 391.776 306.706 391.776C307.414 391.776 308.002 391.614 308.47 391.29C308.95 390.954 309.286 390.51 309.478 389.958H311.242C310.978 390.906 310.45 391.68 309.658 392.28C308.866 392.868 307.882 393.162 306.706 393.162C305.77 393.162 304.93 392.952 304.186 392.532C303.454 392.112 302.878 391.518 302.458 390.75C302.038 389.97 301.828 389.07 301.828 388.05C301.828 387.03 302.032 386.136 302.44 385.368C302.848 384.6 303.418 384.012 304.15 383.604C304.894 383.184 305.746 382.974 306.706 382.974C307.642 382.974 308.47 383.178 309.19 383.586C309.91 383.994 310.462 384.558 310.846 385.278C311.242 385.986 311.44 386.79 311.44 387.69ZM309.748 387.348C309.748 386.724 309.61 386.19 309.334 385.746C309.058 385.29 308.68 384.948 308.2 384.72C307.732 384.48 307.21 384.36 306.634 384.36C305.806 384.36 305.098 384.624 304.51 385.152C303.934 385.68 303.604 386.412 303.52 387.348H309.748ZM317.094 393.162C316.338 393.162 315.66 393.036 315.06 392.784C314.46 392.52 313.986 392.16 313.638 391.704C313.29 391.236 313.098 390.702 313.062 390.102H314.754C314.802 390.594 315.03 390.996 315.438 391.308C315.858 391.62 316.404 391.776 317.076 391.776C317.7 391.776 318.192 391.638 318.552 391.362C318.912 391.086 319.092 390.738 319.092 390.318C319.092 389.886 318.9 389.568 318.516 389.364C318.132 389.148 317.538 388.938 316.734 388.734C316.002 388.542 315.402 388.35 314.934 388.158C314.478 387.954 314.082 387.66 313.746 387.276C313.422 386.88 313.26 386.364 313.26 385.728C313.26 385.224 313.41 384.762 313.71 384.342C314.01 383.922 314.436 383.592 314.988 383.352C315.54 383.1 316.17 382.974 316.878 382.974C317.97 382.974 318.852 383.25 319.524 383.802C320.196 384.354 320.556 385.11 320.604 386.07H318.966C318.93 385.554 318.72 385.14 318.336 384.828C317.964 384.516 317.46 384.36 316.824 384.36C316.236 384.36 315.768 384.486 315.42 384.738C315.072 384.99 314.898 385.32 314.898 385.728C314.898 386.052 315 386.322 315.204 386.538C315.42 386.742 315.684 386.91 315.996 387.042C316.32 387.162 316.764 387.3 317.328 387.456C318.036 387.648 318.612 387.84 319.056 388.032C319.5 388.212 319.878 388.488 320.19 388.86C320.514 389.232 320.682 389.718 320.694 390.318C320.694 390.858 320.544 391.344 320.244 391.776C319.944 392.208 319.518 392.55 318.966 392.802C318.426 393.042 317.802 393.162 317.094 393.162ZM331.754 383.136V393H330.116V391.542C329.804 392.046 329.366 392.442 328.802 392.73C328.25 393.006 327.638 393.144 326.966 393.144C326.198 393.144 325.508 392.988 324.896 392.676C324.284 392.352 323.798 391.872 323.438 391.236C323.09 390.6 322.916 389.826 322.916 388.914V383.136H324.536V388.698C324.536 389.67 324.782 390.42 325.274 390.948C325.766 391.464 326.438 391.722 327.29 391.722C328.166 391.722 328.856 391.452 329.36 390.912C329.864 390.372 330.116 389.586 330.116 388.554V383.136H331.754ZM336.158 379.68V393H334.52V379.68H336.158ZM340.948 384.486V390.3C340.948 390.78 341.05 391.122 341.254 391.326C341.458 391.518 341.812 391.614 342.316 391.614H343.522V393H342.046C341.134 393 340.45 392.79 339.994 392.37C339.538 391.95 339.31 391.26 339.31 390.3V384.486H338.032V383.136H339.31V380.652H340.948V383.136H343.522V384.486H340.948ZM348.998 393.162C348.242 393.162 347.564 393.036 346.964 392.784C346.364 392.52 345.89 392.16 345.542 391.704C345.194 391.236 345.002 390.702 344.966 390.102H346.658C346.706 390.594 346.934 390.996 347.342 391.308C347.762 391.62 348.308 391.776 348.98 391.776C349.604 391.776 350.096 391.638 350.456 391.362C350.816 391.086 350.996 390.738 350.996 390.318C350.996 389.886 350.804 389.568 350.42 389.364C350.036 389.148 349.442 388.938 348.638 388.734C347.906 388.542 347.306 388.35 346.838 388.158C346.382 387.954 345.986 387.66 345.65 387.276C345.326 386.88 345.164 386.364 345.164 385.728C345.164 385.224 345.314 384.762 345.614 384.342C345.914 383.922 346.34 383.592 346.892 383.352C347.444 383.1 348.074 382.974 348.782 382.974C349.874 382.974 350.756 383.25 351.428 383.802C352.1 384.354 352.46 385.11 352.508 386.07H350.87C350.834 385.554 350.624 385.14 350.24 384.828C349.868 384.516 349.364 384.36 348.728 384.36C348.14 384.36 347.672 384.486 347.324 384.738C346.976 384.99 346.802 385.32 346.802 385.728C346.802 386.052 346.904 386.322 347.108 386.538C347.324 386.742 347.588 386.91 347.9 387.042C348.224 387.162 348.668 387.3 349.232 387.456C349.94 387.648 350.516 387.84 350.96 388.032C351.404 388.212 351.782 388.488 352.094 388.86C352.418 389.232 352.586 389.718 352.598 390.318C352.598 390.858 352.448 391.344 352.148 391.776C351.848 392.208 351.422 392.55 350.87 392.802C350.33 393.042 349.706 393.162 348.998 393.162Z" fill="#EC1F26"/>
<defs>
<linearGradient id="paint0_linear_15_39" x1="4.88386e-06" y1="214.5" x2="437" y2="214.5" gradientUnits="userSpaceOnUse">
<stop stop-color="#F796FE"/>
<stop offset="1" stop-color="#BDF8D9"/>
</linearGradient>
</defs>
</svg>
