<svg width="23" height="6" viewBox="0 0 23 6" fill="none" xmlns="http://www.w3.org/2000/svg">
<g opacity="0.5">
<path d="M17.6758 2.5254C17.6758 3.92014 18.8064 5.0508 20.2012 5.0508C21.5959 5.0508 22.7266 3.92014 22.7266 2.5254C22.7266 1.13066 21.5959 -4.94227e-08 20.2012 -1.10389e-07C18.8064 -1.71355e-07 17.6758 1.13066 17.6758 2.5254Z" fill="white"/>
<path d="M8.83592 2.5254C8.83592 3.92014 9.96658 5.0508 11.3613 5.0508C12.7561 5.0508 13.8867 3.92014 13.8867 2.5254C13.8867 1.13066 12.7561 -4.94227e-08 11.3613 -1.10389e-07C9.96658 -1.71355e-07 8.83592 1.13066 8.83592 2.5254Z" fill="white"/>
<path d="M-1.44155e-05 2.5254C-1.44765e-05 3.92014 1.13064 5.0508 2.52538 5.0508C3.92012 5.0508 5.05078 3.92014 5.05078 2.5254C5.05078 1.13066 3.92012 -4.94227e-08 2.52538 -1.10389e-07C1.13064 -1.71355e-07 -1.43545e-05 1.13066 -1.44155e-05 2.5254Z" fill="white"/>
</g>
</svg>
