<svg width="34" height="31" viewBox="0 0 34 31" fill="none" xmlns="http://www.w3.org/2000/svg">
<g opacity="0.15">
<path d="M33.4453 5.01678V4.18086C33.4426 1.87303 31.5723 0.00275586 29.2645 0H4.18055C1.87272 0.00275586 0.0027558 1.87303 0 4.18086V5.01678H33.4453Z" fill="white"/>
<path d="M0 6.68945V25.9203C0.0027558 28.2282 1.87272 30.0984 4.18055 30.1009H29.2645C31.5723 30.0984 33.4426 28.2282 33.4453 25.9203V6.68945H0ZM5.01678 12.5422C5.01678 12.3205 5.10466 12.1077 5.26144 11.9509C5.41852 11.7941 5.63102 11.7059 5.85301 11.7062H12.542C12.7636 11.7059 12.9765 11.7941 13.1332 11.9509C13.2903 12.1077 13.3782 12.3205 13.3782 12.5422V17.5589C13.3782 17.7809 13.2903 17.9934 13.1332 18.1505C12.9765 18.3073 12.7636 18.3952 12.542 18.3952H5.85301C5.63102 18.3952 5.41852 18.3073 5.26144 18.1505C5.10466 17.9934 5.01678 17.7809 5.01678 17.5589V12.5422ZM27.5923 23.412H5.85301C5.39126 23.412 5.01678 23.0375 5.01678 22.5757C5.01678 22.114 5.39126 21.7398 5.85301 21.7398H27.5923C28.054 21.7398 28.4285 22.114 28.4285 22.5757C28.4285 23.0375 28.054 23.412 27.5923 23.412ZM27.5923 18.3952H17.5587C17.097 18.3952 16.7225 18.0207 16.7225 17.5589C16.7225 17.0972 17.097 16.723 17.5587 16.723H27.5923C28.054 16.723 28.4285 17.0972 28.4285 17.5589C28.4285 18.0207 28.054 18.3952 27.5923 18.3952ZM27.5923 13.3784H17.5587C17.097 13.3784 16.7225 13.0039 16.7225 12.5422C16.7225 12.0804 17.097 11.7062 17.5587 11.7062H27.5923C28.054 11.7062 28.4285 12.0804 28.4285 12.5422C28.4285 13.0039 28.054 13.3784 27.5923 13.3784Z" fill="white"/>
<path d="M6.68945 13.377H11.7062V16.7216H6.68945V13.377Z" fill="white"/>
</g>
</svg>
