<svg width="46" height="35" viewBox="0 0 46 35" fill="none" xmlns="http://www.w3.org/2000/svg">
<g opacity="0.15">
<path d="M17.1003 15.7856C17.3616 15.7785 17.619 15.8494 17.8398 15.9894C18.0606 16.1293 18.2346 16.332 18.3396 16.5714C18.4446 16.8107 18.4758 17.076 18.4292 17.3332C18.3827 17.5904 18.2604 17.8279 18.0782 18.0153C17.8959 18.2027 17.662 18.3314 17.4061 18.3851C17.1503 18.4388 16.8843 18.415 16.6421 18.3167C16.3999 18.2184 16.1925 18.05 16.0465 17.8333C15.9004 17.6165 15.8224 17.361 15.8223 17.0996C15.8221 16.7573 15.9556 16.4284 16.1943 16.183C16.433 15.9376 16.758 15.795 17.1003 15.7856Z" fill="white"/>
<path d="M18.4587 10.6376V13.3376C18.021 13.1922 17.5604 13.1281 17.0997 13.1486C16.0518 13.1486 15.0469 13.5648 14.3059 14.3058C13.565 15.0467 13.1487 16.0517 13.1487 17.0995C13.1487 18.1474 13.565 19.1523 14.3059 19.8933C15.0469 20.6342 16.0518 21.0505 17.0997 21.0505C17.5505 21.055 17.9986 20.9788 18.4226 20.8255V23.5255C17.9872 23.6128 17.5438 23.6551 17.0997 23.6515C16.2345 23.6515 15.3779 23.4811 14.5786 23.15C13.7793 22.8189 13.053 22.3337 12.4413 21.7219C11.8295 21.1102 11.3443 20.3839 11.0132 19.5846C10.6821 18.7853 10.5117 17.9287 10.5117 17.0635C10.5117 16.1984 10.6821 15.3417 11.0132 14.5424C11.3443 13.7431 11.8295 13.0169 12.4413 12.4051C13.053 11.7934 13.7793 11.3081 14.5786 10.9771C15.3779 10.646 16.2345 10.4756 17.0997 10.4756C17.5571 10.4813 18.0127 10.5356 18.4587 10.6376Z" fill="white"/>
<path d="M7.91093 17.0999C7.91609 18.4217 8.20416 19.7271 8.75578 20.9284C9.30741 22.1297 10.1098 23.1989 11.109 24.0643C12.1082 24.9296 13.2811 25.5711 14.5489 25.9455C15.8166 26.3198 17.1498 26.4185 18.4588 26.2348V34.1997H14.4989C14.1504 34.1997 13.8162 34.0613 13.5697 33.8148C13.3233 33.5684 13.1849 33.2342 13.1849 32.8857V31.0497C12.0992 30.7426 11.0539 30.3076 10.0709 29.7537L8.74793 31.0857C8.50015 31.3314 8.16536 31.4692 7.81643 31.4692C7.46751 31.4692 7.13272 31.3314 6.88494 31.0857L3.15897 27.3508C3.03625 27.2287 2.93886 27.0835 2.87241 26.9237C2.80596 26.7638 2.77175 26.5924 2.77175 26.4193C2.77175 26.2462 2.80596 26.0747 2.87241 25.9149C2.93886 25.755 3.03625 25.6099 3.15897 25.4878L4.49996 24.1648C3.94611 23.1818 3.51106 22.1365 3.20397 21.0508H1.31399C0.965497 21.0508 0.631279 20.9124 0.384858 20.666C0.138438 20.4195 0 20.0853 0 19.7368L0 14.4629C0 14.2903 0.0339873 14.1195 0.100021 13.96C0.166056 13.8006 0.262843 13.6558 0.384858 13.5337C0.506874 13.4117 0.651727 13.3149 0.811147 13.2489C0.970568 13.1829 1.14143 13.1489 1.31399 13.1489H3.18597C3.49878 12.0624 3.93988 11.0171 4.49996 10.0349L3.15897 8.71193C3.03625 8.58982 2.93886 8.44468 2.87241 8.28482C2.80596 8.12496 2.77175 7.95355 2.77175 7.78043C2.77175 7.60732 2.80596 7.4359 2.87241 7.27605C2.93886 7.11619 3.03625 6.97104 3.15897 6.84894L6.88494 3.11397C7.13272 2.8683 7.46751 2.73046 7.81643 2.73046C8.16536 2.73046 8.50015 2.8683 8.74793 3.11397L10.0799 4.44596C11.059 3.89067 12.1015 3.45553 13.1849 3.14997V1.27799C13.1943 0.935775 13.3368 0.610732 13.5822 0.372045C13.8277 0.133357 14.1565 -0.000128414 14.4989 9.2699e-08H18.4588V8.00093C17.1528 7.81761 15.8227 7.91536 14.5575 8.28764C13.2922 8.65991 12.1211 9.29813 11.1225 10.1596C10.1239 11.021 9.32075 12.0858 8.76689 13.2827C8.21303 14.4796 7.9212 15.781 7.91093 17.0999Z" fill="white"/>
<path d="M37.0905 0.728994V7.87493H44.2275L37.0905 0.728994ZM25.0486 7.87493H30.5026C30.8335 7.90229 31.1419 8.05306 31.3668 8.2973C31.5917 8.54155 31.7165 8.86142 31.7165 9.19342C31.7165 9.52543 31.5917 9.8453 31.3668 10.0895C31.1419 10.3338 30.8335 10.4846 30.5026 10.5119H25.0486C24.7177 10.4846 24.4093 10.3338 24.1844 10.0895C23.9595 9.8453 23.8347 9.52543 23.8347 9.19342C23.8347 8.86142 23.9595 8.54155 24.1844 8.2973C24.4093 8.05306 24.7177 7.90229 25.0486 7.87493ZM38.4135 26.3248H25.0486C24.7177 26.2974 24.4093 26.1467 24.1844 25.9024C23.9595 25.6582 23.8347 25.3383 23.8347 25.0063C23.8347 24.6743 23.9595 24.3544 24.1844 24.1102C24.4093 23.8659 24.7177 23.7152 25.0486 23.6878H38.4135C38.7444 23.7152 39.0529 23.8659 39.2778 24.1102C39.5026 24.3544 39.6275 24.6743 39.6275 25.0063C39.6275 25.3383 39.5026 25.6582 39.2778 25.9024C39.0529 26.1467 38.7444 26.2974 38.4135 26.3248ZM38.4135 21.0508H25.0486C24.7177 21.0235 24.4093 20.8727 24.1844 20.6285C23.9595 20.3842 23.8347 20.0643 23.8347 19.7323C23.8347 19.4003 23.9595 19.0805 24.1844 18.8362C24.4093 18.592 24.7177 18.4412 25.0486 18.4138H38.4135C38.7444 18.4412 39.0529 18.592 39.2778 18.8362C39.5026 19.0805 39.6275 19.4003 39.6275 19.7323C39.6275 20.0643 39.5026 20.3842 39.2778 20.6285C39.0529 20.8727 38.7444 21.0235 38.4135 21.0508ZM38.4135 15.7859H25.0486C24.7177 15.7585 24.4093 15.6077 24.1844 15.3635C23.9595 15.1192 23.8347 14.7994 23.8347 14.4674C23.8347 14.1354 23.9595 13.8155 24.1844 13.5713C24.4093 13.327 24.7177 13.1762 25.0486 13.1489H38.4135C38.7444 13.1762 39.0529 13.327 39.2778 13.5713C39.5026 13.8155 39.6275 14.1354 39.6275 14.4674C39.6275 14.7994 39.5026 15.1192 39.2778 15.3635C39.0529 15.6077 38.7444 15.7585 38.4135 15.7859ZM35.7765 10.5119C35.4257 10.5119 35.0891 10.3725 34.841 10.1244C34.5929 9.87631 34.4535 9.5398 34.4535 9.18892V0H21.0977V34.1997H43.6875C44.0298 34.1998 44.3587 34.0663 44.6041 33.8277C44.8495 33.589 44.9921 33.2639 45.0015 32.9217V10.5119H35.7765Z" fill="white"/>
</g>
</svg>
