<svg width="32" height="32" viewBox="0 0 32 32" fill="none" xmlns="http://www.w3.org/2000/svg">
<path d="M32.0006 22.508V19.3187L28.8084 18.9807C28.6093 18.1646 28.2869 17.3966 27.8621 16.6979L29.8807 14.2011L27.6256 11.946L25.1289 13.9646C24.4301 13.5398 23.6622 13.2174 22.846 13.0183L22.508 9.82617H19.3187L18.9807 13.0183C18.1646 13.2174 17.3966 13.5398 16.6979 13.9646L14.2011 11.946L11.946 14.2011L13.9646 16.6979C13.5398 17.3966 13.2174 18.1645 13.0183 18.9807L9.82617 19.3187V22.508L13.0183 22.846C13.2174 23.6622 13.5398 24.4301 13.9646 25.1289L11.946 27.6256L14.2011 29.8808L16.6979 27.8621C17.3966 28.2869 18.1645 28.6093 18.9807 28.8084L19.3188 32.0005H22.5081L22.8461 28.8084C23.6622 28.6092 24.4302 28.2869 25.1289 27.8621L27.6257 29.8807L29.8808 27.6256L27.8622 25.1288C28.287 24.4301 28.6094 23.6622 28.8085 22.8459L32.0006 22.508ZM20.9134 24.6494C18.8501 24.6494 17.1774 22.9767 17.1774 20.9134C17.1774 18.85 18.8501 17.1773 20.9134 17.1773C22.9768 17.1773 24.6495 18.85 24.6495 20.9134C24.6495 22.9767 22.9768 24.6494 20.9134 24.6494Z" fill="#EC1F26"/>
<path d="M14.8112 7.14294C14.6558 6.50607 14.4043 5.90694 14.0728 5.36169L15.6479 3.41356L13.8883 1.65394L11.9401 3.229C11.3949 2.89756 10.7958 2.646 10.1589 2.49063L9.89519 0H7.40676L7.14301 2.49069C6.50613 2.64606 5.907 2.89756 5.36175 3.22906L3.41363 1.654L1.654 3.41363L3.22906 5.36175C2.89763 5.90694 2.64606 6.50613 2.49069 7.14301L0 7.40669V9.89513L2.49069 10.1589C2.64606 10.7958 2.89756 11.3949 3.22906 11.9401L1.654 13.8883L3.41363 15.6479L5.36175 14.0728C5.90694 14.4043 6.50613 14.6558 7.14301 14.8112L7.40676 17.3019H9.89519L10.1438 14.9544L9.42688 14.0677L10.6198 12.8748L12.8749 10.6197L14.0677 9.42682L14.9544 10.1437L17.3019 9.89513V7.40669L14.8112 7.14294ZM8.65094 11.5661C7.04094 11.5661 5.73582 10.2609 5.73582 8.65094C5.73582 7.04094 7.04094 5.73582 8.65094 5.73582C10.2609 5.73582 11.5661 7.04094 11.5661 8.65094C11.5661 10.2609 10.2609 11.5661 8.65094 11.5661Z" fill="#EC1F26"/>
</svg>
