<svg width="19" height="18" viewBox="0 0 19 18" fill="none" xmlns="http://www.w3.org/2000/svg">
<path d="M7.55493 14.4835C9.23276 14.4835 10.8626 13.9467 12.1863 12.9579L17.1801 17.7472C17.5531 18.0927 18.1476 18.0828 18.5079 17.725C18.8593 17.376 18.8593 16.8227 18.5079 16.4738L13.5141 11.6845C16.0724 8.52609 15.4766 3.97672 12.1834 1.52317C8.89012 -0.930386 4.14653 -0.359039 1.58821 2.79935C-0.970115 5.95773 -0.37437 10.5071 2.91888 12.9607C4.24472 13.9485 5.87601 14.4843 7.55493 14.4835ZM3.54245 3.39461C5.75851 1.26927 9.35144 1.26923 11.5675 3.39453C13.7836 5.51983 13.7837 8.96563 11.5676 11.091C9.35157 13.2163 5.75863 13.2164 3.54253 11.091C3.54249 11.091 3.54249 11.091 3.54245 11.091C1.32639 8.98115 1.31334 5.54792 3.51325 3.42261C3.52297 3.41325 3.53269 3.40393 3.54245 3.39461Z" fill="white"/>
</svg>
