<svg width="27" height="28" viewBox="0 0 27 28" fill="none" xmlns="http://www.w3.org/2000/svg">
<path opacity="0.15" d="M21.9335 18.1694C21.147 18.1761 20.373 18.3615 19.6731 18.7108C18.9732 19.0602 18.3669 19.5638 17.9024 20.1815L9.89777 16.2077C10.2425 15.1522 10.1894 14.0116 9.74804 12.9907L18.1039 8.10336C18.8767 8.97281 19.9392 9.55001 21.1052 9.73393C22.2712 9.91784 23.4665 9.69675 24.4819 9.10936C25.4973 8.52197 26.2681 7.60571 26.6594 6.52095C27.0506 5.4362 27.0374 4.25208 26.622 3.17587C26.2066 2.09967 25.4155 1.19994 24.3872 0.634194C23.3589 0.0684483 22.1589 -0.127271 20.9972 0.0812962C19.8356 0.289864 18.7864 0.889429 18.0332 1.77504C17.28 2.66065 16.8708 3.77588 16.8773 4.9255C16.8749 5.54104 16.9922 6.15147 17.2228 6.72461L8.84969 11.6007C8.15847 10.8326 7.23863 10.293 6.21792 10.0569C5.19721 9.8209 4.1263 9.90008 3.15394 10.2835C2.18159 10.6669 1.35605 11.3355 0.792008 12.1965C0.227961 13.0574 -0.0465982 14.068 0.00646652 15.0877C0.0595313 16.1075 0.437585 17.0859 1.08812 17.8869C1.73865 18.688 2.62937 19.2721 3.63655 19.5579C4.64373 19.8437 5.71738 19.8172 6.70836 19.482C7.69935 19.1468 8.55848 18.5196 9.16642 17.6874L17.1192 21.6499C16.8088 22.6398 16.8273 23.6997 17.1722 24.6787C17.517 25.6577 18.1705 26.5057 19.0396 27.1021C19.9087 27.6984 20.9491 28.0125 22.0123 27.9996C23.0756 27.9868 24.1076 27.6476 24.9612 27.0305C25.8148 26.4134 26.4465 25.5498 26.7663 24.5627C27.086 23.5757 27.0775 22.5157 26.742 21.5336C26.4064 20.5516 25.7609 19.6977 24.8975 19.0936C24.0341 18.4895 22.9968 18.1661 21.9335 18.1694Z" fill="white"/>
</svg>
