<svg width="23" height="21" viewBox="0 0 23 21" fill="none" xmlns="http://www.w3.org/2000/svg">
<path opacity="0.35" d="M23 15.8903C23 13.0726 20.6741 10.7804 17.8152 10.7804C17.1117 10.7804 16.4407 10.9195 15.8285 11.1707L14.6526 9.16343C14.673 9.14821 14.693 9.13282 14.7131 9.11725C14.7412 9.09858 14.7674 9.07713 14.7925 9.05413C15.9473 8.11627 16.6846 6.69643 16.6846 5.10987C16.6846 2.29215 14.3589 0 11.5 0C8.64114 0 6.31521 2.29215 6.31521 5.10987C6.31521 6.69609 7.05238 8.11576 8.20684 9.05361C8.23228 9.07679 8.25878 9.09875 8.28738 9.1176C8.30721 9.13299 8.32722 9.14821 8.34722 9.16343L7.17136 11.1706C6.55912 10.9195 5.8881 10.7804 5.18462 10.7804C2.32576 10.7804 0 13.0726 0 15.8903C0 17.4765 0.73735 18.8964 1.89181 19.8344C1.91708 19.8574 1.9434 19.879 1.97182 19.8979C2.8557 20.5875 3.97225 21 5.18462 21C6.39733 21 7.51406 20.5874 8.39811 19.8973C8.42601 19.8788 8.45198 19.8576 8.47672 19.8349C9.46799 19.03 10.1516 17.8699 10.3255 16.5544H12.6741C12.8482 17.8698 13.5317 19.0295 14.5224 19.8344C14.5477 19.8574 14.574 19.879 14.6021 19.8977C15.4861 20.5875 16.6027 21 17.8152 21C19.0279 21 20.1447 20.5874 21.0287 19.8973C21.0564 19.8788 21.0822 19.8576 21.107 19.8351C22.2623 18.8972 23 17.477 23 15.8903ZM7.66286 5.10987C7.66286 3.02473 9.38428 1.32818 11.5 1.32818C13.6157 1.32818 15.337 3.02473 15.337 5.10987C15.337 5.99689 15.0248 6.81299 14.504 7.45858C14.1774 7.00548 13.7505 6.63417 13.2604 6.37078C13.5224 6.01643 13.6775 5.58079 13.6775 5.10987C13.6775 3.92662 12.7006 2.96386 11.5 2.96386C10.2992 2.96386 9.32252 3.92662 9.32252 5.10987C9.32252 5.58079 9.47764 6.01643 9.73945 6.37061C9.24934 6.634 8.82241 7.0053 8.49603 7.45858C7.97521 6.81299 7.66286 5.99689 7.66286 5.10987ZM9.51326 9.82942C10.1255 10.0807 10.7965 10.2197 11.5 10.2197C12.2035 10.2197 12.8745 10.0807 13.4867 9.82942L14.6624 11.8366C13.5964 12.644 12.8563 13.8498 12.6743 15.2262H10.3257C10.1436 13.8498 9.40359 12.644 8.33739 11.8366L9.51326 9.82942ZM8.18859 18.239C7.86221 17.7857 7.43527 17.4144 6.94517 17.151C7.20698 16.7969 7.3621 16.3612 7.3621 15.8903C7.3621 14.707 6.3854 13.7443 5.18462 13.7443C3.98401 13.7443 3.00713 14.707 3.00713 15.8903C3.00713 16.3612 3.16225 16.7969 3.42424 17.151C2.93414 17.4144 2.5072 17.7857 2.18064 18.239C1.66 17.5932 1.34766 16.7773 1.34766 15.8903C1.34766 13.805 3.0689 12.1086 5.18462 12.1086C7.30051 12.1086 9.02175 13.805 9.02175 15.8903C9.02175 16.7773 8.70958 17.5932 8.18859 18.239ZM13.9781 15.8903C13.9781 13.805 15.6995 12.1086 17.8152 12.1086C19.9311 12.1086 21.6523 13.805 21.6523 15.8903C21.6523 16.7773 21.34 17.5932 20.8192 18.239C20.4926 17.7857 20.0659 17.4144 19.5758 17.151C19.8376 16.7969 19.9927 16.3612 19.9927 15.8903C19.9927 14.707 19.0158 13.7443 17.8152 13.7443C16.6146 13.7443 15.6377 14.707 15.6377 15.8903C15.6377 16.3612 15.7928 16.7969 16.0547 17.151C15.5646 17.4144 15.1378 17.7857 14.8112 18.239C14.2904 17.5932 13.9781 16.7773 13.9781 15.8903Z" fill="white"/>
</svg>
