<svg width="17" height="23" viewBox="0 0 17 23" fill="none" xmlns="http://www.w3.org/2000/svg">
<g opacity="0.35">
<path d="M8.5 10.7812C9.9862 10.7812 11.1953 9.57213 11.1953 8.08594C11.1953 6.59974 9.9862 5.39062 8.5 5.39062C7.0138 5.39062 5.80469 6.59974 5.80469 8.08594C5.80469 9.57213 7.0138 10.7812 8.5 10.7812ZM8.5 7.1875C8.9954 7.1875 9.39844 7.59054 9.39844 8.08594C9.39844 8.58134 8.9954 8.98438 8.5 8.98438C8.0046 8.98438 7.60156 8.58134 7.60156 8.08594C7.60156 7.59054 8.0046 7.1875 8.5 7.1875Z" fill="white"/>
<path d="M16.5859 8.08594C16.5859 3.62735 12.9586 0 8.5 0C4.04141 0 0.414062 3.62735 0.414062 8.08594C0.414062 9.8498 0.972082 11.5261 2.02784 12.9336L6.34294 18.6866C6.84979 19.3623 7.65619 19.7656 8.5 19.7656C9.34381 19.7656 10.1502 19.3623 10.6571 18.6866L14.9722 12.9336C16.0279 11.5261 16.5859 9.8498 16.5859 8.08594ZM13.5347 11.8554L9.21969 17.6083C9.04782 17.8374 8.78552 17.9688 8.5 17.9688C8.21448 17.9688 7.95218 17.8374 7.78035 17.6084L3.46529 11.8554C2.6447 10.7614 2.21094 9.4579 2.21094 8.08594C2.21094 4.61815 5.03221 1.79688 8.5 1.79688C11.9678 1.79688 14.7891 4.61815 14.7891 8.08594C14.7891 9.4579 14.3553 10.7614 13.5347 11.8554Z" fill="white"/>
<path d="M12.9922 22.1016C12.9922 21.6054 12.59 21.2031 12.0938 21.2031H4.90625C4.41004 21.2031 4.00781 21.6054 4.00781 22.1016C4.00781 22.5978 4.41004 23 4.90625 23H12.0938C12.59 23 12.9922 22.5978 12.9922 22.1016Z" fill="white"/>
</g>
</svg>
