<svg width="34" height="33" viewBox="0 0 34 33" fill="none" xmlns="http://www.w3.org/2000/svg">
<g opacity="0.15">
<path d="M16.4993 7.57679C18.5916 7.57679 20.2877 5.88067 20.2877 3.78839C20.2877 1.69612 18.5916 0 16.4993 0C14.4071 0 12.7109 1.69612 12.7109 3.78839C12.7109 5.88067 14.4071 7.57679 16.4993 7.57679Z" fill="white"/>
<path d="M21.121 9.12695H11.881C11.1651 9.12695 10.4785 9.41135 9.97228 9.91759C9.46604 10.4238 9.18164 11.1104 9.18164 11.8263V21.9111C9.18164 22.3295 9.34783 22.7307 9.64365 23.0265C9.93947 23.3223 10.3407 23.4885 10.759 23.4885C11.1774 23.4885 11.5786 23.3223 11.8744 23.0265C12.1702 22.7307 12.3364 22.3295 12.3364 21.9111V32.9991H15.5374V22.8483H17.4712V32.9991H20.6722V21.9111C20.6583 22.1264 20.6886 22.3423 20.7614 22.5454C20.8342 22.7484 20.9479 22.9344 21.0954 23.0918C21.243 23.2492 21.4212 23.3747 21.6192 23.4605C21.8171 23.5463 22.0306 23.5905 22.2463 23.5905C22.4621 23.5905 22.6755 23.5463 22.8735 23.4605C23.0714 23.3747 23.2497 23.2492 23.3972 23.0918C23.5447 22.9344 23.6584 22.7484 23.7312 22.5454C23.804 22.3423 23.8344 22.1264 23.8204 21.9111V11.8263C23.8204 11.4719 23.7506 11.1208 23.6149 10.7933C23.4793 10.4658 23.2804 10.1682 23.0298 9.91759C22.7791 9.66693 22.4815 9.46809 22.154 9.33243C21.8265 9.19678 21.4755 9.12695 21.121 9.12695Z" fill="white"/>
<path d="M6.82396 9.30613C8.77408 9.30613 10.355 7.72525 10.355 5.77514C10.355 3.82502 8.77408 2.24414 6.82396 2.24414C4.87385 2.24414 3.29297 3.82502 3.29297 5.77514C3.29297 7.72525 4.87385 9.30613 6.82396 9.30613Z" fill="white"/>
<path d="M7.25999 21.9113V11.8265C7.25999 11.6769 7.25999 11.5251 7.25999 11.3711H2.5146C1.85223 11.3711 1.2166 11.6324 0.745777 12.0982C0.274951 12.5641 0.00695395 13.197 0 13.8593V23.2841C0.0249836 23.6565 0.190561 24.0056 0.463209 24.2606C0.735857 24.5155 1.0952 24.6574 1.4685 24.6574C1.84179 24.6574 2.20114 24.5155 2.47379 24.2606C2.74643 24.0056 2.91201 23.6565 2.937 23.2841V32.9993H5.85419V23.7593H7.78799V32.9993H10.428V25.4027C9.56143 25.3161 8.75779 24.9111 8.17259 24.2662C7.58738 23.6212 7.26221 22.7821 7.25999 21.9113Z" fill="white"/>
<path d="M26.1755 9.30613C28.1256 9.30613 29.7065 7.72525 29.7065 5.77514C29.7065 3.82502 28.1256 2.24414 26.1755 2.24414C24.2254 2.24414 22.6445 3.82502 22.6445 5.77514C22.6445 7.72525 24.2254 9.30613 26.1755 9.30613Z" fill="white"/>
<path d="M30.4861 11.3711H25.7407C25.7407 11.5251 25.7407 11.6769 25.7407 11.8265V21.9113C25.7388 22.7801 25.4155 23.6175 24.833 24.2621C24.2505 24.9068 23.4501 25.3131 22.5859 25.4027V32.9993H25.2259V23.7593H27.1597V32.9993H30.0769V23.2841C30.1019 23.6566 30.2675 24.0056 30.5401 24.2606C30.8128 24.5156 31.1721 24.6574 31.5454 24.6574C31.9187 24.6574 32.2781 24.5156 32.5507 24.2606C32.8234 24.0056 32.9889 23.6566 33.0139 23.2841V13.8593C33.007 13.1947 32.7371 12.5599 32.2635 12.0936C31.7898 11.6274 31.1508 11.3676 30.4861 11.3711Z" fill="white"/>
</g>
</svg>
