<svg width="21" height="15" viewBox="0 0 21 15" fill="none" xmlns="http://www.w3.org/2000/svg">
<g opacity="0.7">
<path d="M10.6546 9.96591C10.4726 10.0769 10.2636 10.1357 10.0504 10.1357C9.83721 10.1357 9.62815 10.0769 9.44616 9.96591L0 4.18945V11.8672C0.00106574 12.6553 0.314615 13.4109 0.871897 13.9682C1.42918 14.5254 2.18471 14.839 2.97282 14.8401H17.1682C17.9564 14.839 18.7119 14.5254 19.2692 13.9682C19.8265 13.4109 20.14 12.6553 20.1411 11.8672V4.18945L10.6546 9.96591Z" fill="#FF5359"/>
<path d="M17.1692 0H2.9738C2.30027 0.00242683 1.64782 0.23505 1.12468 0.659277C0.601538 1.0835 0.239158 1.67384 0.0976562 2.33234L10.0715 8.41897L20.0454 2.33234C19.9039 1.67384 19.5415 1.0835 19.0183 0.659277C18.4952 0.23505 17.8428 0.00242683 17.1692 0Z" fill="#FF5359"/>
</g>
</svg>
