<svg width="21" height="21" viewBox="0 0 21 21" fill="none" xmlns="http://www.w3.org/2000/svg">
<g opacity="0.35">
<path d="M10.5 0C4.69979 0 0 4.69979 0 10.5C0 16.3002 4.69979 21 10.5 21C16.3002 21 21 16.3002 21 10.5C21 4.69979 16.3002 0 10.5 0ZM17.1376 15.8136C17.0587 15.1296 16.7693 14.358 15.9013 14.1388C14.2397 13.718 12.8894 12.7666 12.8894 12.7666L11.8372 16.0985L11.6399 16.7255L11.6355 16.7167L11.4645 17.2472L10.9077 15.6689C12.315 13.7092 10.5351 13.7837 10.5351 13.7837C10.5351 13.7837 8.7595 13.7092 10.1624 15.6689L9.60125 17.256L9.43027 16.7211L8.17641 12.7622C8.17641 12.7622 6.8261 13.7136 5.16451 14.1344C4.29645 14.3537 4.0071 15.1253 3.92818 15.8092C2.75762 14.358 2.05616 12.5123 2.05616 10.5C2.05616 5.81775 5.85282 2.02109 10.5351 2.02109C15.2173 2.02109 19.014 5.81775 19.014 10.5C19.014 12.5123 18.3081 14.358 17.1376 15.8136Z" fill="white"/>
<path d="M13.5876 8.31301C13.6402 8.16395 13.6796 8.01928 13.7059 7.87022C14.1663 5.09506 12.8028 4.99861 12.8028 4.99861C12.8028 4.99861 12.5748 4.56458 11.9786 4.23577C11.5796 3.99903 11.0228 3.81489 10.2863 3.88066C10.0496 3.89381 9.82598 3.93765 9.61116 4.0078C9.33934 4.09986 9.09383 4.23139 8.87024 4.38921C8.59404 4.56458 8.33537 4.77502 8.1074 5.02053C7.74352 5.3888 7.42348 5.86667 7.28318 6.46291C7.16481 6.91009 7.19112 7.37481 7.28757 7.8746C7.31387 8.01928 7.35333 8.16834 7.40594 8.3174C7.13412 8.29109 6.8097 8.44892 7.11659 9.52304C7.34018 10.3078 7.54623 10.527 7.69968 10.5402C7.84435 11.474 8.55897 12.6577 9.74268 13.0742C10.2249 13.2452 10.7598 13.2452 11.2421 13.0698C12.4039 12.6489 13.1448 11.4696 13.2894 10.5402C13.4473 10.527 13.6533 10.3078 13.8725 9.52304C14.1838 8.44454 13.8638 8.28671 13.5876 8.31301Z" fill="white"/>
</g>
</svg>
