<svg width="22" height="25" viewBox="0 0 22 25" fill="none" xmlns="http://www.w3.org/2000/svg">
<path d="M10.4241 11.1929C10.4241 11.0793 10.4692 10.9703 10.5495 10.8899C10.6299 10.8096 10.7389 10.7644 10.8525 10.7644C10.9661 10.7644 11.0751 10.8096 11.1555 10.8899C11.2358 10.9703 11.281 11.0793 11.281 11.1929H15.215C16.1641 10.3155 16.8267 9.17225 17.1161 7.91247C17.4055 6.65269 17.3083 5.33493 16.8372 4.13125C16.3661 2.92757 15.5429 1.89393 14.4753 1.16528C13.4076 0.436644 12.1451 0.046875 10.8525 0.046875C9.55992 0.046875 8.29737 0.436644 7.22972 1.16528C6.16208 1.89393 5.33895 2.92757 4.86784 4.13125C4.39673 5.33493 4.29953 6.65269 4.58893 7.91247C4.87832 9.17225 5.54087 10.3155 6.49005 11.1929H10.4241ZM15.5654 6.05151H15.9939C16.1075 6.05151 16.2165 6.09665 16.2968 6.177C16.3772 6.25735 16.4223 6.36633 16.4223 6.47996C16.4223 6.59359 16.3772 6.70257 16.2968 6.78292C16.2165 6.86327 16.1075 6.90841 15.9939 6.90841H15.5654C15.4518 6.90841 15.3428 6.86327 15.2625 6.78292C15.1821 6.70257 15.137 6.59359 15.137 6.47996C15.137 6.36633 15.1821 6.25735 15.2625 6.177C15.3428 6.09665 15.4518 6.05151 15.5654 6.05151ZM13.8821 2.84458L14.185 2.54166C14.2658 2.46362 14.374 2.42043 14.4863 2.42141C14.5987 2.42239 14.7061 2.46745 14.7856 2.54688C14.865 2.62632 14.9101 2.73378 14.9111 2.84612C14.912 2.95846 14.8688 3.06668 14.7908 3.14749L14.4879 3.4504C14.4484 3.49132 14.4011 3.52396 14.3488 3.54642C14.2965 3.56887 14.2403 3.58069 14.1834 3.58119C14.1265 3.58168 14.0701 3.57084 14.0175 3.5493C13.9648 3.52776 13.917 3.49594 13.8768 3.45571C13.8365 3.41549 13.8047 3.36765 13.7832 3.31499C13.7616 3.26234 13.7508 3.20592 13.7513 3.14903C13.7518 3.09214 13.7636 3.03592 13.786 2.98365C13.8085 2.93138 13.8411 2.8841 13.8821 2.84458ZM13.8821 9.50952C13.9624 9.4292 14.0714 9.38408 14.185 9.38408C14.2986 9.38408 14.4075 9.4292 14.4879 9.50952L14.7908 9.81243C14.8317 9.85196 14.8644 9.89923 14.8868 9.9515C14.9093 10.0038 14.9211 10.06 14.9216 10.1169C14.9221 10.1738 14.9112 10.2302 14.8897 10.2828C14.8682 10.3355 14.8363 10.3833 14.7961 10.4236C14.7559 10.4638 14.708 10.4956 14.6554 10.5172C14.6027 10.5387 14.5463 10.5495 14.4894 10.549C14.4325 10.5485 14.3763 10.5367 14.3241 10.5143C14.2718 10.4918 14.2245 10.4592 14.185 10.4183L13.8821 10.1153C13.8017 10.035 13.7566 9.92604 13.7566 9.81243C13.7566 9.69882 13.8017 9.58986 13.8821 9.50952ZM10.4241 1.33858C10.4241 1.22495 10.4692 1.11597 10.5495 1.03562C10.6299 0.955273 10.7389 0.910133 10.8525 0.910133C10.9661 0.910133 11.0751 0.955273 11.1555 1.03562C11.2358 1.11597 11.281 1.22495 11.281 1.33858V1.76703C11.281 1.88066 11.2358 1.98964 11.1555 2.06999C11.0751 2.15034 10.9661 2.19548 10.8525 2.19548C10.7389 2.19548 10.6299 2.15034 10.5495 2.06999C10.4692 1.98964 10.4241 1.88066 10.4241 1.76703V1.33858ZM8.9472 6.9534L10.4241 6.21518V3.48082C10.4241 3.36719 10.4692 3.25821 10.5495 3.17786C10.6299 3.09751 10.7389 3.05237 10.8525 3.05237C10.9661 3.05237 11.0751 3.09751 11.1555 3.17786C11.2358 3.25821 11.281 3.36719 11.281 3.48082V6.47996C11.281 6.55958 11.2588 6.63763 11.217 6.70537C11.1751 6.7731 11.1152 6.82783 11.044 6.86342L9.33023 7.72032C9.22853 7.77111 9.11082 7.77942 9.00299 7.74343C8.89516 7.70743 8.80605 7.63007 8.75525 7.52837C8.70446 7.42667 8.69615 7.30896 8.73214 7.20113C8.76814 7.0933 8.8455 7.00419 8.9472 6.9534ZM6.91421 2.54038C6.99456 2.46006 7.10351 2.41494 7.21712 2.41494C7.33073 2.41494 7.43969 2.46006 7.52004 2.54038L7.82295 2.84329C7.86387 2.88281 7.89651 2.93009 7.91897 2.98236C7.94142 3.03464 7.95324 3.09086 7.95373 3.14775C7.95423 3.20464 7.94339 3.26105 7.92184 3.31371C7.9003 3.36636 7.86849 3.4142 7.82826 3.45443C7.78803 3.49466 7.74019 3.52647 7.68754 3.54801C7.63489 3.56956 7.57847 3.5804 7.52158 3.5799C7.46469 3.57941 7.40847 3.56759 7.3562 3.54513C7.30392 3.52268 7.25665 3.49004 7.21712 3.44912L6.91421 3.1462C6.83428 3.06591 6.78941 2.95723 6.78941 2.84393C6.78941 2.73064 6.83428 2.62196 6.91421 2.54166V2.54038ZM6.91421 9.81115L7.21712 9.50823C7.25665 9.46731 7.30392 9.43467 7.3562 9.41222C7.40847 9.38976 7.46469 9.37794 7.52158 9.37745C7.57847 9.37696 7.63489 9.3878 7.68754 9.40934C7.74019 9.43088 7.78803 9.4627 7.82826 9.50292C7.86849 9.54315 7.9003 9.59099 7.92184 9.64364C7.94339 9.6963 7.95423 9.75272 7.95373 9.8096C7.95324 9.86649 7.94142 9.92271 7.91897 9.97499C7.89651 10.0273 7.86387 10.0745 7.82295 10.1141L7.52004 10.417C7.43923 10.495 7.331 10.5382 7.21867 10.5372C7.10633 10.5363 6.99887 10.4912 6.91943 10.4118C6.83999 10.3323 6.79493 10.2249 6.79396 10.1125C6.79298 10.0002 6.83617 9.89195 6.91421 9.81115ZM6.13958 6.90841H5.71113C5.5975 6.90841 5.48852 6.86327 5.40817 6.78292C5.32782 6.70257 5.28268 6.59359 5.28268 6.47996C5.28268 6.36633 5.32782 6.25735 5.40817 6.177C5.48852 6.09665 5.5975 6.05151 5.71113 6.05151H6.13958C6.25321 6.05151 6.36219 6.09665 6.44254 6.177C6.52288 6.25735 6.56802 6.36633 6.56802 6.47996C6.56802 6.59359 6.52288 6.70257 6.44254 6.78292C6.36219 6.86327 6.25321 6.90841 6.13958 6.90841Z" fill="white"/>
<path d="M21.1367 13.7646L21.1358 12.0508H0.570312V13.7646H21.1358H21.1367Z" fill="white"/>
<path d="M8.53205 19.4146C8.58715 19.4543 8.632 19.5066 8.66292 19.5671C8.69383 19.6276 8.70992 19.6945 8.70986 19.7625V23.6185C8.70977 23.6863 8.72578 23.7532 8.75658 23.8136C8.78737 23.874 8.83206 23.9263 8.88698 23.966C8.9419 24.0058 9.00547 24.032 9.07248 24.0424C9.13948 24.0528 9.20801 24.0472 9.27241 24.026L12.7 22.8824C12.786 22.8541 12.8608 22.7992 12.9137 22.7257C12.9666 22.6522 12.9948 22.5638 12.9943 22.4733V19.7625C12.9944 19.6947 13.0106 19.6279 13.0415 19.5676C13.0724 19.5072 13.1172 19.4551 13.1721 19.4154L19.8097 14.6211H1.89453L8.53205 19.4146Z" fill="white"/>
</svg>
