<svg width="51" height="46" viewBox="0 0 51 46" fill="none" xmlns="http://www.w3.org/2000/svg">
<rect width="51" height="46" rx="9" fill="#EC1F26"/>
<path d="M34.4 14.6H33.2V12.2C33.2 11.8817 33.0736 11.5765 32.8486 11.3515C32.6235 11.1264 32.3183 11 32 11C31.6818 11 31.3765 11.1264 31.1515 11.3515C30.9265 11.5765 30.8 11.8817 30.8 12.2V14.6H21.2V12.2C21.2 11.8817 21.0736 11.5765 20.8485 11.3515C20.6235 11.1264 20.3183 11 20 11C19.6818 11 19.3765 11.1264 19.1515 11.3515C18.9264 11.5765 18.8 11.8817 18.8 12.2V14.6H17.6C16.6452 14.6 15.7296 14.9793 15.0544 15.6544C14.3793 16.3296 14 17.2452 14 18.2V19.4H38V18.2C38 17.2452 37.6208 16.3296 36.9456 15.6544C36.2705 14.9793 35.3548 14.6 34.4 14.6Z" fill="white"/>
<path d="M14 31.4008C14 32.3556 14.3793 33.2713 15.0544 33.9464C15.7296 34.6215 16.6452 35.0008 17.6 35.0008H34.4C35.3548 35.0008 36.2705 34.6215 36.9456 33.9464C37.6208 33.2713 38 32.3556 38 31.4008V21.8008H14V31.4008Z" fill="white"/>
<rect x="30.5" y="27.5" width="4.50001" height="4.50001" rx="1" fill="#EC1F26"/>
</svg>
