<svg width="84" height="84" viewBox="0 0 84 84" fill="none" xmlns="http://www.w3.org/2000/svg">
<path d="M42.1667 67.1667C42.1667 70.0833 42.7083 72.875 43.625 75.5H8.83333C4.25 75.5 0.5 71.7917 0.5 67.1667V8.83333C0.5 4.25 4.25 0.5 8.83333 0.5H67.1667C71.7917 0.5 75.5 4.25 75.5 8.83333V43.625C72.875 42.7083 70.0833 42.1667 67.1667 42.1667V8.83333H8.83333V67.1667H42.1667ZM46.1667 39.2083L34.7083 53.9583L26.5417 44.125L15.0833 58.8333H43.625C45.2917 54.1667 48.2917 50.125 52.1667 47.2083L46.1667 39.2083ZM71.3333 63V50.5H63V63H50.5V71.3333H63V83.8333H71.3333V71.3333H83.8333V63H71.3333Z" fill="#595959"/>
</svg>
