<svg width="32" height="32" viewBox="0 0 32 32" fill="none" xmlns="http://www.w3.org/2000/svg">
<path d="M13.145 31.9569H1C0.447 31.9569 0 31.509 0 30.9549C0 30.4009 0.447 29.953 1 29.953H13.145C13.698 29.953 14.145 30.4009 14.145 30.9549C14.145 31.509 13.697 31.9569 13.145 31.9569ZM14.145 24.891C14.145 24.3369 13.698 23.889 13.145 23.889H1C0.447 23.889 0 24.3369 0 24.891C0 25.4451 0.447 25.893 1 25.893H13.145C13.697 25.893 14.145 25.4441 14.145 24.891ZM14.334 18.8271C14.334 18.273 13.887 17.8251 13.334 17.8251H1C0.447 17.8251 0 18.273 0 18.8271C0 19.3812 0.447 19.829 1 19.829H13.334C13.887 19.829 14.334 19.3812 14.334 18.8271ZM14.334 11.3564V3.00592C14.334 1.34866 12.988 0 11.334 0H3C1.346 0 0 1.34866 0 3.00592V11.3564C0 13.0136 1.346 14.3623 3 14.3623H11.334C12.988 14.3623 14.334 13.0136 14.334 11.3564ZM32 11.3564V3.00592C32 1.34866 30.654 0 29 0H20.666C19.012 0 17.666 1.34866 17.666 3.00592V11.3564C17.666 13.0136 19.012 14.3623 20.666 14.3623H29C30.654 14.3623 32 13.0136 32 11.3564ZM32 28.9941V20.6436C32 18.9864 30.654 17.6377 29 17.6377H20.666C19.012 17.6377 17.666 18.9864 17.666 20.6436V28.9941C17.666 30.6513 19.012 32 20.666 32H29C30.654 32 32 30.6523 32 28.9941Z" fill="#EC1F26"/>
</svg>
