<svg width="105" height="105" viewBox="0 0 105 105" fill="none" xmlns="http://www.w3.org/2000/svg">
<rect x="2.5" y="2.5" width="100" height="100" rx="11.5" fill="#EC1F26" stroke="white" stroke-width="5"/>
<circle cx="52.5003" cy="52.5003" r="36.6429" fill="white"/>
<path d="M66.7482 38.9277H38.866C31.4158 38.9277 24.7734 44.3696 24.0665 51.7751C23.2587 60.2802 29.9123 67.4275 38.2489 67.4275C41.974 67.4275 45.3288 65.9801 47.8646 63.6351C49.1437 62.4569 50.7594 61.7276 52.4985 61.7276C54.2489 61.7276 55.8758 62.4681 57.1661 63.6575C60.2854 66.5411 64.6612 68.0559 69.4186 67.1807C74.9726 66.1596 79.5392 61.7612 80.6837 56.2296C82.5911 47.0289 75.6121 38.9277 66.7482 38.9277ZM43.9487 56.0276H41.0988V58.8776C41.0988 60.4485 39.8197 61.7276 38.2489 61.7276C36.6781 61.7276 35.3989 60.4485 35.3989 58.8776V56.0276H32.549C30.9782 56.0276 29.6991 54.7485 29.6991 53.1776C29.6991 51.6068 30.9782 50.3277 32.549 50.3277H35.3989V47.4777C35.3989 45.9068 36.6781 44.6277 38.2489 44.6277C39.8197 44.6277 41.0988 45.9068 41.0988 47.4777V50.3277H43.9487C45.5196 50.3277 46.7987 51.6068 46.7987 53.1776C46.7987 54.7485 45.5196 56.0276 43.9487 56.0276ZM66.7482 44.6277C68.319 44.6277 69.5981 45.9068 69.5981 47.4777C69.5981 49.0485 68.319 50.3277 66.7482 50.3277C65.1774 50.3277 63.8983 49.0485 63.8983 47.4777C63.8983 45.9068 65.1774 44.6277 66.7482 44.6277ZM61.0483 56.0276C59.4775 56.0276 58.1984 54.7485 58.1984 53.1776C58.1984 51.6068 59.4775 50.3277 61.0483 50.3277C62.6192 50.3277 63.8983 51.6068 63.8983 53.1776C63.8983 54.7485 62.6192 56.0276 61.0483 56.0276ZM66.7482 61.7276C65.1774 61.7276 63.8983 60.4485 63.8983 58.8776C63.8983 57.3067 65.1774 56.0276 66.7482 56.0276C68.319 56.0276 69.5981 57.3067 69.5981 58.8776C69.5981 60.4485 68.319 61.7276 66.7482 61.7276ZM72.4481 56.0276C70.8772 56.0276 69.5981 54.7485 69.5981 53.1776C69.5981 51.6068 70.8772 50.3277 72.4481 50.3277C74.0189 50.3277 75.298 51.6068 75.298 53.1776C75.298 54.7485 74.0189 56.0276 72.4481 56.0276Z" fill="#049E48"/>
</svg>
