<svg width="18" height="18" viewBox="0 0 18 18" fill="none" xmlns="http://www.w3.org/2000/svg">
<g opacity="0.5">
<path d="M6.31055 13.4346V16.7789C6.31055 17.0126 6.46053 17.2195 6.68262 17.2931C6.73815 17.3111 6.79511 17.3198 6.85136 17.3198C7.02009 17.3198 7.18305 17.2404 7.28689 17.0991L9.24318 14.4369L6.31055 13.4346Z" fill="white"/>
<path d="M17.0788 0.835646C16.913 0.71811 16.6952 0.702246 16.5149 0.796707L0.290627 9.2694C0.0988201 9.36963 -0.0143895 9.57442 0.00147423 9.79002C0.0180591 10.0063 0.161554 10.1909 0.36562 10.2609L4.87598 11.8026L14.4815 3.58945L7.04859 12.5445L14.6077 15.1282C14.6639 15.1469 14.723 15.157 14.7822 15.157C14.8802 15.157 14.9776 15.1303 15.0634 15.0784C15.2004 14.9948 15.2934 14.8542 15.3172 14.6962L17.3002 1.35627C17.3298 1.15436 17.2447 0.953903 17.0788 0.835646Z" fill="white"/>
</g>
</svg>
