<svg width="24" height="22" viewBox="0 0 24 22" fill="none" xmlns="http://www.w3.org/2000/svg">
<g opacity="0.5">
<path d="M23.676 21.9994V13.9419C23.676 9.982 22.7585 6.95703 17.7864 6.95703C15.3892 6.95703 13.791 8.16702 13.1399 9.322H13.0807V7.31453H8.375V21.9994H13.2879V14.7119C13.2879 12.787 13.6726 10.9445 16.2179 10.9445C18.7335 10.9445 18.7631 13.117 18.7631 14.8219V21.9719H23.676V21.9994Z" fill="white"/>
<path d="M0.384766 7.31445H5.29765V21.9993H0.384766V7.31445Z" fill="white"/>
<path d="M2.84119 0C1.27261 0 0 1.18249 0 2.63997C0 4.09745 1.27261 5.30744 2.84119 5.30744C4.40976 5.30744 5.68237 4.09745 5.68237 2.63997C5.68237 1.18249 4.40976 0 2.84119 0Z" fill="white"/>
</g>
</svg>
