<svg width="34" height="28" viewBox="0 0 34 28" fill="none" xmlns="http://www.w3.org/2000/svg">
<g opacity="0.15">
<path d="M18.3631 14.8255L17.1738 14.431C24.1571 10.8714 22.3215 0.301081 13.9473 0C5.62282 0.153573 3.79724 11.0701 10.7262 14.4311L4.39805 16.5345C3.11585 16.9625 2.00096 17.7833 1.21152 18.8806C0.422094 19.9778 -0.00178963 21.2958 5.67941e-06 22.6476V25.6652C-0.000595526 26.2666 0.237628 26.8436 0.662311 27.2694C1.08699 27.6952 1.66338 27.935 2.26476 27.936H21.0521C20.9445 27.8762 20.837 27.8105 20.7294 27.7388C16.4136 25.0883 15.289 18.8294 18.3631 14.8255Z" fill="white"/>
<path d="M25.6349 12.3457C24.0869 12.3459 22.5738 12.805 21.2867 13.6652C19.9997 14.5253 18.9966 15.7477 18.4042 17.1779C17.8119 18.6081 17.657 20.1819 17.959 21.7001C18.2611 23.2183 19.0065 24.6129 20.1011 25.7075C21.1957 26.8021 22.5903 27.5476 24.1086 27.8496C25.6268 28.1517 27.2005 27.9967 28.6307 27.4044C30.0609 26.8121 31.2834 25.809 32.1435 24.5219C33.0036 23.2349 33.4628 21.7217 33.463 20.1737C33.4586 18.0989 32.6324 16.1104 31.1653 14.6433C29.6982 13.1762 27.7097 12.3501 25.6349 12.3457ZM31.1923 20.9864C28.3657 22.8944 25.7533 24.4383 22.4739 22.4384C21.6416 22.0086 20.8391 21.5235 20.0717 20.9864C19.6443 20.6657 19.4037 20.6428 19.3605 20.1738C19.3629 19.6682 19.9823 19.4739 20.3943 19.14C22.0894 18.098 23.9862 16.7893 26.0651 16.9469C27.8968 17.2024 29.9122 18.4957 31.1683 19.3432C31.6058 19.6825 31.8635 19.6962 31.9094 20.1738C31.9124 20.594 31.5103 20.7512 31.1923 20.9864Z" fill="white"/>
<path d="M25.6332 18.1113C24.7303 18.2114 23.8577 18.4962 23.0696 18.9479C22.355 19.3153 21.6627 19.7243 20.9961 20.1729C22.0308 20.8917 23.1458 21.4874 24.3185 21.9477C26.0214 22.7173 27.7139 21.6719 29.1946 20.8482C29.583 20.6151 29.9476 20.3821 30.2643 20.1729C29.5235 19.6782 28.7532 19.2292 27.9577 18.8284C27.2382 18.4372 26.448 18.1934 25.6332 18.1113ZM26.7207 21.2605C26.5416 21.4406 26.3208 21.5736 26.0779 21.6478C25.835 21.722 25.5775 21.735 25.3283 21.6857C25.0792 21.6365 24.846 21.5264 24.6497 21.3653C24.4533 21.2043 24.2997 20.9972 24.2026 20.7625C24.1056 20.5278 24.068 20.2727 24.0932 20.02C24.1184 19.7673 24.2057 19.5247 24.3472 19.3138C24.4888 19.1029 24.6802 18.9303 24.9046 18.8112C25.1289 18.6921 25.3792 18.6303 25.6332 18.6312C25.935 18.6374 26.2285 18.7314 26.4777 18.9017C26.727 19.072 26.9212 19.3113 27.0366 19.5903C27.152 19.8692 27.1835 20.1758 27.1274 20.4724C27.0714 20.7691 26.93 21.0429 26.7207 21.2605Z" fill="white"/>
<path d="M25.2812 20.1741C25.2837 20.2651 25.3217 20.3516 25.3869 20.4151C25.4522 20.4787 25.5397 20.5142 25.6308 20.5142C25.7219 20.5142 25.8094 20.4787 25.8747 20.4152C25.94 20.3517 25.9779 20.2652 25.9804 20.1741C25.9779 20.0831 25.94 19.9966 25.8747 19.9331C25.8094 19.8695 25.7219 19.834 25.6308 19.834C25.5398 19.834 25.4523 19.8695 25.387 19.933C25.3217 19.9965 25.2838 20.083 25.2812 20.1741Z" fill="white"/>
</g>
</svg>
