<svg width="43" height="24" viewBox="0 0 43 24" fill="none" xmlns="http://www.w3.org/2000/svg">
<path d="M22.8629 0H19.4686C18.3688 0 17.3798 0.610948 16.8872 1.5952L16.7227 1.92425H25.6088L25.4443 1.5952C24.9527 0.610948 23.9626 0 22.8629 0Z" fill="#EC1F26"/>
<path d="M2.83538 20.1998C2.2581 19.0394 1.92425 17.7377 1.92425 16.3561V8.6591C1.92425 8.02506 2.01853 7.41412 2.18306 6.83203C0.932297 7.14761 0 8.27329 0 9.62123V17.3182C0 18.8922 1.26808 20.1719 2.83538 20.1998Z" fill="#EC1F26"/>
<path d="M40.1523 6.83203C40.3168 7.41412 40.4111 8.02506 40.4111 8.6591V16.3561C40.4111 17.7377 40.0773 19.0394 39.5 20.1998C41.0673 20.1719 42.3354 18.8922 42.3354 17.3182V9.62123C42.3354 8.27329 41.4031 7.14761 40.1523 6.83203Z" fill="#EC1F26"/>
<path d="M33.6735 3.84863H8.65827C5.30431 3.84863 3.84766 6.76194 3.84766 8.65925V16.3562C3.84766 17.7677 4.27965 19.081 5.03011 20.1605C5.38609 20.6723 7.15447 23.0911 10.5825 23.0911H16.0349C17.9976 23.0911 19.435 21.7441 19.435 21.7441C21.112 20.5646 22.6523 21.5594 22.8977 21.7441C22.8977 21.7441 24.2764 23.0911 26.2978 23.0911H31.7492C35.3264 23.0911 38.4841 20.2057 38.4841 16.3562V8.65925C38.4841 6.45406 36.7301 3.84863 33.6735 3.84863ZM10.5816 9.62329H8.65731C7.3594 9.62329 7.40078 7.69905 8.65731 7.69905H10.5816C11.9045 7.72791 11.8362 9.62329 10.5816 9.62329Z" fill="#EC1F26"/>
</svg>
