<svg width="22" height="19" viewBox="0 0 22 19" fill="none" xmlns="http://www.w3.org/2000/svg">
<path d="M20.6359 14.2902L13.2951 1.57534C12.0961 -0.525112 9.06402 -0.525112 7.86931 1.57534L0.524209 14.2902C-0.674815 16.3906 0.817495 19 3.23711 19H17.8971C20.3167 19 21.8349 16.3647 20.6359 14.2902ZM10.5779 16.1793C9.93957 16.1793 9.40906 15.6488 9.40906 15.0104C9.40906 14.3721 9.93957 13.8416 10.5779 13.8416C11.2162 13.8416 11.7467 14.3721 11.7208 15.0406C11.751 15.6488 11.1903 16.1793 10.5779 16.1793ZM11.6432 8.62284C11.5915 9.52857 11.5354 10.43 11.4836 11.3357C11.4578 11.629 11.4578 11.8964 11.4578 12.1854C11.4319 12.6642 11.0566 13.0351 10.5779 13.0351C10.0991 13.0351 9.72823 12.69 9.69804 12.2113C9.6204 10.8009 9.53845 9.41644 9.46082 8.00607C9.43494 7.63515 9.40906 7.25992 9.37887 6.889C9.37887 6.27654 9.72391 5.77192 10.2846 5.61234C10.8453 5.47863 11.4017 5.74604 11.6432 6.27655C11.7252 6.46201 11.751 6.64747 11.751 6.86312C11.7252 7.454 11.6691 8.04058 11.6432 8.62284Z" fill="white"/>
</svg>
